<svg width="71" height="71" viewBox="0 0 71 71" fill="none" xmlns="http://www.w3.org/2000/svg">
<g id="Icon" opacity="0.3" clip-path="url(#clip0_8_141)">
<path id="Vector" d="M16.0117 55.4301C16.0117 55.4301 16.7892 55.1967 18.3441 54.7301L22.3092 53.3301C23.8641 52.8634 25.1858 52.0079 26.2743 50.7634C27.3627 49.519 28.0624 48.0412 28.3734 46.3301C31.6388 47.419 34.8264 47.3801 37.9363 46.2134C41.0461 45.0467 43.5729 43.1412 45.5166 40.4967C47.4602 37.8523 48.4321 34.8967 48.4321 31.6301V21.8301C48.4321 21.2079 48.1211 20.819 47.4991 20.6634C44.8557 19.8856 42.9898 18.1745 41.9013 15.5301C41.7458 15.0634 41.4737 14.7912 41.085 14.7134C40.6963 14.6356 40.3464 14.6745 40.0354 14.8301C36.9256 17.319 33.5047 19.0301 29.7729 19.9634C26.041 20.8967 22.3092 21.1301 18.5773 20.6634C18.2663 20.6634 17.9554 20.7801 17.6444 21.0134C17.3334 21.2467 17.1779 21.519 17.1779 21.8301V31.6301C17.1779 35.9856 18.8106 39.719 22.0759 42.8301C22.3869 42.9856 22.6979 43.0634 23.0089 43.0634C23.3199 43.0634 23.592 42.9467 23.8252 42.7134C24.0585 42.4801 24.1362 42.2079 24.0585 41.8967C23.9807 41.5856 23.8641 41.3523 23.7086 41.1967C20.9097 38.5523 19.5103 35.2856 19.5103 31.3967V23.2301C23.2421 23.5412 26.8962 23.2301 30.4726 22.2967C34.0489 21.3634 37.3143 19.8079 40.2687 17.6301C41.6681 20.119 43.6118 21.8301 46.0997 22.7634V31.3967C46.0997 34.5079 45.1667 37.2301 43.3008 39.5634C41.4349 41.8967 39.0636 43.4523 36.187 44.2301C33.3103 45.0079 30.4726 44.8523 27.6737 43.7634C27.2072 43.4523 26.7796 43.4912 26.3909 43.8801C26.0021 44.269 25.8855 44.6967 26.041 45.1634C26.041 46.5634 25.6134 47.8079 24.7582 48.8967C23.903 49.9856 22.8534 50.7634 21.6095 51.2301L15.312 53.3301C13.4461 53.9523 11.9689 55.0412 10.8804 56.5967C9.79196 58.1523 9.24773 59.9412 9.24773 61.9634V69.6634C9.24773 69.9745 9.36435 70.2467 9.59759 70.4801C9.83083 70.7134 10.1029 70.8301 10.4139 70.8301C10.7249 70.8301 10.997 70.7134 11.2303 70.4801C11.4635 70.2467 11.5801 69.9745 11.5801 69.6634V61.9634C11.5801 60.5634 11.9689 59.2412 12.7463 57.9967C13.5238 56.7523 14.6123 55.8967 16.0117 55.4301ZM30.2393 29.7634V27.8967C30.2393 27.5856 30.1227 27.3134 29.8895 27.0801C29.6562 26.8467 29.3841 26.7301 29.0731 26.7301C28.7621 26.7301 28.49 26.8467 28.2568 27.0801C28.0236 27.3134 27.9069 27.5856 27.9069 27.8967V29.7634C27.9069 30.0745 28.0236 30.3467 28.2568 30.5801C28.49 30.8134 28.7621 30.9301 29.0731 30.9301C29.3841 30.9301 29.6562 30.8134 29.8895 30.5801C30.1227 30.3467 30.2393 30.0745 30.2393 29.7634ZM37.703 29.7634V27.8967C37.703 27.5856 37.5864 27.3134 37.3532 27.0801C37.1199 26.8467 36.8478 26.7301 36.5368 26.7301C36.2258 26.7301 35.9537 26.8467 35.7205 27.0801C35.4872 27.3134 35.3706 27.5856 35.3706 27.8967V29.7634C35.3706 30.0745 35.4872 30.3467 35.7205 30.5801C35.9537 30.8134 36.2258 30.9301 36.5368 30.9301C36.8478 30.9301 37.1199 30.8134 37.3532 30.5801C37.5864 30.3467 37.703 30.0745 37.703 29.7634ZM10.4139 52.8634C10.7249 52.8634 10.997 52.669 11.2303 52.2801C11.4635 51.8912 11.5801 51.5412 11.5801 51.2301L11.1137 49.8301C10.9582 48.7412 10.8027 47.8856 10.6472 47.2634C10.1807 46.1745 9.59759 45.319 8.89787 44.6967C8.19815 44.0745 7.22632 43.5301 5.98237 43.0634C4.73843 42.5967 3.96096 42.0523 3.64997 41.4301C3.028 40.6523 2.71701 39.4079 2.71701 37.6967C2.56152 35.3634 3.10575 32.7967 4.34969 29.9967C6.21561 25.7967 9.24773 21.2856 13.4461 16.4634V38.8634C13.4461 39.9523 13.757 40.9245 14.379 41.7801C15.001 42.6356 15.8562 43.219 16.9447 43.5301C17.2556 43.5301 17.5666 43.4523 17.8776 43.2967C18.1886 43.1412 18.383 42.9079 18.4607 42.5967C18.5385 42.2856 18.4996 41.9745 18.3441 41.6634C18.1886 41.3523 17.8776 41.1579 17.4111 41.0801C16.9447 41.0023 16.5559 40.769 16.2449 40.3801C15.9339 39.9912 15.7785 39.4856 15.7785 38.8634V16.4634C15.7785 15.3745 15.8562 14.3634 16.0117 13.4301L16.2449 12.7301C17.0224 9.93008 18.6162 7.63563 21.0264 5.84674C23.4365 4.05785 26.1188 3.16341 29.0731 3.16341H36.5368C40.2687 3.16341 43.4174 4.48563 45.983 7.13008C48.5487 9.77452 49.8315 12.8856 49.8315 16.4634V38.8634C49.8315 39.4856 49.676 39.9912 49.365 40.3801C49.054 40.769 48.6653 41.0023 48.1988 41.0801C47.7323 41.1579 47.4214 41.3523 47.2659 41.6634C47.1104 41.9745 47.0326 42.2856 47.0326 42.5967C47.0326 42.9079 47.1881 43.1412 47.4991 43.2967C47.8101 43.4523 48.1211 43.5301 48.4321 43.5301C49.5205 43.3745 50.4146 42.8301 51.1143 41.8967C51.814 40.9634 52.1639 39.9523 52.1639 38.8634V16.4634C52.1639 13.6634 51.4642 11.0579 50.0647 8.64674C48.6653 6.23563 46.7605 4.33008 44.3504 2.93008C41.9402 1.53008 39.3357 0.830078 36.5368 0.830078H29.0731C25.4968 0.830078 22.3092 1.91897 19.5103 4.09674C16.7114 6.27452 14.8455 8.99675 13.9125 12.2634C10.1807 16.3079 7.14857 20.2745 4.81617 24.1634C1.7063 29.2967 0.229118 33.8079 0.384611 37.6967C0.384611 40.1856 0.928838 41.9745 2.01729 43.0634C2.63927 43.8412 3.64997 44.5412 5.04941 45.1634C6.13787 45.6301 6.91533 46.0579 7.38181 46.4467C7.84829 46.8356 8.15928 47.3023 8.31477 47.8467C8.47027 48.3912 8.62576 49.1301 8.78125 50.0634L9.24773 51.9301C9.40323 52.5523 9.79196 52.8634 10.4139 52.8634ZM57.7617 19.7301C57.6062 19.419 57.3729 19.2245 57.0619 19.1467C56.751 19.069 56.44 19.1467 56.129 19.3801C55.818 19.6134 55.6625 19.8856 55.6625 20.1967C55.6625 20.5079 55.7402 20.819 55.8957 21.1301C58.2281 24.2412 60.0163 27.2356 61.2603 30.1134C62.5042 32.9912 63.0484 35.519 62.8929 37.6967C62.8929 39.4079 62.582 40.6523 61.96 41.4301C61.649 42.0523 60.8715 42.5967 59.6276 43.0634C58.3836 43.5301 57.4118 44.0745 56.7121 44.6967C56.0124 45.319 55.4293 46.1745 54.9628 47.2634C54.8073 47.8856 54.6518 48.7412 54.4963 49.8301C54.3408 50.919 54.0298 51.7356 53.5633 52.2801C53.0969 52.8245 52.0084 53.1745 50.298 53.3301L44.0005 51.2301C42.4456 50.6079 41.2794 49.5967 40.5019 48.1967C40.3464 47.8856 40.1132 47.6912 39.8022 47.6134C39.4912 47.5356 39.1802 47.5745 38.8692 47.7301C38.5582 47.8856 38.3639 48.119 38.2861 48.4301C38.2084 48.7412 38.2472 49.0523 38.4027 49.3634L38.8692 50.0634C37.3143 51.9301 35.2929 53.019 32.805 53.3301C31.561 53.1745 30.3171 52.7856 29.0731 52.1634C28.9176 52.0079 28.6844 51.969 28.3734 52.0467C28.0624 52.1245 27.8292 52.319 27.6737 52.6301C27.5182 52.9412 27.4793 53.2523 27.5571 53.5634C27.6348 53.8745 27.8292 54.1079 28.1402 54.2634C29.5396 55.0412 31.0168 55.5079 32.5717 55.6634H33.0382C35.9926 55.3523 38.4805 54.0301 40.5019 51.6967C41.2794 52.4745 42.2123 53.019 43.3008 53.3301L49.5983 55.4301C50.9977 56.0523 52.0862 56.9467 52.8636 58.1134C53.6411 59.2801 54.0298 60.5634 54.0298 61.9634V69.6634C54.0298 69.9745 54.1464 70.2467 54.3797 70.4801C54.6129 70.7134 54.885 70.8301 55.196 70.8301C55.507 70.8301 55.7791 70.7134 56.0124 70.4801C56.2456 70.2467 56.3622 69.9745 56.3622 69.6634V61.9634C56.3622 59.1634 55.3515 56.8301 53.3301 54.9634C54.2631 54.6523 55.0017 54.1856 55.5459 53.5634C56.0901 52.9412 56.5177 51.7745 56.8287 50.0634C56.9842 49.2856 57.1397 48.5856 57.2952 47.9634C57.4507 47.3412 57.7617 46.8356 58.2281 46.4467C58.6946 46.0579 59.4721 45.6301 60.5605 45.1634C61.96 44.5412 62.9707 43.8412 63.5927 43.0634C64.6811 41.9745 65.2642 40.2634 65.342 37.9301C65.4197 35.5967 64.9921 33.1856 64.0591 30.6967C62.8152 27.2745 60.716 23.619 57.7617 19.7301ZM32.805 61.4967C30.4726 59.319 27.9069 58.3856 25.1081 58.6967C22.3092 59.0079 19.9768 60.2523 18.1109 62.4301C16.2449 64.6079 15.4675 67.0967 15.7785 69.8967C15.7785 70.2079 15.9339 70.4412 16.2449 70.5967C16.5559 70.7523 16.8669 70.8301 17.1779 70.8301C17.4889 70.8301 17.7221 70.6745 17.8776 70.3634C18.0331 70.0523 18.1109 69.7412 18.1109 69.4301C17.7999 67.2523 18.4218 65.3467 19.9768 63.7134C21.5317 62.0801 23.4754 61.2245 25.8078 61.1467C28.1402 61.069 30.1616 61.9634 31.872 63.8301C32.183 64.1412 32.494 64.2967 32.805 64.2967C33.116 64.2967 33.427 64.1412 33.7379 63.8301C35.4484 61.9634 37.4698 61.069 39.8022 61.1467C42.1346 61.2245 44.0782 62.0801 45.6332 63.7134C47.1881 65.3467 47.8101 67.2523 47.4991 69.4301C47.4991 69.7412 47.5768 70.0523 47.7323 70.3634C47.8878 70.6745 48.1211 70.8301 48.4321 70.8301C48.743 70.8301 49.054 70.7523 49.365 70.5967C49.676 70.4412 49.8315 70.2079 49.8315 69.8967C50.1425 67.0967 49.365 64.6079 47.4991 62.4301C45.6332 60.2523 43.3008 59.0079 40.5019 58.6967C37.703 58.3856 35.1374 59.319 32.805 61.4967Z" fill="#9D0F0F"/>
</g>
<defs>
<clipPath id="clip0_8_141">
<rect width="70" height="70" fill="white" transform="matrix(1 0 0 -1 0.359375 70.8301)"/>
</clipPath>
</defs>
</svg>
