<svg width="242" height="306" viewBox="0 0 242 306" fill="none" xmlns="http://www.w3.org/2000/svg">
<path d="M-96.6094 100.895L36.934 -32.6479C33.2352 -31.9159 29.6134 -31.0298 25.9916 -30.0665L-94.0279 89.953C-95.0297 93.5747 -95.8773 97.235 -96.6094 100.895Z" fill="#FF477E"/>
<path d="M-100 134.84C-100 135.187 -100 135.572 -100 135.919L71.9188 -36C71.572 -36 71.1867 -36 70.84 -36C68.3741 -36 65.8696 -35.9229 63.4422 -35.8458L-99.8459 127.442C-99.923 129.908 -100 132.374 -100 134.84Z" fill="#FF477E"/>
<path d="M-97.3414 164.97L100.97 -33.3412C98.5814 -33.765 96.1539 -34.1503 93.7651 -34.4585L-98.4587 157.765C-98.1505 160.154 -97.7652 162.582 -97.3414 164.97Z" fill="#FF477E"/>
<path d="M-90.8685 190.13L126.13 -26.8685C124.049 -27.6005 121.93 -28.2556 119.811 -28.8721L-92.8721 183.811C-92.2556 185.93 -91.562 188.049 -90.8685 190.13Z" fill="#FF477E"/>
<path d="M-81.4288 212.362L148.4 -17.4671C146.551 -18.4303 144.662 -19.3165 142.775 -20.2026L-84.1644 206.736C-83.2782 208.663 -82.392 210.512 -81.4288 212.362Z" fill="#FF477E"/>
<path d="M-69.5615 232.166L168.204 -5.6001C166.547 -6.75598 164.891 -7.87332 163.195 -8.95215L-72.9136 227.157C-71.8347 228.891 -70.7174 230.548 -69.5615 232.166Z" fill="#FF477E"/>
<path d="M-55.5368 249.812L185.812 8.4633C184.348 7.15329 182.884 5.84325 181.381 4.57178L-59.4282 245.382C-58.1567 246.884 -56.8853 248.348 -55.5368 249.812Z" fill="#FF477E"/>
<path d="M-39.4314 265.34L201.34 24.5686C200.068 23.0659 198.758 21.5632 197.448 20.0991L-43.9008 261.448C-42.3981 262.797 -40.934 264.068 -39.4314 265.34Z" fill="#FF477E"/>
<path d="M-21.207 278.825L214.825 42.793C213.746 41.0977 212.629 39.4409 211.473 37.7842L-26.2158 275.473C-24.5591 276.59 -22.9023 277.708 -21.207 278.825Z" fill="#FF477E"/>
<path d="M-0.747774 289.998L225.999 63.2522C225.112 61.3643 224.226 59.4764 223.263 57.627L-6.41162 287.302C-4.52367 288.226 -2.63572 289.151 -0.747774 289.998Z" fill="#FF477E"/>
<path d="M22.2541 298.668L234.706 86.2158C234.089 84.0966 233.396 81.9776 232.702 79.897L15.9352 296.664C17.9773 297.396 20.0964 298.051 22.2541 298.668Z" fill="#FF477E"/>
<path d="M48.3387 304.216L240.216 112.339C239.908 109.911 239.522 107.484 239.098 105.095L41.0952 303.098C43.5225 303.561 45.9114 303.907 48.3387 304.216Z" fill="#FF477E"/>
<path d="M70.8397 305.719C73.4983 305.719 76.1183 305.642 78.6998 305.526L241.487 142.739C241.603 140.119 241.68 137.499 241.68 134.879C241.68 134.648 241.68 134.455 241.68 134.224L70.1847 305.719C70.4159 305.719 70.6471 305.719 70.8397 305.719Z" fill="#FF477E"/>
<path d="M116.344 299.592L235.593 180.343C236.594 176.722 237.48 173.061 238.251 169.362L105.363 302.251C109.062 301.48 112.722 300.556 116.344 299.592Z" fill="#FF477E"/>
<path d="M218.678 220.568L156.53 282.717C182.267 267.729 203.728 246.268 218.678 220.568Z" fill="#FF477E"/>
</svg>
