<svg width="60" height="50" viewBox="0 0 60 50" fill="none" xmlns="http://www.w3.org/2000/svg">
<path d="M57.8785 17.1275C61.4674 14.1369 59.8309 10.6439 57.8785 8.94521L49.2652 1.7678C45.6476 -1.22278 41.4845 0.140925 39.446 1.7678L34.5651 5.85893H27.1289C21.6738 5.85893 18.5155 8.2514 16.9077 11.0027L4.15997 21.6253V31.1952L2.12148 32.8699C-1.46742 35.8844 0.169119 39.3535 2.12148 41.0522L10.7348 48.2296C12.2852 49.5215 13.9505 50 15.5296 50C17.5681 50 19.4343 49.1626 20.554 48.2296L28.306 41.746H38.6133C43.4942 41.746 45.9634 39.21 46.8534 36.7218C50.0978 36.004 51.8779 33.9465 52.5957 31.9368C57.0459 30.9799 58.7112 27.4629 58.7112 24.9987V17.8213H57.0172L57.8785 17.1275ZM52.9689 24.9987C52.9689 26.0753 52.4234 27.3912 50.0978 27.3912H47.2267V29.7836C47.2267 30.8602 46.6812 32.1761 44.3556 32.1761H41.4845V34.5686C41.4845 35.6452 40.9389 36.961 38.6133 36.961H25.9517L16.5345 44.8083C15.6444 45.5022 15.1276 45.0954 14.8118 44.8323L6.22717 37.7027C5.39455 36.961 5.88264 36.5304 6.19846 36.2672L9.9022 33.157V23.5871L15.6444 18.8022V22.6062C15.6444 25.5011 17.9413 29.7836 24.2578 29.7836C30.5742 29.7836 32.8711 25.5011 32.8711 22.6062H52.9689V24.9987ZM53.8015 13.7302L48.9207 17.8213H27.1289V22.6062C27.1289 23.6828 26.5834 24.9987 24.2578 24.9987C21.9322 24.9987 21.3867 23.6828 21.3867 22.6062V15.4288C21.3867 14.3283 21.8747 10.6439 27.1289 10.6439H36.9194L43.4655 5.18904C44.3556 4.49522 44.8724 4.90194 45.1882 5.16511L53.7728 12.2947C54.6055 13.0363 54.1174 13.467 53.8015 13.7302Z" fill="#F8F8F8"/>
</svg>
