<svg width="43" height="42" viewBox="0 0 43 42" fill="none" xmlns="http://www.w3.org/2000/svg">
<path d="M33.4715 3.5C33.0071 3.5 32.5618 3.68437 32.2334 4.01256C31.9051 4.34075 31.7206 4.78587 31.7206 5.25V14.805L29.9697 15.9775V5.25C29.9697 4.78587 29.7852 4.34075 29.4569 4.01256C29.1285 3.68437 28.6831 3.5 28.2188 3.5C27.7544 3.5 27.3091 3.68437 26.9807 4.01256C26.6523 4.34075 26.4679 4.78587 26.4679 5.25V15.9775L24.717 14.805V5.25C24.717 4.78587 24.5325 4.34075 24.2041 4.01256C23.8758 3.68437 23.4304 3.5 22.966 3.5C22.5017 3.5 22.0563 3.68437 21.728 4.01256C21.3996 4.34075 21.2151 4.78587 21.2151 5.25V15.75C21.2166 16.0382 21.2893 16.3216 21.4268 16.575C21.5642 16.8284 21.7622 17.044 22.003 17.2025L26.4679 20.195V36.75C26.4679 37.2141 26.6523 37.6592 26.9807 37.9874C27.3091 38.3156 27.7544 38.5 28.2188 38.5C28.6831 38.5 29.1285 38.3156 29.4569 37.9874C29.7852 37.6592 29.9697 37.2141 29.9697 36.75V20.195L34.4345 17.2025C34.6754 17.044 34.8733 16.8284 35.0108 16.575C35.1482 16.3216 35.2209 16.0382 35.2224 15.75V5.25C35.2224 4.78587 35.038 4.34075 34.7096 4.01256C34.3812 3.68437 33.9359 3.5 33.4715 3.5ZM15.9624 3.5C13.6405 3.5 11.4138 4.42187 9.77199 6.06282C8.13019 7.70376 7.20784 9.92936 7.20784 12.25V22.75C7.20784 23.2141 7.39231 23.6592 7.72067 23.9874C8.04903 24.3156 8.49438 24.5 8.95875 24.5H14.2115V36.75C14.2115 37.2141 14.396 37.6592 14.7243 37.9874C15.0527 38.3156 15.498 38.5 15.9624 38.5C16.4268 38.5 16.8721 38.3156 17.2005 37.9874C17.5288 37.6592 17.7133 37.2141 17.7133 36.75V5.25C17.7133 4.78587 17.5288 4.34075 17.2005 4.01256C16.8721 3.68437 16.4268 3.5 15.9624 3.5ZM14.2115 21H10.7097V12.25C10.7091 11.1639 11.0456 10.1043 11.6728 9.21728C12.2999 8.33029 13.1869 7.65955 14.2115 7.2975V21Z" fill="#B40101"/>
</svg>
