<svg width="60" height="50" viewBox="0 0 60 50" fill="none" xmlns="http://www.w3.org/2000/svg">
<g clip-path="url(#clip0_388_47)">
<path d="M30 2.77783C24.7258 2.77783 19.5701 4.08114 15.1848 6.52295C10.7995 8.96476 7.38154 12.4354 5.3632 16.496C3.34487 20.5566 2.81678 25.0247 3.84572 29.3354C4.87466 33.6461 7.41441 37.6057 11.1438 40.7135C14.8732 43.8214 19.6248 45.9378 24.7976 46.7953C29.9704 47.6527 35.3322 47.2127 40.2049 45.5307C45.0776 43.8488 49.2423 41.0005 52.1725 37.3461C55.1027 33.6916 56.6667 29.3952 56.6667 25.0001C56.6667 19.1064 53.8571 13.454 48.8562 9.28657C43.8552 5.1191 37.0724 2.77783 30 2.77783ZM30 44.4445C25.3851 44.4445 20.8738 43.3041 17.0367 41.1675C13.1995 39.0309 10.2088 35.9941 8.4428 32.4411C6.67676 28.8881 6.21468 24.9785 7.115 21.2066C8.01532 17.4348 10.2376 13.9701 13.5008 11.2508C16.7641 8.5314 20.9217 6.6795 25.4479 5.92923C29.9741 5.17896 34.6657 5.56403 38.9293 7.03573C43.1929 8.50743 46.8371 10.9997 49.401 14.1973C51.9649 17.3949 53.3333 21.1543 53.3333 25.0001C53.3333 30.157 50.875 35.1028 46.4992 38.7494C42.1233 42.3959 36.1884 44.4445 30 44.4445Z" fill="#F8F8F8"/>
<path d="M18.15 22.0695C19.9909 22.0695 21.4833 20.8258 21.4833 19.2917C21.4833 17.7576 19.9909 16.5139 18.15 16.5139C16.309 16.5139 14.8167 17.7576 14.8167 19.2917C14.8167 20.8258 16.309 22.0695 18.15 22.0695Z" fill="#F8F8F8"/>
<path d="M41.75 22.0695C43.591 22.0695 45.0834 20.8258 45.0834 19.2917C45.0834 17.7576 43.591 16.5139 41.75 16.5139C39.9091 16.5139 38.4167 17.7576 38.4167 19.2917C38.4167 20.8258 39.9091 22.0695 41.75 22.0695Z" fill="#F8F8F8"/>
<path d="M30.2167 39.1805C33.2742 39.1838 36.2542 38.3789 38.728 36.8815C41.2017 35.384 43.0418 33.2713 43.9833 30.8472H16.45C17.3916 33.2713 19.2316 35.384 21.7054 36.8815C24.1792 38.3789 27.1592 39.1838 30.2167 39.1805Z" fill="#F8F8F8"/>
</g>
<defs>
<clipPath id="clip0_388_47">
<rect width="60" height="50" fill="white"/>
</clipPath>
</defs>
</svg>
