<svg width="77" height="60" viewBox="0 0 77 60" fill="none" xmlns="http://www.w3.org/2000/svg">
<rect width="76.9483" height="60" rx="30" fill="#B40101"/>
<g clip-path="url(#clip0_589_1409)">
<path d="M37.6387 39.4267C37.4876 39.2756 37.3364 39.2189 37.1853 39.2567C37.0342 39.2944 36.9209 39.3511 36.8453 39.4267C34.6542 42.0711 31.8964 43.8089 28.572 44.64C27.6653 44.9422 26.7209 44.9422 25.7387 44.64C23.5476 44.1111 21.6209 43.1667 19.9587 41.8067C18.4476 40.5978 17.2009 39.1244 16.2187 37.3867C15.312 35.8756 14.7076 34.3267 14.4053 32.74C14.0276 30.7 14.0842 28.9433 14.5753 27.47C15.0664 25.9967 16.0109 24.8633 17.4087 24.07C18.8064 23.2767 20.3931 23.0122 22.1687 23.2767C23.9442 23.5411 25.512 24.24 26.872 25.3733C26.9476 25.4489 27.0609 25.4867 27.212 25.4867C27.3631 25.4867 27.4764 25.4489 27.552 25.3733C28.912 24.1644 30.4987 23.4467 32.312 23.22C34.1253 22.9933 35.712 23.2956 37.072 24.1267C37.2231 24.2022 37.3742 24.2211 37.5253 24.1833C37.6764 24.1456 37.7898 24.0511 37.8653 23.9C37.9409 23.7489 37.9598 23.5978 37.922 23.4467C37.8842 23.2956 37.7898 23.1822 37.6387 23.1067L37.2987 22.88V22.0867C37.2987 20.2733 36.8453 18.5922 35.9387 17.0433C35.032 15.4944 33.8042 14.2667 32.2553 13.36C30.7064 12.4533 29.0253 12 27.212 12C24.9453 12 22.9053 12.6989 21.092 14.0967C19.2787 15.4944 18.0698 17.2889 17.4653 19.48C17.4653 19.6311 17.5031 19.7822 17.5787 19.9333C17.6542 20.0844 17.7676 20.1789 17.9187 20.2167C18.0698 20.2544 18.202 20.2356 18.3153 20.16C18.4287 20.0844 18.5231 19.9711 18.5987 19.82C19.1276 17.8556 20.1853 16.25 21.772 15.0033C23.3587 13.7567 25.172 13.1333 27.212 13.1333C28.7987 13.1333 30.2909 13.53 31.6887 14.3233C33.0864 15.1167 34.182 16.1933 34.9753 17.5533C35.7687 18.9133 36.1653 20.4244 36.1653 22.0867V22.4267C34.7298 21.9733 33.1998 21.8978 31.5753 22.2C29.9509 22.5022 28.4964 23.1822 27.212 24.24C25.6253 22.9556 23.812 22.2378 21.772 22.0867V21.86C21.772 20.4244 22.3009 19.1589 23.3587 18.0633C24.4164 16.9678 25.7009 16.42 27.212 16.42C28.2698 16.42 29.252 16.7222 30.1587 17.3267C31.0653 17.9311 31.7453 18.7244 32.1987 19.7067C32.2742 19.8578 32.3876 19.9711 32.5387 20.0467C32.6898 20.1222 32.8409 20.1222 32.992 20.0467C33.1431 19.9711 33.2376 19.8578 33.2753 19.7067C33.3131 19.5556 33.2942 19.4044 33.2187 19.2533C32.6898 18.0444 31.8776 17.0811 30.782 16.3633C29.6864 15.6456 28.5342 15.2867 27.3253 15.2867C26.1164 15.2867 25.002 15.5889 23.982 16.1933C22.962 16.7978 22.1498 17.61 21.5453 18.63C20.9409 19.65 20.6387 20.7644 20.6387 21.9733C19.052 22.0489 17.6353 22.5022 16.3887 23.3333C15.142 24.1644 14.2164 25.2978 13.612 26.7333C12.932 28.4711 12.8187 30.5489 13.272 32.9667C13.8764 35.8378 15.1609 38.4067 17.1253 40.6733C19.392 43.2422 22.1876 44.9422 25.512 45.7733C26.6453 46.0756 27.7787 46.0756 28.912 45.7733C32.4631 44.8667 35.372 43.0156 37.6387 40.22C37.7898 40.0689 37.8464 39.9178 37.8087 39.7667C37.7709 39.6156 37.7142 39.5022 37.6387 39.4267ZM30.272 34.6667C30.4231 34.7422 30.5742 34.7422 30.7253 34.6667C30.8764 34.5911 30.9898 34.4778 31.0653 34.3267C31.292 33.4956 31.2731 32.6833 31.0087 31.89C30.7442 31.0967 30.272 30.4356 29.592 29.9067C28.912 29.3778 28.1187 29.1133 27.212 29.1133C26.0787 29.1133 25.1342 29.51 24.3787 30.3033C23.6231 31.0967 23.2453 32.06 23.2453 33.1933C23.2453 33.8733 23.4153 34.5156 23.7553 35.12C24.0953 35.7244 24.5676 36.2156 25.172 36.5933V37.5C25.172 38.0289 25.3798 38.5011 25.7953 38.9167C26.2109 39.3322 26.702 39.54 27.2687 39.54C27.8353 39.54 28.3076 39.3322 28.6853 38.9167C29.0631 38.5011 29.252 38.0289 29.252 37.5V36.2533C29.252 36.1022 29.1953 35.97 29.082 35.8567C28.9687 35.7433 28.8364 35.6867 28.6853 35.6867C28.5342 35.6867 28.402 35.7433 28.2887 35.8567C28.1753 35.97 28.1187 36.1022 28.1187 36.2533V37.5C28.1187 37.7267 28.0242 37.9344 27.8353 38.1233C27.6464 38.3122 27.4387 38.4067 27.212 38.4067C26.9853 38.4067 26.7776 38.3122 26.5887 38.1233C26.3998 37.9344 26.3053 37.7267 26.3053 37.5V36.2533C26.3053 36.0267 26.192 35.8378 25.9653 35.6867C25.512 35.46 25.1342 35.12 24.832 34.6667C24.5298 34.2133 24.3787 33.7222 24.3787 33.1933C24.3787 32.3622 24.662 31.6633 25.2287 31.0967C25.7953 30.53 26.4564 30.2467 27.212 30.2467C28.1942 30.2467 28.9687 30.6433 29.5353 31.4367C30.102 32.23 30.2342 33.08 29.932 33.9867C29.932 34.1378 29.9698 34.2889 30.0453 34.44C30.1209 34.5911 30.1964 34.6667 30.272 34.6667ZM45.232 26.0533C44.0231 24.92 42.6064 24.3722 40.982 24.41C39.3576 24.4478 37.9787 25.0333 36.8453 26.1667C35.8631 27.1489 35.2964 28.2822 35.1453 29.5667C34.9942 30.8511 35.2209 32.0789 35.8253 33.25C36.4298 34.4211 37.3742 35.2711 38.6587 35.8V36.7067L39.112 37.84C39.1876 37.9911 39.1876 38.1422 39.112 38.2933L38.8853 38.6333C38.6587 39.1622 38.6587 39.6533 38.8853 40.1067L39.112 40.56C39.112 40.7111 39.112 40.8622 39.112 41.0133L38.6587 42.0333C38.6587 42.1089 38.6587 42.2978 38.6587 42.6C38.6587 43.1289 38.8476 43.5444 39.2253 43.8467L40.0187 44.5267C40.3209 44.8289 40.6798 44.98 41.0953 44.98C41.5109 44.98 41.8698 44.8289 42.172 44.5267L42.9653 43.8467C43.3431 43.5444 43.532 43.1289 43.532 42.6V38.52C43.532 38.3689 43.4753 38.2367 43.362 38.1233C43.2487 38.01 43.1164 37.9533 42.9653 37.9533C42.8142 37.9533 42.682 38.01 42.5687 38.1233C42.4553 38.2367 42.3987 38.3689 42.3987 38.52V42.6C42.3987 42.7511 42.3609 42.9022 42.2853 43.0533L41.492 43.7333C41.3409 43.8089 41.2087 43.8467 41.0953 43.8467C40.982 43.8467 40.8498 43.8089 40.6987 43.7333L39.9053 43.0533C39.8298 42.9022 39.792 42.7511 39.792 42.6V42.4867C39.792 42.3356 39.8298 42.1089 39.9053 41.8067L40.132 41.4667C40.2831 41.0133 40.2831 40.56 40.132 40.1067L39.9053 39.6533C39.8298 39.5022 39.8298 39.3511 39.9053 39.2L40.132 38.86C40.3587 38.3311 40.3587 37.84 40.132 37.3867L40.0187 36.9333C39.8676 36.5556 39.792 36.3289 39.792 36.2533V35.46C39.792 35.2333 39.6409 35.0444 39.3387 34.8933C38.3564 34.5156 37.582 33.8922 37.0153 33.0233C36.4487 32.1544 36.2031 31.2289 36.2787 30.2467C36.2787 28.9622 36.732 27.8856 37.6387 27.0167C38.5453 26.1478 39.6598 25.6756 40.982 25.6C42.3042 25.5244 43.4564 25.9589 44.4387 26.9033C45.4209 27.8478 45.912 29 45.912 30.36C45.912 31.4178 45.6287 32.3433 45.062 33.1367C44.4953 33.93 43.7587 34.5156 42.852 34.8933C42.7009 34.9689 42.5876 35.0822 42.512 35.2333C42.4364 35.3844 42.4176 35.5356 42.4553 35.6867C42.4931 35.8378 42.5876 35.9322 42.7387 35.97C42.8898 36.0078 43.0409 36.0267 43.192 36.0267C44.552 35.4978 45.572 34.6289 46.252 33.42C46.932 32.2111 47.1776 30.9267 46.9887 29.5667C46.7998 28.2067 46.2142 27.0356 45.232 26.0533ZM41.0387 31.8333C40.6609 31.8333 40.3398 31.7011 40.0753 31.4367C39.8109 31.1722 39.6787 30.8133 39.6787 30.36C39.6787 30.2089 39.622 30.0767 39.5087 29.9633C39.3953 29.85 39.2631 29.7933 39.112 29.7933C38.9609 29.7933 38.8287 29.85 38.7153 29.9633C38.602 30.0767 38.5453 30.2089 38.5453 30.36C38.5453 31.1156 38.7909 31.7389 39.282 32.23C39.7731 32.7211 40.3776 32.9667 41.0953 32.9667C41.8131 32.9667 42.4176 32.7211 42.9087 32.23C43.3998 31.7389 43.6453 31.1344 43.6453 30.4167C43.6453 29.6989 43.3998 29.0944 42.9087 28.6033C42.4176 28.1122 41.7942 27.8667 41.0387 27.8667C40.8876 27.8667 40.7553 27.9233 40.642 28.0367C40.5287 28.15 40.472 28.2822 40.472 28.4333C40.472 28.5844 40.5287 28.7167 40.642 28.83C40.7553 28.9433 40.8876 29 41.0387 29C41.492 29 41.8509 29.1322 42.1153 29.3967C42.3798 29.6611 42.512 30.0011 42.512 30.4167C42.512 30.8322 42.3798 31.1722 42.1153 31.4367C41.8509 31.7011 41.492 31.8333 41.0387 31.8333Z" fill="white"/>
</g>
<defs>
<clipPath id="clip0_589_1409">
<rect width="34" height="34" fill="white" transform="matrix(1 0 0 -1 13 46)"/>
</clipPath>
</defs>
</svg>
