<svg width="60" height="50" viewBox="0 0 60 50" fill="none" xmlns="http://www.w3.org/2000/svg">
<g clip-path="url(#clip0_388_66)">
<path d="M25 11.1111H40V13.8889H25V11.1111Z" fill="#F8F8F8"/>
<path d="M25 16.6667H40V19.4445H25V16.6667Z" fill="#F8F8F8"/>
<path d="M25 22.2222H40V24.9999H25V22.2222Z" fill="#F8F8F8"/>
<path d="M25 27.7778H40V30.5556H25V27.7778Z" fill="#F8F8F8"/>
<path d="M25 33.3333H40V36.111H25V33.3333Z" fill="#F8F8F8"/>
<path d="M18.3334 11.1111H21.6667V13.8889H18.3334V11.1111Z" fill="#F8F8F8"/>
<path d="M18.3334 16.6667H21.6667V19.4445H18.3334V16.6667Z" fill="#F8F8F8"/>
<path d="M18.3334 22.2222H21.6667V24.9999H18.3334V22.2222Z" fill="#F8F8F8"/>
<path d="M18.3334 27.7778H21.6667V30.5556H18.3334V27.7778Z" fill="#F8F8F8"/>
<path d="M18.3334 33.3333H21.6667V36.111H18.3334V33.3333Z" fill="#F8F8F8"/>
<path d="M46.6667 2.77783H13.3333C12.4493 2.77783 11.6014 3.07049 10.9763 3.59142C10.3512 4.11236 10 4.8189 10 5.55561V44.4445C10 45.1812 10.3512 45.8878 10.9763 46.4087C11.6014 46.9296 12.4493 47.2223 13.3333 47.2223H46.6667C47.5507 47.2223 48.3986 46.9296 49.0237 46.4087C49.6488 45.8878 50 45.1812 50 44.4445V5.55561C50 4.8189 49.6488 4.11236 49.0237 3.59142C48.3986 3.07049 47.5507 2.77783 46.6667 2.77783ZM46.6667 44.4445H13.3333V5.55561H46.6667V44.4445Z" fill="#F8F8F8"/>
</g>
<defs>
<clipPath id="clip0_388_66">
<rect width="60" height="50" fill="white"/>
</clipPath>
</defs>
</svg>
