<svg width="60" height="50" viewBox="0 0 60 50" fill="none" xmlns="http://www.w3.org/2000/svg">
<path d="M55 25.0001V41.6667C55 42.7718 54.4732 43.8316 53.5355 44.613C52.5978 45.3944 51.3261 45.8334 50 45.8334H10C8.67392 45.8334 7.40215 45.3944 6.46447 44.613C5.52678 43.8316 5 42.7718 5 41.6667V25.0001C4.33696 25.0001 3.70107 24.7806 3.23223 24.3899C2.76339 23.9992 2.5 23.4693 2.5 22.9167V16.6667C2.5 15.5617 3.02678 14.5019 3.96447 13.7205C4.90215 12.9391 6.17392 12.5001 7.5 12.5001H15.425C15.1425 11.8308 14.9987 11.1263 15 10.4167C15 8.75914 15.7902 7.16943 17.1967 5.99733C18.6032 4.82523 20.5109 4.16675 22.5 4.16675C25 4.16675 27.2 5.20841 28.575 6.75008V6.72925L30 8.33341L31.425 6.72925V6.75008C32.8 5.20841 35 4.16675 37.5 4.16675C39.4891 4.16675 41.3968 4.82523 42.8033 5.99733C44.2098 7.16943 45 8.75914 45 10.4167C45.0013 11.1263 44.8575 11.8308 44.575 12.5001H52.5C53.8261 12.5001 55.0978 12.9391 56.0355 13.7205C56.9732 14.5019 57.5 15.5617 57.5 16.6667V22.9167C57.5 23.4693 57.2366 23.9992 56.7678 24.3899C56.2989 24.7806 55.663 25.0001 55 25.0001ZM10 41.6667H27.5V25.0001H10V41.6667ZM50 41.6667V25.0001H32.5V41.6667H50ZM22.5 8.33341C21.837 8.33341 21.2011 8.55291 20.7322 8.94361C20.2634 9.33431 20 9.86421 20 10.4167C20 10.9693 20.2634 11.4992 20.7322 11.8899C21.2011 12.2806 21.837 12.5001 22.5 12.5001C23.163 12.5001 23.7989 12.2806 24.2678 11.8899C24.7366 11.4992 25 10.9693 25 10.4167C25 9.86421 24.7366 9.33431 24.2678 8.94361C23.7989 8.55291 23.163 8.33341 22.5 8.33341ZM37.5 8.33341C36.837 8.33341 36.2011 8.55291 35.7322 8.94361C35.2634 9.33431 35 9.86421 35 10.4167C35 10.9693 35.2634 11.4992 35.7322 11.8899C36.2011 12.2806 36.837 12.5001 37.5 12.5001C38.163 12.5001 38.7989 12.2806 39.2678 11.8899C39.7366 11.4992 40 10.9693 40 10.4167C40 9.86421 39.7366 9.33431 39.2678 8.94361C38.7989 8.55291 38.163 8.33341 37.5 8.33341ZM7.5 16.6667V20.8334H27.5V16.6667H7.5ZM32.5 16.6667V20.8334H52.5V16.6667H32.5Z" fill="#F8F8F8"/>
</svg>
