<svg width="71" height="71" viewBox="0 0 71 71" fill="none" xmlns="http://www.w3.org/2000/svg">
<g id="Icon" opacity="0.3" clip-path="url(#clip0_8_134)">
<path id="Vector" d="M63.1556 28.1301C62.9985 27.9745 62.7629 27.8967 62.4487 27.8967C62.1345 27.8967 61.8596 28.0523 61.624 28.3634C61.3884 28.6745 61.2705 28.9856 61.2705 29.2967C61.2705 29.6079 61.4276 29.8412 61.7418 29.9967C62.3702 30.4634 62.6058 31.0856 62.4487 31.8634V66.1634C62.4487 66.7856 62.2523 67.3301 61.8596 67.7967C61.4669 68.2634 60.9564 68.4967 60.328 68.4967H4.95459C4.16915 68.4967 3.58007 68.2634 3.18735 67.7967C2.79463 67.3301 2.59827 66.7856 2.59827 66.1634V36.5301L15.7936 47.2634C15.9507 47.419 16.2649 47.4967 16.7362 47.4967C17.2074 47.4967 17.5216 47.2634 17.6787 46.7967C17.8358 46.3301 17.6787 45.8634 17.2074 45.3967L2.59827 33.4967V31.8634C2.59827 31.0856 2.8339 30.4634 3.30517 29.9967C3.61934 29.8412 3.77643 29.6079 3.77643 29.2967C3.77643 28.9856 3.65861 28.6745 3.42298 28.3634C3.18735 28.0523 2.91245 27.8967 2.59827 27.8967C2.2841 27.8967 2.04846 27.9745 1.89138 28.1301C0.791763 29.0634 0.163412 30.3079 0.00632429 31.8634V66.1634C0.00632429 67.4079 0.477587 68.4967 1.42011 69.4301C2.36264 70.3634 3.46225 70.8301 4.71896 70.8301H60.328C61.5847 70.8301 62.6843 70.3634 63.6269 69.4301C64.5694 68.4967 65.0406 67.4079 65.0406 66.1634V31.8634C65.0406 30.3079 64.4123 29.0634 63.1556 28.1301ZM7.3109 32.0967C7.62508 32.0967 7.89998 31.9801 8.13561 31.7467C8.37125 31.5134 8.48906 31.2412 8.48906 30.9301V5.49674C8.48906 4.87452 8.72469 4.33008 9.19596 3.86341C9.66722 3.39674 10.217 3.16341 10.8454 3.16341H54.2016C54.8299 3.16341 55.3797 3.39674 55.851 3.86341C56.3223 4.33008 56.5579 4.87452 56.5579 5.49674V38.3967L44.3051 48.4301C44.6192 46.5634 44.5014 44.9301 43.9516 43.5301C43.4018 42.1301 42.4593 41.0412 41.124 40.2634C39.7888 39.4856 38.3357 39.1745 36.7649 39.3301C35.194 39.4856 33.7802 39.9523 32.5235 40.7301C31.2668 39.9523 29.853 39.4856 28.2821 39.3301C26.7112 39.1745 25.2582 39.4856 23.9229 40.2634C22.5877 41.0412 21.6452 42.1301 21.0954 43.5301C20.5455 44.9301 20.4277 46.5634 20.7419 48.4301L9.66722 56.8301C9.19596 57.1412 9.03887 57.569 9.19596 58.1134C9.35304 58.6579 9.62795 58.9301 10.0207 58.9301C10.4134 58.9301 10.7668 58.8523 11.081 58.6967L21.4488 50.9967C22.2342 53.019 23.4517 54.769 25.1011 56.2467C26.7505 57.7245 28.7534 58.7745 31.1097 59.3967C32.0522 59.5523 32.9947 59.5523 33.9373 59.3967C36.2936 58.7745 38.2965 57.7245 39.9459 56.2467C41.5953 54.769 42.8127 53.019 43.5982 50.9967L53.966 58.6967C54.2801 58.8523 54.6336 58.9301 55.0263 58.9301C55.419 58.9301 55.6939 58.6579 55.851 58.1134C56.0081 57.569 55.851 57.1412 55.3797 56.8301L46.1901 49.8301L58.6786 39.5634C58.8357 39.4079 58.9142 38.7079 58.9142 37.4634V5.49674C58.9142 4.2523 58.443 3.16341 57.5004 2.23008C56.5579 1.29675 55.4583 0.830078 54.2016 0.830078H10.8454C9.58868 0.830078 8.48906 1.29675 7.54654 2.23008C6.60401 3.16341 6.13275 4.2523 6.13275 5.49674V30.9301C6.13275 31.2412 6.25056 31.5134 6.48619 31.7467C6.72182 31.9801 6.99673 32.0967 7.3109 32.0967ZM33.466 57.0634C32.8377 57.219 32.2093 57.219 31.581 57.0634C29.2246 56.4412 27.261 55.1967 25.6902 53.3301C24.4335 51.7745 23.6088 49.9856 23.216 47.9634C22.8233 45.9412 23.0982 44.3856 24.0407 43.2967C24.9833 42.2079 26.24 41.6634 27.8109 41.6634C29.3817 41.6634 30.717 42.2079 31.8166 43.2967C31.9737 43.4523 32.2093 43.5301 32.5235 43.5301C32.8377 43.5301 33.0733 43.4523 33.2304 43.2967C34.33 42.2079 35.6652 41.6634 37.2361 41.6634C38.807 41.6634 40.0637 42.2079 41.0062 43.2967C41.9487 44.3856 42.2237 45.9412 41.8309 47.9634C41.4382 49.9856 40.6135 51.7745 39.3568 53.3301C37.7859 55.1967 35.8223 56.4412 33.466 57.0634ZM16.5005 34.8967C16.1864 35.0523 15.558 34.9745 14.6155 34.6634C14.3013 34.5079 13.9871 34.469 13.673 34.5467C13.3588 34.6245 13.1231 34.819 12.9661 35.1301C12.809 35.4412 12.809 35.7523 12.9661 36.0634C13.1231 36.3745 13.3588 36.6079 13.673 36.7634C15.558 37.5412 17.0111 37.5023 18.0321 36.6467C19.0532 35.7912 19.4067 34.1967 19.0925 31.8634C18.9354 30.1523 18.307 27.119 17.2074 22.7634C16.2649 18.8745 15.7151 16.0745 15.558 14.3634C15.2438 12.0301 15.3224 10.6301 15.7936 10.1634C16.2649 9.69674 16.9718 9.61897 17.9143 9.93008C18.2285 9.93008 18.5427 9.8523 18.8569 9.69674C19.171 9.54119 19.3674 9.30786 19.4459 8.99675C19.5245 8.68563 19.4852 8.41341 19.3281 8.18008C19.171 7.94674 18.9354 7.7523 18.6212 7.59674C16.7362 7.13008 15.2831 7.36341 14.262 8.29675C13.241 9.23008 12.8875 11.2523 13.2017 14.3634C13.3588 16.0745 13.9871 19.0301 15.0867 23.2301C16.0293 26.9634 16.5791 29.6079 16.7362 31.1634C17.0503 33.1856 16.9718 34.4301 16.5005 34.8967ZM50.6671 8.29675C49.7246 7.36341 48.3108 7.13008 46.4257 7.59674C46.1116 7.7523 45.8759 7.94674 45.7189 8.18008C45.5618 8.41341 45.5225 8.68563 45.601 8.99675C45.6796 9.30786 45.8759 9.54119 46.1901 9.69674C46.5043 9.8523 46.8185 9.93008 47.1326 9.93008C48.0752 9.61897 48.7821 9.69674 49.2533 10.1634C49.7246 10.6301 49.8031 12.0301 49.489 14.3634C49.3319 16.0745 48.7821 18.8745 47.8395 22.7634C46.7399 27.119 46.1116 30.1523 45.9545 31.8634C45.6403 34.1967 45.9938 35.7912 47.0148 36.6467C48.0359 37.5023 49.489 37.5412 51.374 36.7634C51.6882 36.6079 51.9238 36.3745 52.0809 36.0634C52.238 35.7523 52.238 35.4412 52.0809 35.1301C51.9238 34.819 51.6882 34.6245 51.374 34.5467C51.0598 34.469 50.7457 34.5079 50.4315 34.6634C49.489 34.9745 48.8213 34.9745 48.4286 34.6634C48.0359 34.3523 47.9966 33.1856 48.3108 31.1634C48.4679 29.6079 49.0177 26.9634 49.9602 23.2301C51.0598 19.0301 51.6882 16.0745 51.8453 14.3634C52.1595 11.2523 51.7667 9.23008 50.6671 8.29675ZM22.1557 14.5967H42.8913C43.2054 14.5967 43.4804 14.4801 43.716 14.2467C43.9516 14.0134 44.0694 13.7412 44.0694 13.4301C44.0694 13.119 43.9516 12.8467 43.716 12.6134C43.4804 12.3801 43.2054 12.2634 42.8913 12.2634H22.1557C21.8415 12.2634 21.5666 12.3801 21.331 12.6134C21.0954 12.8467 20.9775 13.119 20.9775 13.4301C20.9775 13.7412 21.0954 14.0134 21.331 14.2467C21.5666 14.4801 21.8415 14.5967 22.1557 14.5967ZM22.1557 22.7634H42.8913C43.2054 22.7634 43.4804 22.6467 43.716 22.4134C43.9516 22.1801 44.0694 21.9079 44.0694 21.5967C44.0694 21.2856 43.9516 21.0134 43.716 20.7801C43.4804 20.5467 43.2054 20.4301 42.8913 20.4301H22.1557C21.8415 20.4301 21.5666 20.5467 21.331 20.7801C21.0954 21.0134 20.9775 21.2856 20.9775 21.5967C20.9775 21.9079 21.0954 22.1801 21.331 22.4134C21.5666 22.6467 21.8415 22.7634 22.1557 22.7634ZM25.2189 28.5967C24.9047 28.5967 24.6298 28.7134 24.3942 28.9467C24.1586 29.1801 24.0407 29.4523 24.0407 29.7634C24.0407 30.0745 24.1586 30.3467 24.3942 30.5801C24.6298 30.8134 24.9047 30.9301 25.2189 30.9301H39.8281C40.1422 30.9301 40.4171 30.8134 40.6528 30.5801C40.8884 30.3467 41.0062 30.0745 41.0062 29.7634C41.0062 29.4523 40.8884 29.1801 40.6528 28.9467C40.4171 28.7134 40.1422 28.5967 39.8281 28.5967H25.2189Z" fill="#9D0F0F"/>
</g>
<defs>
<clipPath id="clip0_8_134">
<rect width="70.7178" height="70" fill="white" transform="matrix(1 0 0 -1 -0.0078125 70.8301)"/>
</clipPath>
</defs>
</svg>
