<svg width="43" height="42" viewBox="0 0 43 42" fill="none" xmlns="http://www.w3.org/2000/svg">
<path d="M14.9473 33.25C14.483 33.25 14.0376 33.4344 13.7093 33.7626C13.3809 34.0907 13.1964 34.5359 13.1964 35V36.75C13.1964 37.2141 13.3809 37.6592 13.7093 37.9874C14.0376 38.3156 14.483 38.5 14.9473 38.5C15.4117 38.5 15.8571 38.3156 16.1854 37.9874C16.5138 37.6592 16.6983 37.2141 16.6983 36.75V35C16.6983 34.5359 16.5138 34.0907 16.1854 33.7626C15.8571 33.4344 15.4117 33.25 14.9473 33.25ZM14.9473 24.5C14.483 24.5 14.0376 24.6844 13.7093 25.0126C13.3809 25.3408 13.1964 25.7859 13.1964 26.25V28C13.1964 28.4641 13.3809 28.9093 13.7093 29.2374C14.0376 29.5656 14.483 29.75 14.9473 29.75C15.4117 29.75 15.8571 29.5656 16.1854 29.2374C16.5138 28.9093 16.6983 28.4641 16.6983 28V26.25C16.6983 25.7859 16.5138 25.3408 16.1854 25.0126C15.8571 24.6844 15.4117 24.5 14.9473 24.5ZM36.8337 12.25H35.433C35.252 11.4648 34.9445 10.7141 34.5225 10.0275L35.503 9.0475C35.7899 8.71272 35.9398 8.28209 35.9228 7.84166C35.9057 7.40122 35.7231 6.98343 35.4112 6.67176C35.0994 6.3601 34.6814 6.17752 34.2407 6.16051C33.8001 6.14349 33.3692 6.2933 33.0343 6.58L32.0538 7.56C31.3667 7.13827 30.6157 6.83093 29.8301 6.65V5.25C29.8301 4.78587 29.6456 4.34075 29.3173 4.01256C28.9889 3.68437 28.5436 3.5 28.0792 3.5C27.6148 3.5 27.1695 3.68437 26.8411 4.01256C26.5127 4.34075 26.3283 4.78587 26.3283 5.25V6.65C25.5472 6.82817 24.8015 7.13576 24.1221 7.56L23.1241 6.58C22.7891 6.2933 22.3583 6.14349 21.9176 6.16051C21.477 6.17752 21.059 6.3601 20.7471 6.67176C20.4353 6.98343 20.2526 7.40122 20.2356 7.84166C20.2186 8.28209 20.3685 8.71272 20.6553 9.0475L21.6358 10.045C21.4782 10.3075 21.3557 10.605 21.2156 10.885C20.3154 10.631 19.3846 10.5015 18.4492 10.5C15.9259 10.4986 13.4863 11.4049 11.5766 13.0534C9.66691 14.7018 8.41463 16.9822 8.04875 19.4775C6.82948 19.8168 5.74524 20.5252 4.94497 21.5052C4.1447 22.4853 3.66767 23.6889 3.57941 24.9509C3.49114 26.2128 3.79597 27.4711 4.45202 28.5529C5.10807 29.6347 6.08316 30.4869 7.24333 30.9925C7.46647 31.0809 7.70372 31.1283 7.9437 31.1325C8.3485 31.1358 8.74194 30.9988 9.05707 30.7448C9.37219 30.4908 9.58953 30.1356 9.67209 29.7395C9.75466 29.3434 9.69734 28.9309 9.50991 28.5723C9.32248 28.2137 9.01651 27.931 8.64406 27.7725C8.17428 27.5725 7.77409 27.2383 7.49374 26.8117C7.21338 26.3852 7.06535 25.8853 7.06824 25.375C7.06824 24.6788 7.34495 24.0111 7.83749 23.5188C8.33003 23.0266 8.99805 22.75 9.69461 22.75C10.159 22.75 10.6043 22.5656 10.9327 22.2374C11.261 21.9092 11.4455 21.4641 11.4455 21C11.453 19.3475 12.0452 17.7509 13.1174 16.4928C14.1895 15.2348 15.6723 14.3964 17.3035 14.1261C18.9346 13.8558 20.6088 14.1709 22.0298 15.0158C23.4508 15.8607 24.5269 17.1808 25.0676 18.7425C25.1677 19.0432 25.3476 19.3111 25.5881 19.5176C25.8287 19.7241 26.1208 19.8615 26.4333 19.915C27.2466 20.0354 28.0041 20.3995 28.6059 20.9594C29.2076 21.5192 29.6253 22.2484 29.8036 23.0505C29.982 23.8526 29.9126 24.6899 29.6047 25.4518C29.2968 26.2136 28.7649 26.8642 28.0792 27.3175C27.886 27.4439 27.7197 27.6071 27.5896 27.7977C27.4596 27.9884 27.3684 28.2028 27.3212 28.4286C27.2741 28.6545 27.2719 28.8875 27.3148 29.1142C27.3578 29.3409 27.445 29.557 27.5714 29.75C27.6979 29.943 27.8611 30.1093 28.0519 30.2393C28.2426 30.3693 28.4571 30.4604 28.6831 30.5075C28.9091 30.5547 29.1422 30.5568 29.369 30.5139C29.5959 30.471 29.812 30.3839 30.0052 30.2575C31.0377 29.556 31.8814 28.611 32.4616 27.506C33.0419 26.4011 33.3408 25.1703 33.3319 23.9225C33.3304 22.9932 33.1521 22.0727 32.8066 21.21L33.0343 21.42C33.3604 21.7433 33.8006 21.9256 34.2599 21.9275C34.4903 21.9288 34.7188 21.8847 34.9321 21.7976C35.1454 21.7105 35.3394 21.5822 35.503 21.42C35.8292 21.0921 36.0122 20.6486 36.0122 20.1862C36.0122 19.7239 35.8292 19.2804 35.503 18.9525L34.5225 17.9725C34.9445 17.2859 35.252 16.5352 35.433 15.75H36.8337C37.2981 15.75 37.7435 15.5656 38.0718 15.2374C38.4002 14.9092 38.5847 14.4641 38.5847 14C38.5847 13.5359 38.4002 13.0908 38.0718 12.7626C37.7435 12.4344 37.2981 12.25 36.8337 12.25ZM30.9857 16.8875C30.6815 17.1924 30.3259 17.4412 29.9351 17.6225C29.3638 17.2266 28.7389 16.9143 28.0792 16.695C27.2747 14.9393 26.0103 13.4337 24.4198 12.3375C24.615 11.8855 24.8875 11.4709 25.2252 11.1125C26.0115 10.3856 27.0431 9.98187 28.1142 9.98187C29.1853 9.98187 30.2169 10.3856 31.0032 11.1125C31.7541 11.8863 32.1741 12.922 32.1741 14C32.1741 15.078 31.7541 16.1137 31.0032 16.8875H30.9857ZM21.951 31.5C21.4866 31.5 21.0413 31.6844 20.7129 32.0126C20.3846 32.3407 20.2001 32.7859 20.2001 33.25V35C20.2001 35.4641 20.3846 35.9092 20.7129 36.2374C21.0413 36.5656 21.4866 36.75 21.951 36.75C22.4154 36.75 22.8607 36.5656 23.1891 36.2374C23.5174 35.9092 23.7019 35.4641 23.7019 35V33.25C23.7019 32.7859 23.5174 32.3407 23.1891 32.0126C22.8607 31.6844 22.4154 31.5 21.951 31.5ZM21.951 22.75C21.4866 22.75 21.0413 22.9344 20.7129 23.2626C20.3846 23.5908 20.2001 24.0359 20.2001 24.5V26.25C20.2001 26.7141 20.3846 27.1592 20.7129 27.4874C21.0413 27.8156 21.4866 28 21.951 28C22.4154 28 22.8607 27.8156 23.1891 27.4874C23.5174 27.1592 23.7019 26.7141 23.7019 26.25V24.5C23.7019 24.0359 23.5174 23.5908 23.1891 23.2626C22.8607 22.9344 22.4154 22.75 21.951 22.75Z" fill="#B73058"/>
</svg>
