<svg width="263" height="342" viewBox="0 0 263 342" fill="none" xmlns="http://www.w3.org/2000/svg">
<path d="M-56.5762 86.1908L7.22874 22.3857C-4.09895 28.8587 -14.6175 36.6031 -24.1343 45.3879L-33.574 54.8277C-42.3588 64.383 -50.1032 74.8631 -56.5762 86.1908Z" fill="#FF477E"/>
<path d="M-75.6094 136.895L57.934 3.35205C54.2352 4.08411 50.6134 4.97023 46.9916 5.93346L-73.0279 125.953C-74.0297 129.575 -74.8773 133.235 -75.6094 136.895Z" fill="#FF477E"/>
<path d="M-79 170.84C-79 171.187 -79 171.572 -79 171.919L92.9188 0C92.572 0 92.1867 0 91.84 0C89.3741 0 86.8696 0.077092 84.4422 0.154151L-78.8459 163.442C-78.923 165.908 -79 168.374 -79 170.84Z" fill="#FF477E"/>
<path d="M-76.3417 200.97L121.97 2.65853C119.581 2.23471 117.154 1.8495 114.765 1.54126L-77.459 193.765C-77.1507 196.154 -76.7655 198.581 -76.3417 200.97Z" fill="#FF477E"/>
<path d="M-69.8685 226.13L147.13 9.13154C145.049 8.39948 142.93 7.7444 140.811 7.12793L-71.8721 219.811C-71.2556 221.93 -70.562 224.049 -69.8685 226.13Z" fill="#FF477E"/>
<path d="M-60.4284 248.361L169.4 18.5327C167.551 17.5694 165.663 16.6833 163.775 15.7971L-63.1641 242.736C-62.2779 244.663 -61.3917 246.512 -60.4284 248.361Z" fill="#FF477E"/>
<path d="M-48.562 268.166L189.204 30.3999C187.547 29.244 185.89 28.1267 184.195 27.0479L-51.9141 263.157C-50.8352 264.891 -49.7179 266.548 -48.562 268.166Z" fill="#FF477E"/>
<path d="M-34.5372 285.812L206.812 44.4631C205.348 43.153 203.884 41.843 202.381 40.5715L-38.4287 281.381C-37.1572 282.884 -35.8858 284.348 -34.5372 285.812Z" fill="#FF477E"/>
<path d="M-18.431 301.34L222.34 60.5686C221.069 59.0659 219.759 57.5632 218.449 56.0991L-22.9004 297.448C-21.3977 298.797 -19.9337 300.068 -18.431 301.34Z" fill="#FF477E"/>
<path d="M-0.206968 314.825L235.825 78.793C234.746 77.0977 233.629 75.4409 232.473 73.7842L-5.21582 311.473C-3.55905 312.59 -1.90227 313.708 -0.206968 314.825Z" fill="#FF477E"/>
<path d="M20.2527 325.998L246.999 99.2522C246.113 97.3643 245.227 95.4764 244.263 93.627L14.5889 323.302C16.4768 324.226 18.3648 325.151 20.2527 325.998Z" fill="#FF477E"/>
<path d="M43.2544 334.668L255.706 122.216C255.09 120.097 254.396 117.978 253.703 115.897L36.9355 332.664C38.9776 333.396 41.0967 334.051 43.2544 334.668Z" fill="#FF477E"/>
<path d="M69.3383 340.216L261.215 148.339C260.907 145.911 260.522 143.484 260.098 141.095L62.0947 339.098C64.5221 339.561 66.9109 339.907 69.3383 340.216Z" fill="#FF477E"/>
<path d="M91.8396 341.718C94.4982 341.718 97.1182 341.641 99.6997 341.526L262.487 178.739C262.603 176.118 262.68 173.499 262.68 170.879C262.68 170.647 262.68 170.455 262.68 170.223L91.1846 341.718C91.4157 341.718 91.647 341.718 91.8396 341.718Z" fill="#FF477E"/>
<path d="M137.343 335.592L256.592 216.343C257.594 212.722 258.48 209.061 259.251 205.362L126.362 338.251C130.061 337.48 133.721 336.556 137.343 335.592Z" fill="#FF477E"/>
<path d="M239.677 256.568L177.529 318.717C203.267 303.729 224.728 282.268 239.677 256.568Z" fill="#FF477E"/>
</svg>
