<svg width="60" height="50" viewBox="0 0 60 50" fill="none" xmlns="http://www.w3.org/2000/svg">
<path d="M50.9315 21.9103C50.7509 21.8475 50.555 21.8657 50.3868 21.9609C50.2185 22.0562 50.0917 22.2206 50.0343 22.4181C49.9769 22.6155 49.9936 22.8298 50.0807 23.0139C50.1678 23.1979 50.3181 23.3365 50.4986 23.3993C56.0814 25.3446 58.5713 28.2462 58.5713 32.8118C58.5713 36.8727 55.1842 40.0243 53.1671 41.543C53.0716 41.6148 52.9935 41.7109 52.9395 41.823C52.8854 41.9352 52.8572 42.06 52.8572 42.1868V48.1602C51.1419 47.4486 49.6097 46.2933 48.3915 44.793C48.3089 44.6924 48.204 44.6167 48.0869 44.5732C47.9699 44.5297 47.8445 44.5199 47.723 44.5446C47.3158 44.6305 46.9001 44.7524 46.4787 44.8758C45.7501 45.0899 44.9987 45.3118 44.2859 45.3118C40.6174 45.3118 38.0489 44.4493 35.4232 42.3383C35.2705 42.2155 35.0795 42.164 34.8921 42.1952C34.7047 42.2264 34.5363 42.3377 34.4239 42.5047C34.3116 42.6717 34.2645 42.8807 34.2931 43.0857C34.3216 43.2907 34.4234 43.4748 34.5761 43.5977C37.4717 45.9258 40.2845 46.8743 44.2859 46.8743C45.1873 46.8743 46.033 46.6258 46.8501 46.3852C47.1044 46.3086 47.3573 46.2336 47.6073 46.1696C50.2772 49.2539 53.2971 49.9555 53.4286 49.9836C53.5323 50.0072 53.6396 50.005 53.7425 49.9771C53.8453 49.9493 53.9411 49.8965 54.0228 49.8227C54.105 49.7496 54.1713 49.6575 54.2168 49.5528C54.2622 49.4482 54.2858 49.3338 54.2857 49.218V42.5946C57.9742 39.718 59.9999 36.2555 59.9999 32.8118C59.9999 27.529 57.1185 24.0649 50.9315 21.9103Z" fill="#F8F8F8"/>
<path d="M47.1419 21.0937C47.1419 9.06873 37.1164 0 23.8238 0C10.4641 0 0 9.26716 0 21.0968C0 28.189 4.58705 33.2702 8.57126 36.3452V46.7139C8.572 46.8441 8.60233 46.972 8.65953 47.0861C8.71673 47.2002 8.79899 47.297 8.8989 47.3677C8.99881 47.4384 9.11323 47.4807 9.23185 47.491C9.35047 47.5013 9.46956 47.4791 9.57838 47.4264C9.78695 47.3249 14.6626 44.9014 18.8339 39.9124C20.641 40.2796 22.6853 40.6327 24.5395 40.6327C38.0578 40.6327 47.1419 32.7796 47.1419 21.0937ZM24.5381 39.0702C22.6667 39.0702 20.5396 38.678 18.7053 38.2952C18.5838 38.2708 18.4585 38.2808 18.3415 38.3243C18.2245 38.3678 18.1196 38.4433 18.0368 38.5436C15.1083 42.1561 11.6669 44.4514 9.9998 45.4405V35.9374C9.99976 35.8106 9.97151 35.6858 9.9175 35.5737C9.8635 35.4615 9.78535 35.3654 9.68981 35.2937C5.92131 32.4577 1.42854 27.6952 1.42854 21.0968C1.42854 10.1422 11.2655 1.5625 23.8238 1.5625C36.3036 1.5625 45.7134 9.95935 45.7134 21.0937C45.7134 31.8468 37.2036 39.0702 24.5381 39.0702Z" fill="#F8F8F8"/>
<path d="M23.571 17.9688C21.9953 17.9688 20.7139 19.3703 20.7139 21.0937C20.7139 22.8172 21.9953 24.2187 23.571 24.2187C25.1467 24.2187 26.4281 22.8172 26.4281 21.0937C26.4281 19.3703 25.1467 17.9688 23.571 17.9688ZM23.571 22.6562C23.2032 22.6382 22.8559 22.4658 22.6014 22.1747C22.3469 21.8837 22.2049 21.4965 22.2049 21.0937C22.2049 20.691 22.3469 20.3038 22.6014 20.0128C22.8559 19.7217 23.2032 19.5492 23.571 19.5312C23.9388 19.5492 24.2861 19.7217 24.5406 20.0128C24.7951 20.3038 24.9371 20.691 24.9371 21.0937C24.9371 21.4965 24.7951 21.8837 24.5406 22.1747C24.2861 22.4658 23.9388 22.6382 23.571 22.6562ZM33.5708 17.9688C31.9951 17.9688 30.7137 19.3703 30.7137 21.0937C30.7137 22.8172 31.9951 24.2187 33.5708 24.2187C35.1465 24.2187 36.4279 22.8172 36.4279 21.0937C36.4279 19.3703 35.1465 17.9688 33.5708 17.9688ZM33.5708 22.6562C33.203 22.6382 32.8557 22.4658 32.6012 22.1747C32.3468 21.8837 32.2047 21.4965 32.2047 21.0937C32.2047 20.691 32.3468 20.3038 32.6012 20.0128C32.8557 19.7217 33.203 19.5492 33.5708 19.5312C33.9386 19.5492 34.2859 19.7217 34.5404 20.0128C34.7949 20.3038 34.9369 20.691 34.9369 21.0937C34.9369 21.4965 34.7949 21.8837 34.5404 22.1747C34.2859 22.4658 33.9386 22.6382 33.5708 22.6562ZM13.5712 18.1172C11.9955 18.1172 10.7141 19.5187 10.7141 21.2422C10.7141 22.9656 11.9955 24.3672 13.5712 24.3672C15.1469 24.3672 16.4283 22.9656 16.4283 21.2422C16.4283 19.5187 15.1469 18.1172 13.5712 18.1172ZM13.5712 22.8047C13.2034 22.7867 12.8561 22.6142 12.6016 22.3231C12.3471 22.0321 12.2051 21.6449 12.2051 21.2422C12.2051 20.8395 12.3471 20.4523 12.6016 20.1612C12.8561 19.8702 13.2034 19.6977 13.5712 19.6797C13.939 19.6977 14.2863 19.8702 14.5408 20.1612C14.7952 20.4523 14.9373 20.8395 14.9373 21.2422C14.9373 21.6449 14.7952 22.0321 14.5408 22.3231C14.2863 22.6142 13.939 22.7867 13.5712 22.8047Z" fill="#F8F8F8"/>
</svg>
