<svg width="43" height="42" viewBox="0 0 43 42" fill="none" xmlns="http://www.w3.org/2000/svg">
<path d="M4.58149 15.505L20.3397 24.605C20.6059 24.7586 20.9078 24.8394 21.2151 24.8394C21.5225 24.8394 21.8244 24.7586 22.0906 24.605L37.8488 15.505C38.1134 15.3523 38.3335 15.133 38.4871 14.869C38.6406 14.605 38.7224 14.3054 38.7243 14C38.7255 13.6916 38.6452 13.3884 38.4914 13.121C38.3377 12.8537 38.116 12.6317 37.8488 12.4775L22.0906 3.39498C21.8244 3.24138 21.5225 3.16052 21.2151 3.16052C20.9078 3.16052 20.6059 3.24138 20.3397 3.39498L4.58149 12.4775C4.31429 12.6317 4.0926 12.8537 3.93887 13.121C3.78513 13.3884 3.70481 13.6916 3.70603 14C3.70788 14.3054 3.78965 14.605 3.94324 14.869C4.09682 15.133 4.31686 15.3523 4.58149 15.505ZM21.2151 6.99998L33.4715 14L21.2151 21L8.95877 14L21.2151 6.99998ZM36.0979 19.5475L21.2151 28L6.3324 19.4775C6.13256 19.3618 5.91179 19.2867 5.68281 19.2566C5.45383 19.2266 5.22116 19.2421 4.9982 19.3023C4.77524 19.3624 4.56639 19.4661 4.38369 19.6073C4.20099 19.7485 4.04804 19.9244 3.93365 20.125C3.70538 20.5268 3.64538 21.0026 3.76675 21.4484C3.88812 21.8943 4.181 22.2741 4.58149 22.505L20.3397 31.605C20.6059 31.7586 20.9078 31.8394 21.2151 31.8394C21.5225 31.8394 21.8244 31.7586 22.0906 31.605L37.8488 22.505C38.2493 22.2741 38.5422 21.8943 38.6635 21.4484C38.7849 21.0026 38.7249 20.5268 38.4966 20.125C38.3823 19.9244 38.2293 19.7485 38.0466 19.6073C37.8639 19.4661 37.6551 19.3624 37.4321 19.3023C37.2091 19.2421 36.9765 19.2266 36.7475 19.2566C36.5185 19.2867 36.2977 19.3618 36.0979 19.4775V19.5475ZM36.0979 26.5475L21.2151 35L6.3324 26.4775C6.13256 26.3618 5.91179 26.2867 5.68281 26.2566C5.45383 26.2266 5.22116 26.2421 4.9982 26.3023C4.77524 26.3624 4.56639 26.4661 4.38369 26.6073C4.20099 26.7485 4.04804 26.9244 3.93365 27.125C3.70538 27.5268 3.64538 28.0026 3.76675 28.4484C3.88812 28.8943 4.181 29.2741 4.58149 29.505L20.3397 38.605C20.6059 38.7586 20.9078 38.8394 21.2151 38.8394C21.5225 38.8394 21.8244 38.7586 22.0906 38.605L37.8488 29.505C38.2493 29.2741 38.5422 28.8943 38.6635 28.4484C38.7849 28.0026 38.7249 27.5268 38.4966 27.125C38.3823 26.9244 38.2293 26.7485 38.0466 26.6073C37.8639 26.4661 37.6551 26.3624 37.4321 26.3023C37.2091 26.2421 36.9765 26.2266 36.7475 26.2566C36.5185 26.2867 36.2977 26.3618 36.0979 26.4775V26.5475Z" fill="#B73058"/>
</svg>
