<svg width="1103" height="48" viewBox="0 0 1103 48" fill="none" xmlns="http://www.w3.org/2000/svg">
<path d="M954.593 42C954.593 43.4728 955.787 44.6667 957.26 44.6667C958.732 44.6667 959.926 43.4728 959.926 42C959.926 40.5272 958.732 39.3333 957.26 39.3333C955.787 39.3333 954.593 40.5272 954.593 42ZM1094.33 6.0001C1094.33 7.47286 1095.53 8.66676 1097 8.66676C1098.47 8.66676 1099.67 7.47286 1099.67 6.0001C1099.67 4.52734 1098.47 3.33343 1097 3.33343C1095.53 3.33343 1094.33 4.52734 1094.33 6.0001ZM666.138 6.00018C666.138 7.47294 667.332 8.66685 668.805 8.66685C670.278 8.66685 671.472 7.47294 671.472 6.00018C671.472 4.52742 670.278 3.33351 668.805 3.33351C667.332 3.33351 666.138 4.52742 666.138 6.00018ZM824.202 35.0098L823.867 35.3819V35.3819L824.202 35.0098ZM822.545 35.9166C822.545 37.3893 823.739 38.5832 825.212 38.5832C826.684 38.5832 827.878 37.3893 827.878 35.9166C827.878 34.4438 826.684 33.2499 825.212 33.2499C823.739 33.2499 822.545 34.4438 822.545 35.9166ZM316.147 35.9165C316.147 37.3892 317.34 38.5832 318.813 38.5832C320.286 38.5832 321.48 37.3892 321.48 35.9165C321.48 34.4437 320.286 33.2498 318.813 33.2498C317.34 33.2498 316.147 34.4437 316.147 35.9165ZM461.015 6C461.015 7.47276 462.209 8.66667 463.682 8.66667C465.154 8.66667 466.348 7.47276 466.348 6C466.348 4.52724 465.154 3.33333 463.682 3.33333C462.209 3.33333 461.015 4.52724 461.015 6ZM3.33333 11.5775C3.33333 13.0503 4.52724 14.2442 6 14.2442C7.47276 14.2442 8.66667 13.0503 8.66667 11.5775C8.66667 10.1048 7.47276 8.91087 6 8.91087C4.52724 8.91087 3.33333 10.1048 3.33333 11.5775ZM159.74 41.4939C159.74 42.9667 160.934 44.1606 162.407 44.1606C163.879 44.1606 165.073 42.9667 165.073 41.4939C165.073 40.0212 163.879 38.8272 162.407 38.8272C160.934 38.8272 159.74 40.0212 159.74 41.4939ZM957.545 42.4105C957.823 42.217 958.1 42.0248 958.375 41.8339L957.805 41.0124C957.529 41.2036 957.253 41.3959 956.974 41.5895L957.545 42.4105ZM960.008 40.7025C960.557 40.3231 961.101 39.9486 961.639 39.5791L961.073 38.7548C960.534 39.1249 959.99 39.4999 959.44 39.8798L960.008 40.7025ZM963.279 38.4562C963.831 38.0803 964.377 37.7097 964.917 37.3443L964.358 36.5157C963.815 36.882 963.268 37.2534 962.716 37.6299L963.279 38.4562ZM966.565 36.2369C967.12 35.8658 967.671 35.5003 968.216 35.1402L967.666 34.3055C967.118 34.6668 966.566 35.0334 966.009 35.4055L966.565 36.2369ZM969.872 34.0557C970.433 33.6914 970.989 33.3328 971.542 32.9799L971.003 32.1371C970.448 32.4915 969.89 32.8515 969.327 33.2172L969.872 34.0557ZM973.208 31.926C973.775 31.5709 974.339 31.2218 974.9 30.8785L974.378 30.0256C973.814 30.3707 973.247 30.7216 972.677 31.0784L973.208 31.926ZM976.588 29.8585C977.16 29.5172 977.73 29.1819 978.298 28.8524L977.797 27.9872C977.224 28.3189 976.651 28.6563 976.075 28.9997L976.588 29.8585ZM980.016 27.8725C980.593 27.5485 981.169 27.2304 981.745 26.918L981.269 26.0388C980.688 26.3536 980.107 26.6741 979.526 27.0005L980.016 27.8725ZM983.494 25.988C984.079 25.6827 984.665 25.3832 985.252 25.0892L984.804 24.1949C984.212 24.4915 983.621 24.7936 983.031 25.1014L983.494 25.988ZM987.028 24.2193C987.622 23.9349 988.218 23.656 988.817 23.3823L988.402 22.4727C987.797 22.7489 987.195 23.0304 986.596 23.3174L987.028 24.2193ZM990.624 22.577C991.226 22.3156 991.831 22.0593 992.441 21.8077L992.059 20.8833C991.444 21.1372 990.833 21.396 990.226 21.6599L990.624 22.577ZM994.275 21.0711C994.886 20.8325 995.502 20.5985 996.123 20.3688L995.777 19.4308C995.149 19.6626 994.528 19.8989 993.911 20.1397L994.275 21.0711ZM997.979 19.7021C998.6 19.4855 999.227 19.2729 999.861 19.0642L999.549 18.1143C998.909 18.3249 998.276 18.5394 997.65 18.758L997.979 19.7021ZM1001.73 18.4657C1002.36 18.2715 1002.99 18.0807 1003.63 17.8932L1003.35 16.9334C1002.71 17.1224 1002.07 17.3148 1001.44 17.5107L1001.73 18.4657ZM1005.53 17.354C1006.16 17.1804 1006.8 17.0097 1007.44 16.8419L1007.19 15.8741C1006.54 16.0432 1005.9 16.2151 1005.26 16.39L1005.53 17.354ZM1009.36 16.3568C1009.99 16.2017 1010.63 16.049 1011.28 15.8986L1011.06 14.9244C1010.4 15.0757 1009.76 15.2294 1009.12 15.3856L1009.36 16.3568ZM1013.22 15.4624C1013.85 15.3234 1014.5 15.1864 1015.15 15.0513L1014.95 14.0721C1014.29 14.2079 1013.64 14.3457 1013 14.4855L1013.22 15.4624ZM1017.1 14.6588C1017.73 14.5335 1018.38 14.4099 1019.04 14.2879L1018.85 13.3048C1018.19 13.4273 1017.54 13.5516 1016.9 13.6775L1017.1 14.6588ZM1020.99 13.9342C1021.63 13.8204 1022.28 13.708 1022.94 13.597L1022.78 12.6108C1022.11 12.7223 1021.46 12.8352 1020.81 12.9495L1020.99 13.9342ZM1024.89 13.2776C1025.54 13.1733 1026.2 13.0701 1026.87 12.9682L1026.72 11.9796C1026.05 12.082 1025.39 12.1854 1024.73 12.2901L1024.89 13.2776ZM1028.81 12.6789C1029.46 12.5835 1030.12 12.489 1030.79 12.3955L1030.65 11.4051C1029.98 11.4989 1029.32 11.5937 1028.66 11.6894L1028.81 12.6789ZM1032.74 12.1293C1033.38 12.0425 1034.04 11.9565 1034.7 11.8713L1034.58 10.8794C1033.91 10.9649 1033.25 11.0511 1032.6 11.1382L1032.74 12.1293ZM1036.69 11.6211C1037.33 11.5419 1037.98 11.4633 1038.63 11.3853L1038.52 10.3923C1037.86 10.4705 1037.21 10.5492 1036.57 10.6286L1036.69 11.6211ZM1040.62 11.1531C1041.27 11.0787 1041.93 11.0048 1042.59 10.9313L1042.48 9.93739C1041.81 10.011 1041.16 10.085 1040.51 10.1596L1040.62 11.1531ZM1044.55 10.7179C1045.21 10.6472 1045.87 10.577 1046.55 10.5071L1046.44 9.51242C1045.77 9.58241 1045.1 9.6528 1044.44 9.72362L1044.55 10.7179ZM1048.5 10.307C1049.15 10.2418 1049.81 10.1768 1050.47 10.1122L1050.37 9.11694C1049.71 9.18166 1049.05 9.24669 1048.4 9.31204L1048.5 10.307ZM1052.47 9.91914C1053.12 9.85764 1053.77 9.79638 1054.43 9.73535L1054.34 8.73961C1053.68 8.80071 1053.02 8.86204 1052.38 8.92363L1052.47 9.91914ZM1056.39 9.55602C1057.05 9.49644 1057.72 9.43706 1058.39 9.37785L1058.31 8.3817C1057.63 8.44097 1056.97 8.50042 1056.3 8.56006L1056.39 9.55602ZM1060.37 9.20588C1061.02 9.1503 1061.67 9.09486 1062.33 9.03953L1062.24 8.04306C1061.58 8.09843 1060.93 8.15393 1060.28 8.20956L1060.37 9.20588ZM1064.32 8.87388C1064.98 8.81919 1065.65 8.7646 1066.32 8.71008L1066.24 7.71332C1065.57 7.76788 1064.9 7.82252 1064.23 7.87726L1064.32 8.87388ZM1068.27 8.55469C1068.92 8.50296 1069.58 8.45127 1070.24 8.39963L1070.16 7.40264C1069.5 7.45432 1068.84 7.50604 1068.19 7.55782L1068.27 8.55469ZM1072.25 8.24479C1072.9 8.1948 1073.56 8.14483 1074.22 8.09487L1074.15 7.09769C1073.48 7.14768 1072.83 7.19768 1072.17 7.24771L1072.25 8.24479ZM1076.18 7.94882C1076.84 7.90013 1077.5 7.85144 1078.16 7.80272L1078.09 6.80538C1077.42 6.85412 1076.76 6.90284 1076.1 6.95156L1076.18 7.94882ZM1080.18 7.6565C1080.83 7.60978 1081.48 7.56303 1082.14 7.51624L1082.07 6.51876C1081.41 6.56558 1080.76 6.61235 1080.11 6.65909L1080.18 7.6565ZM1084.1 7.37765C1084.76 7.3314 1085.42 7.28511 1086.09 7.23874L1086.02 6.24115C1085.35 6.28753 1084.69 6.33385 1084.03 6.38011L1084.1 7.37765ZM1088.1 7.09945C1088.75 7.05485 1089.41 7.01017 1090.06 6.96541L1090 5.96772C1089.34 6.01249 1088.68 6.05718 1088.03 6.1018L1088.1 7.09945ZM1092.02 6.83284C1092.68 6.78857 1093.34 6.74421 1094.01 6.69975L1093.94 5.70197C1093.27 5.74644 1092.61 5.79082 1091.95 5.8351L1092.02 6.83284ZM1096.02 6.56609C1096.35 6.54376 1096.69 6.5214 1097.03 6.49901L1096.97 5.50118C1096.63 5.52357 1096.29 5.54593 1095.95 5.56827L1096.02 6.56609ZM668.805 6.50018C669.147 6.50018 669.489 6.50018 669.829 6.50018V5.50018C669.489 5.50018 669.147 5.50018 668.805 5.50018V6.50018ZM671.861 6.5002C672.534 6.50021 673.204 6.50024 673.87 6.50027L673.87 5.50027C673.204 5.50024 672.534 5.50022 671.861 5.5002L671.861 6.5002ZM675.857 6.50041C676.515 6.50047 677.17 6.50055 677.821 6.50065L677.821 5.50065C677.17 5.50055 676.515 5.50047 675.857 5.50041L675.857 6.50041ZM679.763 6.50103C680.444 6.50119 681.121 6.50139 681.794 6.50161L681.795 5.50161C681.122 5.50139 680.445 5.50119 679.763 5.50103L679.763 6.50103ZM683.816 6.50242C684.486 6.50273 685.151 6.50309 685.813 6.50349L685.814 5.50349C685.152 5.50309 684.486 5.50274 683.817 5.50242L683.816 6.50242ZM687.786 6.50486C688.439 6.50537 689.089 6.50593 689.734 6.50656L689.735 5.50656C689.089 5.50593 688.44 5.50537 687.786 5.50486L687.786 6.50486ZM691.738 6.50872C692.418 6.50953 693.094 6.51042 693.765 6.51139L693.766 5.51139C693.095 5.51042 692.419 5.50953 691.739 5.50872L691.738 6.50872ZM695.765 6.51457C696.427 6.51572 697.085 6.51696 697.738 6.5183L697.74 5.5183C697.087 5.51696 696.429 5.51572 695.767 5.51457L695.765 6.51457ZM699.685 6.52263C700.36 6.52425 701.031 6.52598 701.696 6.52784L701.699 5.52785C701.033 5.52599 700.363 5.52425 699.688 5.52263L699.685 6.52263ZM703.72 6.53395C704.389 6.53612 705.054 6.53843 705.714 6.54089L705.718 5.5409C705.058 5.53844 704.393 5.53613 703.723 5.53395L703.72 6.53395ZM707.679 6.54873C708.333 6.55151 708.981 6.55444 709.624 6.55755L709.629 5.55756C708.986 5.55446 708.337 5.55152 707.684 5.54874L707.679 6.54873ZM711.666 6.56807C712.341 6.57177 713.011 6.57568 713.676 6.5798L713.682 5.57982C713.017 5.5757 712.347 5.57179 711.672 5.56808L711.666 6.56807ZM715.653 6.59281C716.307 6.59737 716.955 6.60215 717.599 6.60717L717.607 5.6072C716.963 5.60218 716.314 5.5974 715.66 5.59284L715.653 6.59281ZM719.617 6.62384C720.295 6.62977 720.967 6.63598 721.633 6.64248L721.643 5.64253C720.976 5.63602 720.304 5.62981 719.625 5.62388L719.617 6.62384ZM723.615 6.66291C724.27 6.67003 724.919 6.67746 725.562 6.68521L725.574 5.68528C724.931 5.67752 724.281 5.67009 723.626 5.66297L723.615 6.66291ZM727.577 6.71082C728.255 6.71989 728.927 6.72936 729.592 6.73924L729.607 5.73935C728.941 5.72946 728.269 5.71999 727.591 5.71091L727.577 6.71082ZM731.568 6.7701C732.22 6.78081 732.866 6.79194 733.506 6.80351L733.524 5.80367C732.884 5.79209 732.237 5.78095 731.584 5.77023L731.568 6.7701ZM735.547 6.84236C736.22 6.85584 736.887 6.86986 737.547 6.88442L737.569 5.88467C736.908 5.87009 736.241 5.85606 735.567 5.84256L735.547 6.84236ZM739.505 6.9298C740.176 6.9461 740.839 6.96302 741.495 6.98058L741.522 5.98094C740.865 5.96336 740.201 5.94642 739.529 5.9301L739.505 6.9298ZM743.512 7.03726C744.176 7.05687 744.833 7.07718 745.483 7.09824L745.515 6.09876C744.865 6.07767 744.207 6.05733 743.541 6.0377L743.512 7.03726ZM747.448 7.16508C748.131 7.18943 748.806 7.21467 749.472 7.24083L749.511 6.2416C748.844 6.21539 748.168 6.19011 747.484 6.16572L747.448 7.16508ZM751.446 7.32213C752.109 7.35076 752.764 7.38039 753.41 7.41105L753.458 6.41217C752.81 6.38144 752.154 6.35175 751.489 6.32306L751.446 7.32213ZM755.43 7.51167C756.094 7.54639 756.749 7.58229 757.395 7.61943L757.452 6.62108C756.805 6.58384 756.148 6.54784 755.482 6.51303L755.43 7.51167ZM759.378 7.73911C760.055 7.78197 760.722 7.82631 761.379 7.87218L761.449 6.87461C760.789 6.82858 760.12 6.7841 759.441 6.74111L759.378 7.73911ZM763.321 8.01443C764.004 8.06688 764.676 8.12115 765.337 8.17729L765.421 7.18087C764.758 7.1245 764.083 7.07002 763.398 7.01737L763.321 8.01443ZM767.303 8.35267C767.973 8.41545 768.631 8.48036 769.279 8.54746L769.382 7.55278C768.731 7.48533 768.069 7.42011 767.396 7.35703L767.303 8.35267ZM771.26 8.76329C771.922 8.83925 772.573 8.91776 773.213 8.9989L773.339 8.00684C772.695 7.92519 772.04 7.8462 771.374 7.76979L771.26 8.76329ZM775.196 9.26397C775.856 9.35678 776.503 9.45269 777.138 9.55181L777.292 8.56377C776.652 8.46385 776 8.36721 775.336 8.27373L775.196 9.26397ZM779.111 9.87657C779.769 9.99075 780.414 10.1088 781.046 10.2308L781.235 9.24885C780.597 9.12564 779.946 9.0065 779.282 8.89129L779.111 9.87657ZM782.994 10.6272C783.65 10.768 784.292 10.9136 784.922 11.0642L785.154 10.0916C784.517 9.9392 783.867 9.79188 783.204 9.64948L782.994 10.6272ZM786.83 11.5456C787.481 11.7188 788.118 11.8979 788.743 12.083L789.027 11.1243C788.393 10.9363 787.747 10.7548 787.087 10.5793L786.83 11.5456ZM790.617 12.6687C791.252 12.8779 791.875 13.0941 792.486 13.3176L792.83 12.3785C792.208 12.1512 791.575 11.9314 790.93 11.7189L790.617 12.6687ZM794.329 14.0271C794.942 14.2753 795.544 14.5317 796.138 14.7966L796.545 13.8835C795.941 13.6138 795.328 13.3528 794.704 13.1002L794.329 14.0271ZM797.926 15.6335C798.518 15.9239 799.102 16.2235 799.68 16.5328L800.152 15.651C799.564 15.3363 798.969 15.0312 798.366 14.7356L797.926 15.6335ZM801.402 17.4925C801.97 17.8222 802.533 18.1618 803.094 18.5117L803.623 17.6636C803.054 17.3081 802.481 16.9628 801.904 16.6276L801.402 17.4925ZM804.749 19.5812C805.293 19.9439 805.835 20.3169 806.378 20.7004L806.955 19.8839C806.405 19.4954 805.856 19.1173 805.304 18.7493L804.749 19.5812ZM807.984 21.8661C808.505 22.2534 809.027 22.6506 809.552 23.058L810.165 22.268C809.635 21.8567 809.107 21.4553 808.581 21.0637L807.984 21.8661ZM811.108 24.288C811.617 24.6976 812.13 25.1168 812.648 25.5457L813.286 24.7757C812.765 24.3439 812.248 23.9217 811.735 23.5088L811.108 24.288ZM814.159 26.8135C814.66 27.2384 815.167 27.6723 815.68 28.1155L816.333 27.3589C815.819 26.914 815.31 26.478 814.806 26.0508L814.159 26.8135ZM817.166 29.4096C817.658 29.841 818.157 30.2806 818.662 30.7285L819.325 29.9799C818.819 29.531 818.319 29.0903 817.825 28.6576L817.166 29.4096ZM820.145 32.0466C820.632 32.4812 821.126 32.9233 821.628 33.3729L822.296 32.6281C821.793 32.1781 821.299 31.7355 820.811 31.3003L820.145 32.0466ZM823.11 34.7014C823.36 34.9264 823.613 35.1532 823.867 35.3819L824.536 34.6378C824.281 34.4091 824.028 34.1823 823.778 33.9572L823.11 34.7014ZM823.867 35.3819L824.12 35.6086L824.788 34.8644L824.536 34.6378L823.867 35.3819ZM824.625 36.0619L824.878 36.2886L825.546 35.5445L825.293 35.3178L824.625 36.0619ZM319.085 36.3361C319.373 36.1494 319.659 35.9638 319.944 35.7795L319.4 34.9404C319.115 35.1247 318.829 35.3102 318.541 35.4969L319.085 36.3361ZM321.628 34.6871C322.183 34.3276 322.73 33.9727 323.271 33.6223L322.727 32.783C322.186 33.1335 321.639 33.4885 321.084 33.848L321.628 34.6871ZM324.975 32.5189C325.536 32.1561 326.09 31.7984 326.637 31.4457L326.095 30.6053C325.547 30.9583 324.993 31.3163 324.432 31.6792L324.975 32.5189ZM328.321 30.3609C328.887 29.997 329.446 29.6387 329.998 29.2859L329.459 28.4434C328.907 28.7967 328.347 29.1554 327.781 29.5196L328.321 30.3609ZM331.675 28.2171C332.246 27.8549 332.809 27.4987 333.365 27.1485L332.832 26.3023C332.275 26.6532 331.71 27.0101 331.139 27.373L331.675 28.2171ZM335.045 26.0958C335.619 25.7383 336.186 25.3875 336.746 25.043L336.222 24.1912C335.66 24.5367 335.092 24.8886 334.517 25.247L335.045 26.0958ZM338.439 24.0095C339.016 23.6605 339.586 23.3185 340.15 22.9833L339.639 22.1236C339.072 22.4603 338.5 22.8037 337.921 23.154L338.439 24.0095ZM341.864 21.9757C342.443 21.6391 343.017 21.3098 343.585 20.9878L343.092 20.1177C342.52 20.4416 341.944 20.7727 341.361 21.1111L341.864 21.9757ZM345.327 20.0162C345.909 19.696 346.488 19.3835 347.063 19.0784L346.594 18.1951C346.014 18.5026 345.432 18.8174 344.845 19.1398L345.327 20.0162ZM348.836 18.1558C349.429 17.8534 350.019 17.5589 350.608 17.2721L350.17 16.3731C349.576 16.6627 348.98 16.9599 348.381 17.2649L348.836 18.1558ZM352.4 16.4201C353.004 16.1405 353.607 15.8689 354.21 15.605L353.809 14.6888C353.199 14.9557 352.59 15.2302 351.98 15.5127L352.4 16.4201ZM356.033 14.8317C356.645 14.5798 357.259 14.3356 357.876 14.0989L357.518 13.1653C356.894 13.4049 356.272 13.652 355.652 13.9067L356.033 14.8317ZM359.734 13.4114C360.355 13.1897 360.981 12.9751 361.612 12.7675L361.299 11.8177C360.66 12.0279 360.027 12.245 359.398 12.4694L359.734 13.4114ZM363.497 12.1718C364.125 11.9815 364.76 11.7975 365.402 11.6197L365.135 10.656C364.486 10.8359 363.843 11.0221 363.207 11.2148L363.497 12.1718ZM367.32 11.1117C367.953 10.9519 368.593 10.7976 369.242 10.6486L369.018 9.67395C368.362 9.82453 367.715 9.98055 367.075 10.1422L367.32 11.1117ZM371.195 10.2216C371.829 10.0896 372.473 9.96225 373.125 9.83943L372.94 8.85668C372.282 8.98064 371.632 9.10919 370.991 9.24251L371.195 10.2216ZM375.089 9.48839C375.73 9.37952 376.381 9.27461 377.042 9.17351L376.89 8.18502C376.224 8.28691 375.568 8.39269 374.921 8.50249L375.089 9.48839ZM379.011 8.88752C379.657 8.79856 380.313 8.71291 380.979 8.63044L380.857 7.63801C380.186 7.72102 379.526 7.80726 378.875 7.89686L379.011 8.88752ZM382.955 8.39851C383.604 8.32639 384.262 8.25701 384.93 8.19025L384.831 7.1952C384.159 7.26231 383.497 7.33209 382.845 7.40463L382.955 8.39851ZM386.916 8.00233C387.564 7.94428 388.222 7.88846 388.889 7.8348L388.809 6.83802C388.139 6.89191 387.478 6.94798 386.827 7.00632L386.916 8.00233ZM390.893 7.68226C391.538 7.63583 392.192 7.59122 392.856 7.54836L392.791 6.55044C392.125 6.59346 391.469 6.63823 390.821 6.68485L390.893 7.68226ZM394.875 7.42496C395.519 7.38778 396.172 7.35209 396.833 7.31783L396.782 6.31916C396.118 6.35352 395.463 6.38932 394.817 6.42663L394.875 7.42496ZM398.831 7.21998C399.489 7.18955 400.155 7.1604 400.83 7.13249L400.789 6.13334C400.112 6.16132 399.444 6.19054 398.785 6.22105L398.831 7.21998ZM402.8 7.05546C403.465 7.03088 404.138 7.00739 404.82 6.98494L404.788 5.98548C404.104 6.00798 403.429 6.03151 402.763 6.05614L402.8 7.05546ZM406.793 6.92362C407.446 6.90445 408.107 6.88615 408.776 6.86868L408.75 5.86902C408.08 5.88652 407.418 5.90485 406.763 5.92405L406.793 6.92362ZM410.808 6.8187C411.454 6.80376 412.107 6.78953 412.767 6.77596L412.747 5.77617C412.085 5.78976 411.432 5.80401 410.785 5.81897L410.808 6.8187ZM414.754 6.73752C415.424 6.72535 416.101 6.71379 416.786 6.70283L416.77 5.70296C416.085 5.71393 415.407 5.7255 414.736 5.73769L414.754 6.73752ZM418.75 6.6733C419.404 6.66408 420.064 6.65535 420.732 6.64709L420.719 5.64716C420.051 5.65544 419.39 5.66417 418.736 5.6734L418.75 6.6733ZM422.755 6.62366C423.411 6.61656 424.074 6.60988 424.744 6.60357L424.735 5.60362C424.064 5.60993 423.401 5.61662 422.744 5.62372L422.755 6.62366ZM426.712 6.58629C427.374 6.58088 428.043 6.5758 428.719 6.57105L428.711 5.57107C428.036 5.57583 427.367 5.58091 426.704 5.58633L426.712 6.58629ZM430.756 6.55776C431.4 6.55389 432.049 6.55028 432.705 6.5469L432.699 5.54692C432.044 5.55029 431.394 5.55391 430.75 5.55778L430.756 6.55776ZM434.688 6.5375C435.355 6.53459 436.028 6.53191 436.708 6.52944L436.704 5.52945C436.025 5.53192 435.351 5.5346 434.684 5.53751L434.688 6.5375ZM438.721 6.52276C439.368 6.52081 440.02 6.51903 440.677 6.5174L440.675 5.5174C440.017 5.51903 439.365 5.52081 438.718 5.52276L438.721 6.52276ZM442.666 6.51295C443.335 6.51162 444.009 6.51042 444.688 6.50934L444.687 5.50934C444.007 5.51042 443.333 5.51162 442.664 5.51296L442.666 6.51295ZM446.702 6.50652C447.349 6.50573 448.001 6.50503 448.657 6.50442L448.656 5.50442C448 5.50503 447.348 5.50573 446.701 5.50652L446.702 6.50652ZM450.643 6.50282C451.31 6.50237 451.982 6.50199 452.659 6.50167L452.658 5.50167C451.981 5.50199 451.309 5.50237 450.642 5.50283L450.643 6.50282ZM454.699 6.50088C455.344 6.50069 455.993 6.50054 456.646 6.50042L456.646 5.50042C455.992 5.50054 455.343 5.50069 454.699 5.50088L454.699 6.50088ZM458.621 6.50015C459.284 6.50009 459.952 6.50005 460.624 6.50003L460.624 5.50003C459.952 5.50005 459.284 5.50009 458.621 5.50015L458.621 6.50015ZM462.655 6.5C462.996 6.5 463.338 6.5 463.682 6.5V5.5C463.338 5.5 462.996 5.5 462.655 5.5V6.5ZM5.97039 12.0767C6.31965 12.0974 6.66765 12.118 7.01441 12.1385L7.07352 11.1403C6.72681 11.1198 6.37884 11.0991 6.02961 11.0784L5.97039 12.0767ZM9.07998 12.2606C9.76353 12.301 10.4421 12.3409 11.1158 12.3805L11.1745 11.3823C10.5009 11.3427 9.82236 11.3027 9.13888 11.2624L9.07998 12.2606ZM13.1222 12.4983C13.7861 12.5372 14.4451 12.5757 15.0993 12.6139L15.1576 11.6156C14.5035 11.5774 13.8445 11.5389 13.1807 11.5L13.1222 12.4983ZM17.0476 12.7275C17.736 12.7676 18.419 12.8073 19.0965 12.8466L19.1544 11.8483C18.4769 11.809 17.794 11.7693 17.1057 11.7292L17.0476 12.7275ZM21.1523 12.9657C21.832 13.005 22.5062 13.044 23.1748 13.0825L23.2324 12.0842C22.5638 12.0456 21.8897 12.0067 21.2101 11.9674L21.1523 12.9657ZM25.1644 13.1971C25.8222 13.235 26.4745 13.2724 27.1215 13.3096L27.1787 12.3112C26.5318 12.2741 25.8796 12.2366 25.2219 12.1988L25.1644 13.1971ZM29.1331 13.4249C29.8272 13.4646 30.5149 13.5039 31.1964 13.5429L31.2535 12.5445C30.572 12.5055 29.8843 12.4662 29.1903 12.4265L29.1331 13.4249ZM33.2222 13.6585C33.8913 13.6966 34.5542 13.7344 35.211 13.7718L35.2678 12.7734C34.6111 12.736 33.9482 12.6982 33.2792 12.6601L33.2222 13.6585ZM37.1631 13.8829C37.8487 13.9219 38.5274 13.9605 39.1995 13.9987L39.2562 13.0003C38.5842 12.9621 37.9054 12.9235 37.2199 12.8845L37.1631 13.8829ZM41.2532 14.1154C41.9308 14.1539 42.6013 14.192 43.2649 14.2298L43.3216 13.2314C42.658 13.1937 41.9875 13.1555 41.31 13.117L41.2532 14.1154ZM45.2349 14.3418C45.9014 14.3798 46.5607 14.4173 47.213 14.4545L47.2699 13.4561C46.6176 13.4189 45.9583 13.3814 45.2918 13.3434L45.2349 14.3418ZM49.2824 14.5726C49.9643 14.6115 50.6381 14.6501 51.3041 14.6883L51.3614 13.6899C50.6953 13.6517 50.0214 13.6132 49.3395 13.5742L49.2824 14.5726ZM53.2788 14.8017C53.9453 14.8401 54.6037 14.8781 55.2542 14.9157L55.312 13.9174C54.6614 13.8797 54.0029 13.8417 53.3363 13.8034L53.2788 14.8017ZM57.3221 15.0358C58.0024 15.0754 58.6736 15.1147 59.3361 15.1536L59.3947 14.1553C58.7321 14.1164 58.0607 14.0771 57.3803 14.0375L57.3221 15.0358ZM61.2973 15.2693C61.9817 15.3099 62.6563 15.3501 63.3215 15.39L63.3813 14.3917C62.7159 14.3518 62.041 14.3116 61.3564 14.271L61.2973 15.2693ZM65.3647 15.5133C66.0356 15.5541 66.6966 15.5945 67.3477 15.6347L67.4093 14.6366C66.7578 14.5964 66.0966 14.5559 65.4254 14.5151L65.3647 15.5133ZM69.328 15.758C70.0254 15.8018 70.7111 15.8453 71.3854 15.8886L71.4495 14.8907C70.7746 14.8474 70.0885 14.8038 69.3907 14.76L69.328 15.758ZM73.3746 16.0178C74.0464 16.062 74.7065 16.1059 75.3551 16.1497L75.4225 15.152C74.7732 15.1082 74.1126 15.0642 73.4402 15.02L73.3746 16.0178ZM77.406 16.2904C78.0768 16.3372 78.7348 16.3839 79.3806 16.4306L79.4527 15.4332C78.806 15.3864 78.1471 15.3397 77.4756 15.2929L77.406 16.2904ZM81.3972 16.5792C82.0842 16.6309 82.7566 16.6826 83.415 16.7345L83.4936 15.7376C82.8339 15.6856 82.1603 15.6338 81.4723 15.582L81.3972 16.5792ZM85.3761 16.8929C86.0747 16.9508 86.757 17.009 87.4236 17.0676L87.5112 16.0714C86.8428 16.0127 86.1588 15.9543 85.4587 15.8963L85.3761 16.8929ZM89.3778 17.2448C90.0763 17.3102 90.757 17.3763 91.4209 17.4432L91.5212 16.4482C90.8547 16.3811 90.1717 16.3148 89.4711 16.2492L89.3778 17.2448ZM93.3775 17.648C94.0735 17.7238 94.7504 17.8008 95.4096 17.8792L95.5278 16.8862C94.8651 16.8074 94.1848 16.73 93.4857 16.6539L93.3775 17.648ZM97.3691 18.1234C98.0584 18.2134 98.7279 18.3054 99.3795 18.3998L99.5228 17.4101C98.8664 17.3151 98.1923 17.2224 97.4986 17.1318L97.3691 18.1234ZM101.356 18.702C102.026 18.8102 102.677 18.9214 103.311 19.0361L103.489 18.0521C102.848 17.9362 102.191 17.8239 101.515 17.7148L101.356 18.702ZM105.294 19.4167C105.96 19.5524 106.61 19.6929 107.246 19.8388L107.469 18.864C106.825 18.7163 106.168 18.5741 105.493 18.4368L105.294 19.4167ZM109.18 20.3089C109.832 20.4769 110.473 20.6515 111.107 20.8335L111.383 19.8724C110.741 19.6878 110.091 19.5107 109.429 19.3404L109.18 20.3089ZM113.021 21.4121C113.654 21.613 114.284 21.8223 114.915 22.0406L115.242 21.0956C114.603 20.8746 113.965 20.6626 113.324 20.459L113.021 21.4121ZM116.795 22.7165C117.415 22.9471 118.039 23.1868 118.672 23.4364L119.039 22.5062C118.4 22.2544 117.77 22.0123 117.144 21.7793L116.795 22.7165ZM120.523 24.1839C121.126 24.4321 121.738 24.6892 122.365 24.9558L122.756 24.0357C122.127 23.7678 121.511 23.5092 120.904 23.2593L120.523 24.1839ZM124.217 25.7536C124.816 26.0143 125.429 26.2833 126.058 26.5608L126.462 25.646C125.832 25.3679 125.217 25.0982 124.616 24.8367L124.217 25.7536ZM127.882 27.3695C128.489 27.6395 129.111 27.917 129.75 28.2023L130.157 27.2892C129.518 27.0038 128.896 26.7261 128.288 26.4559L127.882 27.3695ZM131.554 29.0079C132.159 29.278 132.779 29.5547 133.416 29.8381L133.822 28.9245C133.186 28.6413 132.566 28.3648 131.961 28.0948L131.554 29.0079ZM135.23 30.644C135.839 30.9137 136.462 31.1891 137.101 31.4705L137.504 30.5553C136.866 30.2743 136.243 29.9991 135.635 29.7297L135.23 30.644ZM138.912 32.2652C139.529 32.5352 140.16 32.8104 140.807 33.091L141.205 32.1736C140.56 31.8935 139.929 31.6187 139.312 31.349L138.912 32.2652ZM142.606 33.8687C143.216 34.1315 143.839 34.3988 144.476 34.6706L144.868 33.7509C144.233 33.4795 143.611 33.2127 143.001 32.9503L142.606 33.8687ZM146.329 35.4587C146.928 35.7126 147.539 35.9703 148.162 36.2318L148.549 35.3098C147.928 35.0487 147.318 34.7914 146.719 34.5379L146.329 35.4587ZM150.066 37.028C150.664 37.277 151.273 37.5294 151.892 37.7851L152.274 36.8609C151.655 36.6055 151.048 36.3535 150.45 36.1048L150.066 37.028ZM153.743 38.5465C154.371 38.8037 155.009 39.0641 155.658 39.3279L156.035 38.4014C155.386 38.138 154.749 37.8779 154.122 37.6212L153.743 38.5465ZM157.489 40.0687C158.096 40.3136 158.713 40.5614 159.339 40.8119L159.711 39.8835C159.085 39.6332 158.469 39.3858 157.863 39.1413L157.489 40.0687ZM161.247 41.5722C161.57 41.7004 161.895 41.8293 162.223 41.9589L162.59 41.029C162.263 40.8995 161.938 40.7708 161.616 40.6428L161.247 41.5722ZM951.926 42C951.926 44.9455 954.314 47.3333 957.26 47.3333C960.205 47.3333 962.593 44.9455 962.593 42C962.593 39.0545 960.205 36.6667 957.26 36.6667C954.314 36.6667 951.926 39.0545 951.926 42ZM1091.67 6.0001C1091.67 8.94562 1094.05 11.3334 1097 11.3334C1099.95 11.3334 1102.33 8.94562 1102.33 6.0001C1102.33 3.05458 1099.95 0.666763 1097 0.666763C1094.05 0.666763 1091.67 3.05458 1091.67 6.0001ZM663.472 6.00018C663.472 8.9457 665.859 11.3335 668.805 11.3335C671.75 11.3335 674.138 8.9457 674.138 6.00018C674.138 3.05466 671.75 0.666847 668.805 0.666847C665.859 0.666847 663.472 3.05466 663.472 6.00018ZM824.202 35.0098L823.533 35.7539L823.534 35.7539L824.202 35.0098ZM819.878 35.9166C819.878 38.8621 822.266 41.2499 825.212 41.2499C828.157 41.2499 830.545 38.8621 830.545 35.9166C830.545 32.971 828.157 30.5832 825.212 30.5832C822.266 30.5832 819.878 32.971 819.878 35.9166ZM313.48 35.9165C313.48 38.862 315.868 41.2498 318.813 41.2498C321.759 41.2498 324.147 38.862 324.147 35.9165C324.147 32.971 321.759 30.5832 318.813 30.5832C315.868 30.5832 313.48 32.971 313.48 35.9165ZM458.348 6C458.348 8.94552 460.736 11.3333 463.682 11.3333C466.627 11.3333 469.015 8.94552 469.015 6C469.015 3.05448 466.627 0.666667 463.682 0.666667C460.736 0.666667 458.348 3.05448 458.348 6ZM0.666667 11.5775C0.666667 14.5231 3.05448 16.9109 6 16.9109C8.94552 16.9109 11.3333 14.5231 11.3333 11.5775C11.3333 8.63201 8.94552 6.2442 6 6.2442C3.05448 6.2442 0.666667 8.63201 0.666667 11.5775ZM157.073 41.4939C157.073 44.4394 159.461 46.8272 162.407 46.8272C165.352 46.8272 167.74 44.4394 167.74 41.4939C167.74 38.5484 165.352 36.1606 162.407 36.1606C159.461 36.1606 157.073 38.5484 157.073 41.4939ZM957.831 42.8209C958.109 42.6276 958.385 42.4355 958.66 42.2446L957.52 40.6017C957.244 40.7929 956.967 40.9854 956.689 41.1791L957.831 42.8209ZM960.293 41.1138C960.841 40.7346 961.384 40.3605 961.922 39.9912L960.789 38.3426C960.25 38.7131 959.706 39.0883 959.156 39.4684L960.293 41.1138ZM963.561 38.8693C964.112 38.4938 964.657 38.1236 965.197 37.7586L964.078 36.1014C963.535 36.4681 962.987 36.8399 962.434 37.2168L963.561 38.8693ZM966.843 36.6526C967.397 36.2821 967.947 35.9171 968.492 35.5575L967.39 33.8882C966.842 34.25 966.289 34.6172 965.732 34.9898L966.843 36.6526ZM970.145 34.4749C970.704 34.1113 971.259 33.7534 971.811 33.4013L970.734 31.7157C970.178 32.0709 969.618 32.4316 969.055 32.798L970.145 34.4749ZM973.473 32.3497C974.039 31.9956 974.601 31.6474 975.161 31.305L974.117 29.5991C973.551 29.9452 972.983 30.297 972.412 30.6546L973.473 32.3497ZM976.844 30.2879C977.414 29.9476 977.982 29.6134 978.549 29.285L977.546 27.5546C976.972 27.8874 976.396 28.2259 975.819 28.5703L976.844 30.2879ZM980.26 28.3085C980.836 27.9856 981.41 27.6687 981.984 27.3575L981.031 25.5993C980.448 25.9153 979.865 26.237 979.281 26.5645L980.26 28.3085ZM983.725 26.4313C984.308 26.1273 984.891 25.829 985.476 25.5363L984.58 23.7478C983.985 24.0457 983.392 24.3491 982.8 24.6581L983.725 26.4313ZM987.244 24.6703C987.835 24.3872 988.428 24.1095 989.025 23.8371L988.194 22.0179C987.586 22.2954 986.982 22.5782 986.38 22.8664L987.244 24.6703ZM990.823 23.0356C991.422 22.7755 992.024 22.5203 992.631 22.27L991.869 20.4211C991.25 20.6762 990.636 20.9362 990.026 21.2013L990.823 23.0356ZM994.457 21.5368C995.065 21.2994 995.678 21.0664 996.297 20.8378L995.603 18.9618C994.973 19.1947 994.349 19.432 993.729 19.6739L994.457 21.5368ZM998.144 20.1742C998.762 19.9586 999.386 19.7469 1000.02 19.5391L999.392 17.6394C998.75 17.8509 998.114 18.0663 997.485 18.2859L998.144 20.1742ZM1001.88 18.9432C1002.5 18.7498 1003.13 18.5598 1003.77 18.3731L1003.21 16.4535C1002.56 16.6433 1001.92 16.8365 1001.29 17.0332L1001.88 18.9432ZM1005.66 17.836C1006.29 17.6631 1006.92 17.493 1007.57 17.3258L1007.06 15.3902C1006.41 15.5599 1005.77 15.7325 1005.13 15.908L1005.66 17.836ZM1009.48 16.8424C1010.11 16.6878 1010.75 16.5356 1011.4 16.3857L1010.94 14.4373C1010.29 14.5891 1009.64 14.7433 1009 14.9L1009.48 16.8424ZM1013.33 15.9508C1013.96 15.8122 1014.6 15.6756 1015.25 15.5409L1014.84 13.5825C1014.19 13.7187 1013.54 13.8568 1012.9 13.9971L1013.33 15.9508ZM1017.19 15.1494C1017.83 15.0245 1018.47 14.9012 1019.13 14.7795L1018.76 12.8132C1018.1 12.9361 1017.45 13.0606 1016.81 13.1869L1017.19 15.1494ZM1021.07 14.4266C1021.72 14.313 1022.37 14.2009 1023.03 14.0901L1022.69 12.1178C1022.03 12.2295 1021.37 12.3425 1020.73 12.4571L1021.07 14.4266ZM1024.97 13.7713C1025.62 13.6672 1026.28 13.5642 1026.94 13.4624L1026.64 11.4854C1025.97 11.5879 1025.31 11.6915 1024.65 11.7964L1024.97 13.7713ZM1028.88 13.1736C1029.53 13.0784 1030.19 12.9841 1030.86 12.8907L1030.58 10.9099C1029.91 11.0039 1029.25 11.0987 1028.59 11.1946L1028.88 13.1736ZM1032.8 12.6249C1033.45 12.5382 1034.1 12.4524 1034.77 12.3672L1034.51 10.3835C1033.85 10.4691 1033.19 10.5554 1032.54 10.6426L1032.8 12.6249ZM1036.75 12.1173C1037.39 12.0382 1038.04 11.9597 1038.69 11.8818L1038.46 9.89585C1037.8 9.97408 1037.15 10.0529 1036.51 10.1324L1036.75 12.1173ZM1040.68 11.6498C1041.33 11.5755 1041.98 11.5016 1042.64 11.4283L1042.42 9.44043C1041.76 9.51408 1041.1 9.58822 1040.45 9.66288L1040.68 11.6498ZM1044.6 11.2151C1045.26 11.1444 1045.93 11.0742 1046.6 11.0044L1046.39 9.01509C1045.72 9.08514 1045.05 9.15559 1044.39 9.22647L1044.6 11.2151ZM1048.55 10.8045C1049.2 10.7393 1049.86 10.6744 1050.52 10.6098L1050.32 8.61931C1049.66 8.68408 1049 8.74916 1048.35 8.81456L1048.55 10.8045ZM1052.52 10.4169C1053.17 10.3554 1053.82 10.2942 1054.48 10.2332L1054.29 8.24173C1053.63 8.30287 1052.98 8.36425 1052.33 8.42587L1052.52 10.4169ZM1056.44 10.054C1057.1 9.99445 1057.77 9.9351 1058.44 9.87592L1058.26 7.88362C1057.59 7.94293 1056.92 8.00241 1056.26 8.06208L1056.44 10.054ZM1060.41 9.70404C1061.06 9.64849 1061.71 9.59307 1062.37 9.53777L1062.2 7.54482C1061.54 7.60022 1060.89 7.65574 1060.24 7.7114L1060.41 9.70404ZM1064.36 9.37219C1065.02 9.31753 1065.69 9.26295 1066.36 9.20846L1066.2 7.21494C1065.53 7.26953 1064.86 7.32419 1064.19 7.37895L1064.36 9.37219ZM1068.31 9.05313C1068.96 9.00141 1069.62 8.94975 1070.28 8.89812L1070.12 6.90415C1069.46 6.95585 1068.8 7.00759 1068.15 7.05938L1068.31 9.05313ZM1072.29 8.74334C1072.94 8.69336 1073.6 8.64341 1074.26 8.59346L1074.11 6.5991C1073.45 6.64911 1072.79 6.69913 1072.13 6.74916L1072.29 8.74334ZM1076.22 8.44745C1076.87 8.39878 1077.53 8.3501 1078.2 8.30139L1078.05 6.30671C1077.39 6.35546 1076.72 6.4042 1076.07 6.45292L1076.22 8.44745ZM1080.21 8.15521C1080.86 8.1085 1081.52 8.06176 1082.17 8.01498L1082.03 6.02002C1081.37 6.06685 1080.72 6.11363 1080.07 6.16038L1080.21 8.15521ZM1084.13 7.87642C1084.79 7.83018 1085.45 7.78389 1086.12 7.73754L1085.98 5.74235C1085.31 5.78874 1084.65 5.83507 1083.99 5.88134L1084.13 7.87642ZM1088.14 7.59828C1088.79 7.55368 1089.44 7.50901 1090.1 7.46426L1089.96 5.46887C1089.3 5.51365 1088.65 5.55835 1088 5.60298L1088.14 7.59828ZM1092.06 7.33171C1092.71 7.28744 1093.37 7.24309 1094.04 7.19864L1093.91 5.20308C1093.24 5.24756 1092.58 5.29194 1091.92 5.33623L1092.06 7.33171ZM1096.05 7.065C1096.39 7.04267 1096.73 7.02031 1097.07 6.99793L1096.93 5.00226C1096.59 5.02466 1096.26 5.04702 1095.92 5.06936L1096.05 7.065ZM668.805 7.00018C669.147 7.00018 669.489 7.00018 669.829 7.00018V5.00018C669.489 5.00018 669.147 5.00018 668.805 5.00018V7.00018ZM671.861 7.0002C672.534 7.00022 673.204 7.00024 673.87 7.00027L673.87 5.00027C673.204 5.00024 672.534 5.00021 671.861 5.0002L671.861 7.0002ZM675.857 7.00041C676.515 7.00047 677.17 7.00055 677.821 7.00065L677.821 5.00065C677.17 5.00055 676.515 5.00047 675.857 5.00041L675.857 7.00041ZM679.763 7.00103C680.444 7.00119 681.121 7.00139 681.794 7.00161L681.795 5.00161C681.122 5.00139 680.445 5.00119 679.763 5.00103L679.763 7.00103ZM683.816 7.00242C684.486 7.00273 685.151 7.00309 685.813 7.00349L685.814 5.00349C685.152 5.00309 684.487 5.00274 683.817 5.00242L683.816 7.00242ZM687.785 7.00486C688.439 7.00537 689.088 7.00593 689.733 7.00656L689.735 5.00656C689.09 5.00593 688.44 5.00537 687.787 5.00486L687.785 7.00486ZM691.737 7.00872C692.417 7.00953 693.093 7.01041 693.764 7.01139L693.767 5.01139C693.096 5.01042 692.42 5.00953 691.739 5.00872L691.737 7.00872ZM695.764 7.01457C696.426 7.01572 697.084 7.01696 697.737 7.0183L697.742 5.0183C697.088 5.01696 696.43 5.01572 695.768 5.01457L695.764 7.01457ZM699.684 7.02263C700.359 7.02424 701.029 7.02598 701.695 7.02784L701.7 5.02785C701.035 5.02599 700.364 5.02425 699.689 5.02263L699.684 7.02263ZM703.718 7.03395C704.388 7.03612 705.052 7.03843 705.712 7.04089L705.72 5.0409C705.06 5.03844 704.394 5.03613 703.725 5.03396L703.718 7.03395ZM707.677 7.04872C708.33 7.0515 708.979 7.05444 709.622 7.05755L709.632 5.05757C708.988 5.05446 708.339 5.05152 707.686 5.04874L707.677 7.04872ZM711.663 7.06806C712.339 7.07177 713.008 7.07567 713.672 7.07979L713.685 5.07983C713.02 5.07571 712.35 5.0718 711.674 5.06809L711.663 7.06806ZM715.65 7.0928C716.303 7.09736 716.952 7.10214 717.595 7.10716L717.611 5.10722C716.967 5.1022 716.318 5.09741 715.663 5.09285L715.65 7.0928ZM719.612 7.12382C720.29 7.12975 720.962 7.13595 721.629 7.14246L721.648 5.14256C720.981 5.13604 720.308 5.12983 719.63 5.1239L719.612 7.12382ZM723.61 7.16288C724.264 7.17 724.913 7.17742 725.556 7.18517L725.58 5.18532C724.936 5.17756 724.287 5.17012 723.631 5.163L723.61 7.16288ZM727.571 7.21077C728.248 7.21985 728.92 7.22931 729.584 7.23918L729.614 5.2394C728.948 5.22951 728.276 5.22004 727.598 5.21095L727.571 7.21077ZM731.56 7.27003C732.212 7.28073 732.858 7.29186 733.497 7.30343L733.533 5.30376C732.893 5.29217 732.246 5.28102 731.593 5.2703L731.56 7.27003ZM735.537 7.34226C736.21 7.35574 736.876 7.36974 737.536 7.3843L737.58 5.38479C736.919 5.3702 736.252 5.35616 735.577 5.34266L735.537 7.34226ZM739.493 7.42966C740.163 7.44595 740.826 7.46285 741.482 7.4804L741.535 5.48112C740.878 5.46352 740.213 5.44657 739.541 5.43025L739.493 7.42966ZM743.497 7.53705C744.161 7.55663 744.818 7.57694 745.466 7.59798L745.531 5.59903C744.88 5.57792 744.222 5.55756 743.556 5.53792L743.497 7.53705ZM747.43 7.66477C748.113 7.68909 748.787 7.71431 749.453 7.74045L749.531 5.74199C748.863 5.71575 748.186 5.69045 747.501 5.66604L747.43 7.66477ZM751.424 7.82166C752.087 7.85026 752.741 7.87986 753.387 7.91049L753.481 5.91273C752.833 5.88197 752.176 5.85224 751.511 5.82352L751.424 7.82166ZM755.404 8.01099C756.067 8.04566 756.721 8.08152 757.366 8.11861L757.481 6.1219C756.832 6.08461 756.175 6.04856 755.508 6.01371L755.404 8.01099ZM759.346 8.23811C760.022 8.2809 760.688 8.32517 761.344 8.37097L761.484 6.37582C760.823 6.32972 760.153 6.28516 759.473 6.24211L759.346 8.23811ZM763.283 8.51297C763.964 8.56532 764.635 8.61947 765.295 8.67549L765.464 6.68266C764.798 6.62617 764.123 6.57159 763.436 6.51884L763.283 8.51297ZM767.256 8.85049C767.924 8.91313 768.582 8.97788 769.228 9.0448L769.434 7.05544C768.781 6.98782 768.117 6.92243 767.443 6.85921L767.256 8.85049ZM771.203 9.26003C771.864 9.33578 772.513 9.41405 773.15 9.49492L773.402 7.51082C772.756 7.4289 772.099 7.34967 771.43 7.27304L771.203 9.26003ZM775.127 9.75909C775.784 9.85157 776.428 9.94711 777.061 10.0458L777.369 8.06975C776.726 7.96943 776.072 7.87243 775.405 7.77861L775.127 9.75909ZM779.025 10.3692C779.68 10.4829 780.322 10.6003 780.951 10.7217L781.33 8.75789C780.688 8.63407 780.034 8.51437 779.367 8.39866L779.025 10.3692ZM782.889 11.1161C783.541 11.2561 784.18 11.4009 784.806 11.5505L785.271 9.6053C784.629 9.45197 783.976 9.3038 783.309 9.16062L782.889 11.1161ZM786.702 12.0288C787.348 12.2008 787.981 12.3786 788.601 12.5624L789.169 10.6449C788.531 10.4556 787.88 10.2727 787.216 10.0961L786.702 12.0288ZM790.461 13.1436C791.091 13.3511 791.708 13.5656 792.314 13.7872L793.001 11.9089C792.375 11.6797 791.737 11.4581 791.086 11.244L790.461 13.1436ZM794.141 14.4905C794.749 14.7366 795.346 14.9907 795.934 15.2532L796.749 13.4269C796.14 13.1548 795.521 12.8915 794.892 12.6367L794.141 14.4905ZM797.706 16.0825C798.293 16.3702 798.872 16.6671 799.444 16.9736L800.388 15.2102C799.795 14.8927 799.194 14.5849 798.586 14.2866L797.706 16.0825ZM801.151 17.925C801.714 18.2518 802.273 18.5886 802.829 18.9358L803.888 17.2395C803.315 16.8812 802.737 16.5331 802.154 16.1951L801.151 17.925ZM804.471 19.9971C805.011 20.3572 805.55 20.7276 806.089 21.1087L807.243 19.4756C806.691 19.0847 806.137 18.704 805.581 18.3334L804.471 19.9971ZM807.686 22.2674C808.204 22.6525 808.723 23.0476 809.245 23.453L810.472 21.873C809.939 21.4597 809.409 21.0563 808.879 20.6625L807.686 22.2674ZM810.795 24.6776C811.302 25.0856 811.813 25.5032 812.329 25.9308L813.605 24.3906C813.082 23.9575 812.563 23.5337 812.048 23.1192L810.795 24.6776ZM813.836 27.1948C814.336 27.6186 814.841 28.0515 815.353 28.4938L816.66 26.9806C816.145 26.5348 815.635 26.0978 815.13 25.6695L813.836 27.1948ZM816.836 29.7857C817.328 30.2164 817.826 30.6554 818.331 31.1028L819.657 29.6056C819.15 29.1563 818.649 28.715 818.155 28.2816L816.836 29.7857ZM819.812 32.4197C820.299 32.854 820.793 33.2958 821.295 33.7453L822.629 32.2556C822.127 31.8055 821.632 31.3627 821.143 30.9272L819.812 32.4197ZM822.776 35.0735C823.026 35.2985 823.279 35.5253 823.533 35.7539L824.87 34.2657C824.615 34.0371 824.362 33.8102 824.112 33.5851L822.776 35.0735ZM823.534 35.7539L823.786 35.9806L825.122 34.4924L824.87 34.2657L823.534 35.7539ZM824.291 36.434L824.544 36.6607L825.88 35.1724L825.627 34.9458L824.291 36.434ZM319.357 36.7556C319.645 36.5689 319.931 36.3834 320.216 36.199L319.128 34.5208C318.843 34.7052 318.557 34.8907 318.269 35.0774L319.357 36.7556ZM321.9 35.1066C322.455 34.7471 323.002 34.3923 323.543 34.0419L322.456 32.3634C321.915 32.7139 321.367 33.069 320.812 33.4285L321.9 35.1066ZM325.247 32.9387C325.808 32.576 326.361 32.2184 326.908 31.8658L325.824 30.1852C325.276 30.5383 324.722 30.8964 324.161 31.2594L325.247 32.9387ZM328.592 30.7815C329.157 30.4178 329.716 30.0597 330.267 29.7071L329.19 28.0221C328.637 28.3756 328.077 28.7346 327.51 29.099L328.592 30.7815ZM331.943 28.6392C332.513 28.2773 333.076 27.9214 333.631 27.5716L332.566 25.8791C332.008 26.2305 331.443 26.5877 330.871 26.9509L331.943 28.6392ZM335.31 26.5201C335.883 26.1632 336.448 25.8128 337.008 25.4689L335.96 23.7653C335.397 24.1114 334.828 24.4638 334.252 24.8226L335.31 26.5201ZM338.698 24.4372C339.274 24.0889 339.842 23.7476 340.405 23.4132L339.383 21.6938C338.816 22.0312 338.242 22.3753 337.662 22.7263L338.698 24.4372ZM342.115 22.408C342.693 22.0723 343.265 21.744 343.832 21.4229L342.846 19.6826C342.272 20.0075 341.694 20.3395 341.11 20.6788L342.115 22.408ZM345.567 20.4544C346.148 20.1354 346.724 19.824 347.297 19.5201L346.359 17.7535C345.778 18.0621 345.193 18.3781 344.604 18.7015L345.567 20.4544ZM349.063 18.6013C349.653 18.3002 350.241 18.007 350.827 17.7216L349.951 15.9237C349.354 16.2146 348.755 16.5131 348.154 16.8195L349.063 18.6013ZM352.611 16.8738C353.211 16.5957 353.811 16.3255 354.411 16.0631L353.609 14.2308C352.996 14.4991 352.383 14.7751 351.77 15.059L352.611 16.8738ZM356.223 15.2941C356.832 15.0437 357.442 14.801 358.055 14.5656L357.339 12.6985C356.711 12.9395 356.086 13.1881 355.462 13.4443L356.223 15.2941ZM359.901 13.8823C360.519 13.662 361.141 13.4488 361.768 13.2424L361.142 11.3427C360.5 11.5542 359.863 11.7727 359.23 11.9985L359.901 13.8823ZM363.642 12.6504C364.267 12.4612 364.897 12.2783 365.535 12.1015L365.001 10.1742C364.348 10.3551 363.702 10.5424 363.062 10.7362L363.642 12.6504ZM367.443 11.5965C368.072 11.4376 368.709 11.2841 369.354 11.1359L368.906 9.18663C368.247 9.33801 367.596 9.49488 366.953 9.65744L367.443 11.5965ZM371.297 10.7111C371.928 10.5798 372.568 10.453 373.218 10.3308L372.848 8.3653C372.186 8.48984 371.534 8.619 370.889 8.75298L371.297 10.7111ZM375.172 9.98134C375.811 9.87294 376.459 9.76846 377.117 9.66776L376.815 7.69077C376.146 7.79306 375.487 7.89927 374.838 8.00954L375.172 9.98134ZM379.079 9.38285C379.723 9.29421 380.377 9.20885 381.041 9.12665L380.795 7.1418C380.122 7.22508 379.46 7.31161 378.807 7.40153L379.079 9.38285ZM383.01 8.89544C383.657 8.82354 384.313 8.75435 384.98 8.68778L384.781 6.69768C384.108 6.76497 383.444 6.83494 382.789 6.9077L383.01 8.89544ZM386.961 8.50034C387.607 8.44242 388.263 8.38674 388.929 8.33319L388.769 6.33962C388.097 6.39364 387.435 6.44984 386.782 6.50831L386.961 8.50034ZM390.929 8.18097C391.573 8.13463 392.226 8.09011 392.888 8.04732L392.759 6.05148C392.092 6.09457 391.434 6.13943 390.786 6.18614L390.929 8.18097ZM394.904 7.92413C395.547 7.88701 396.199 7.85137 396.859 7.81716L396.756 5.81983C396.091 5.85424 395.436 5.89009 394.789 5.92746L394.904 7.92413ZM398.854 7.71944C399.511 7.68905 400.176 7.65995 400.851 7.63206L400.768 5.63377C400.091 5.66178 399.422 5.69103 398.762 5.72158L398.854 7.71944ZM402.818 7.55512C403.482 7.53057 404.155 7.5071 404.837 7.48467L404.771 5.48575C404.087 5.50827 403.411 5.53183 402.744 5.55648L402.818 7.55512ZM406.807 7.42341C407.46 7.40426 408.121 7.38597 408.789 7.36851L408.737 5.36919C408.066 5.3867 407.404 5.40505 406.749 5.42427L406.807 7.42341ZM410.82 7.31857C411.465 7.30364 412.117 7.28941 412.777 7.27585L412.736 5.27627C412.075 5.28987 411.42 5.30413 410.773 5.3191L410.82 7.31857ZM414.763 7.23744C415.433 7.22527 416.11 7.21372 416.794 7.20277L416.762 5.20302C416.076 5.214 415.398 5.22557 414.727 5.23777L414.763 7.23744ZM418.757 7.17325C419.411 7.16404 420.071 7.15531 420.738 7.14705L420.713 5.1472C420.045 5.15548 419.384 5.16422 418.729 5.17345L418.757 7.17325ZM422.76 7.12363C423.416 7.11654 424.079 7.10985 424.749 7.10355L424.73 5.10364C424.06 5.10995 423.396 5.11664 422.738 5.12375L422.76 7.12363ZM426.716 7.08628C427.378 7.08086 428.047 7.07579 428.722 7.07104L428.708 5.07109C428.032 5.07585 427.363 5.08092 426.7 5.08634L426.716 7.08628ZM430.759 7.05775C431.403 7.05388 432.052 7.05027 432.707 7.0469L432.697 5.04692C432.041 5.0503 431.391 5.05391 430.747 5.05779L430.759 7.05775ZM434.69 7.03749C435.357 7.03459 436.03 7.03191 436.709 7.02944L436.702 5.02945C436.023 5.03192 435.349 5.03461 434.682 5.03751L434.69 7.03749ZM438.723 7.02276C439.369 7.02081 440.021 7.01903 440.679 7.0174L440.674 5.0174C440.016 5.01903 439.364 5.02082 438.717 5.02276L438.723 7.02276ZM442.667 7.01295C443.336 7.01162 444.01 7.01042 444.689 7.00934L444.686 5.00934C444.006 5.01042 443.332 5.01162 442.663 5.01296L442.667 7.01295ZM446.703 7.00652C447.349 7.00573 448.001 7.00503 448.658 7.00442L448.656 5.00442C447.999 5.00503 447.347 5.00573 446.7 5.00652L446.703 7.00652ZM450.643 7.00282C451.31 7.00237 451.982 7.00199 452.659 7.00167L452.658 5.00167C451.981 5.00199 451.309 5.00237 450.642 5.00283L450.643 7.00282ZM454.699 7.00088C455.344 7.00069 455.993 7.00054 456.646 7.00042L456.646 5.00042C455.992 5.00054 455.343 5.00069 454.699 5.00088L454.699 7.00088ZM458.621 7.00015C459.284 7.00009 459.952 7.00005 460.624 7.00003L460.624 5.00003C459.952 5.00005 459.284 5.00009 458.621 5.00015L458.621 7.00015ZM462.655 7C462.996 7 463.338 7 463.682 7V5C463.338 5 462.996 5 462.655 5L462.655 7ZM5.94077 12.5758C6.29005 12.5965 6.63808 12.6171 6.98485 12.6377L7.10308 10.6412C6.75638 10.6206 6.40843 10.6 6.05923 10.5793L5.94077 12.5758ZM9.05053 12.7598C9.73411 12.8001 10.4127 12.8401 11.0865 12.8797L11.2038 10.8831C10.5303 10.8435 9.85177 10.8036 9.16833 10.7632L9.05053 12.7598ZM13.0929 12.9974C13.7569 13.0363 14.4159 13.0749 15.0702 13.1131L15.1868 11.1165C14.5327 11.0783 13.8737 11.0398 13.2099 11.0009L13.0929 12.9974ZM17.0185 13.2267C17.707 13.2668 18.39 13.3065 19.0676 13.3458L19.1834 11.3491C18.5059 11.3098 17.8231 11.2701 17.1348 11.2301L17.0185 13.2267ZM21.1234 13.4649C21.8032 13.5042 22.4774 13.5431 23.146 13.5817L23.2612 11.585C22.5926 11.5465 21.9186 11.5075 21.2389 11.4682L21.1234 13.4649ZM25.1357 13.6963C25.7935 13.7341 26.4458 13.7716 27.0928 13.8087L27.2074 11.812C26.5605 11.7749 25.9083 11.7374 25.2506 11.6996L25.1357 13.6963ZM29.1045 13.924C29.7986 13.9638 30.4864 14.0031 31.1679 14.042L31.282 12.0453C30.6006 12.0064 29.9129 11.967 29.2189 11.9273L29.1045 13.924ZM33.1938 14.1577C33.8629 14.1958 34.5257 14.2336 35.1825 14.271L35.2962 12.2742C34.6395 12.2368 33.9767 12.1991 33.3076 12.1609L33.1938 14.1577ZM37.1347 14.3821C37.8203 14.4211 38.4991 14.4597 39.1711 14.4979L39.2846 12.5011C38.6126 12.4629 37.9338 12.4243 37.2483 12.3853L37.1347 14.3821ZM41.2249 14.6146C41.9024 14.6531 42.5729 14.6912 43.2365 14.729L43.35 12.7322C42.6864 12.6945 42.0159 12.6564 41.3384 12.6178L41.2249 14.6146ZM45.2065 14.841C45.873 14.8789 46.5323 14.9165 47.1845 14.9537L47.2983 12.9569C46.646 12.9197 45.9867 12.8822 45.3202 12.8443L45.2065 14.841ZM49.2539 15.0718C49.9357 15.1107 50.6095 15.1493 51.2755 15.1875L51.39 13.1907C50.7239 13.1525 50.0499 13.114 49.368 13.075L49.2539 15.0718ZM53.2501 15.3009C53.9165 15.3392 54.5749 15.3772 55.2253 15.4149L55.3408 13.4182C54.6902 13.3806 54.0317 13.3426 53.365 13.3042L53.2501 15.3009ZM57.293 15.5349C57.9732 15.5746 58.6444 15.6138 59.3068 15.6527L59.4241 13.6562C58.7613 13.6172 58.0898 13.578 57.4093 13.5383L57.293 15.5349ZM61.2677 15.7684C61.952 15.809 62.6265 15.8492 63.2915 15.8891L63.4113 13.8926C62.7457 13.8527 62.0707 13.8125 61.386 13.7719L61.2677 15.7684ZM65.3344 16.0124C66.0052 16.0531 66.6659 16.0936 67.3169 16.1338L67.4401 14.1376C66.7885 14.0973 66.1271 14.0568 65.4557 14.016L65.3344 16.0124ZM69.2967 16.257C69.9938 16.3008 70.6793 16.3443 71.3534 16.3876L71.4815 14.3917C70.8064 14.3484 70.1201 14.3048 69.4221 14.261L69.2967 16.257ZM73.3419 16.5167C74.0133 16.5609 74.6731 16.6048 75.3214 16.6486L75.4562 14.6531C74.8066 14.6093 74.1456 14.5653 73.473 14.521L73.3419 16.5167ZM77.3712 16.7892C78.0416 16.836 78.6992 16.8826 79.3446 16.9293L79.4887 14.9345C78.8416 14.8877 78.1823 14.8409 77.5103 14.7941L77.3712 16.7892ZM81.3597 17.0778C82.0461 17.1294 82.7179 17.1811 83.3758 17.233L83.5329 15.2391C82.8725 15.1871 82.1983 15.1352 81.5098 15.0834L81.3597 17.0778ZM85.3348 17.3912C86.0326 17.449 86.714 17.5071 87.3799 17.5657L87.555 15.5734C86.8857 15.5145 86.2009 15.4561 85.5 15.398L85.3348 17.3912ZM89.3312 17.7427C90.0286 17.8079 90.7081 17.8739 91.3708 17.9407L91.5713 15.9507C90.9036 15.8835 90.2194 15.8171 89.5177 15.7514L89.3312 17.7427ZM93.3234 18.1451C94.0178 18.2207 94.6931 18.2975 95.3506 18.3757L95.5868 16.3897C94.9224 16.3107 94.2405 16.2331 93.5399 16.1568L93.3234 18.1451ZM97.3044 18.6192C97.9915 18.7089 98.6587 18.8006 99.3078 18.8946L99.5945 16.9153C98.9356 16.8199 98.2592 16.7269 97.5634 16.636L97.3044 18.6192ZM101.276 19.1956C101.943 19.3033 102.591 19.414 103.222 19.5282L103.578 17.5601C102.934 17.4436 102.274 17.3308 101.595 17.2212L101.276 19.1956ZM105.194 19.9067C105.857 20.0416 106.502 20.1812 107.134 20.3261L107.581 18.3767C106.933 18.2281 106.271 18.085 105.593 17.9469L105.194 19.9067ZM109.055 20.7931C109.703 20.9599 110.34 21.1334 110.969 21.3141L111.521 19.3918C110.874 19.206 110.22 19.0277 109.553 18.8562L109.055 20.7931ZM112.87 21.8887C113.499 22.0883 114.124 22.2962 114.751 22.5131L115.405 20.6231C114.763 20.4008 114.121 20.1874 113.475 19.9824L112.87 21.8887ZM116.621 23.1851C117.237 23.4144 117.858 23.653 118.488 23.9016L119.222 22.0411C118.581 21.7882 117.948 21.545 117.318 21.3107L116.621 23.1851ZM120.333 24.6461C120.933 24.8936 121.544 25.15 122.169 25.4159L122.952 23.5756C122.321 23.3071 121.703 23.0477 121.095 22.797L120.333 24.6461ZM124.018 26.2121C124.616 26.4724 125.228 26.7409 125.856 27.0183L126.664 25.1886C126.033 24.9102 125.418 24.6402 124.816 24.3782L124.018 26.2121ZM127.679 27.8263C128.285 28.0962 128.907 28.3736 129.546 28.6589L130.361 26.8326C129.722 26.5472 129.099 26.2694 128.492 25.9991L127.679 27.8263ZM131.35 29.4645C131.955 29.7346 132.576 30.0113 133.212 30.2949L134.026 28.4677C133.39 28.1846 132.77 27.9082 132.165 27.6382L131.35 29.4645ZM135.028 31.1011C135.637 31.371 136.26 31.6465 136.9 31.9281L137.706 30.0977C137.068 29.8169 136.446 29.5419 135.838 29.2726L135.028 31.1011ZM138.711 32.7233C139.329 32.9935 139.961 33.2689 140.608 33.5496L141.404 31.715C140.759 31.435 140.129 31.1604 139.513 30.8909L138.711 32.7233ZM142.408 34.3279C143.019 34.591 143.642 34.8584 144.279 35.1304L145.065 33.2911C144.43 33.0199 143.808 32.7533 143.199 32.491L142.408 34.3279ZM146.134 35.9191C146.734 36.1732 147.345 36.4311 147.968 36.6928L148.743 34.8488C148.122 34.5879 147.512 34.3308 146.914 34.0775L146.134 35.9191ZM149.874 37.4896C150.472 37.7388 151.081 37.9913 151.701 38.2473L152.464 36.3987C151.847 36.1435 151.239 35.8917 150.643 35.6432L149.874 37.4896ZM153.554 39.0092C154.182 39.2665 154.82 39.5271 155.47 39.7911L156.223 37.9382C155.575 37.6749 154.938 37.4151 154.312 37.1585L153.554 39.0092ZM157.302 40.5325C157.91 40.7775 158.527 41.0254 159.154 41.2762L159.897 39.4193C159.271 39.1692 158.656 38.922 158.05 38.6775L157.302 40.5325ZM161.062 42.0369C161.385 42.1652 161.711 42.2941 162.039 42.4238L162.774 40.564C162.447 40.4346 162.123 40.306 161.8 40.1781L161.062 42.0369Z" fill="url(#paint0_linear_388_44)"/>
<defs>
<linearGradient id="paint0_linear_388_44" x1="572.013" y1="6" x2="572.013" y2="35.9162" gradientUnits="userSpaceOnUse">
<stop stop-color="#E71F3E"/>
<stop offset="0.395833" stop-color="#B03232"/>
</linearGradient>
</defs>
</svg>
