<svg width="43" height="42" viewBox="0 0 43 42" fill="none" xmlns="http://www.w3.org/2000/svg">
<path d="M12.321 28C11.9747 28 11.6361 28.1026 11.3482 28.2949C11.0603 28.4872 10.8359 28.7605 10.7033 29.0803C10.5708 29.4001 10.5361 29.7519 10.6037 30.0914C10.6713 30.4309 10.838 30.7427 11.0829 30.9874C11.3278 31.2322 11.6397 31.3988 11.9794 31.4664C12.319 31.5339 12.6711 31.4992 12.991 31.3668C13.3109 31.2343 13.5844 31.01 13.7768 30.7222C13.9692 30.4345 14.0719 30.0961 14.0719 29.75C14.0719 29.2859 13.8874 28.8407 13.559 28.5126C13.2307 28.1844 12.7853 28 12.321 28ZM33.437 21L35.5906 18.8475C36.5742 17.8631 37.1268 16.5288 37.1268 15.1375C37.1268 13.7462 36.5742 12.4119 35.5906 11.4275L30.6355 6.4925C29.6506 5.50935 28.3155 4.95712 26.9236 4.95712C25.5316 4.95712 24.1965 5.50935 23.2116 6.4925L21.0755 8.645C21.048 7.27089 20.4825 5.96235 19.5004 5.00038C18.5183 4.03841 17.1979 3.49973 15.8228 3.5H8.81914C7.42603 3.5 6.08998 4.05312 5.1049 5.03769C4.11982 6.02226 3.56641 7.35761 3.56641 8.75V33.25C3.56641 34.6424 4.11982 35.9777 5.1049 36.9623C6.08998 37.9469 7.42603 38.5 8.81914 38.5H33.3319C34.725 38.5 36.0611 37.9469 37.0461 36.9623C38.0312 35.9777 38.5846 34.6424 38.5846 33.25V26.25C38.5849 24.8756 38.0459 23.5559 37.0835 22.5743C36.121 21.5927 34.8118 21.0275 33.437 21ZM17.5737 33.25C17.5737 33.7141 17.3892 34.1593 17.0609 34.4874C16.7325 34.8156 16.2872 35 15.8228 35H8.81914C8.35477 35 7.90942 34.8156 7.58106 34.4874C7.2527 34.1593 7.06823 33.7141 7.06823 33.25V8.75C7.06823 8.28587 7.2527 7.84075 7.58106 7.51256C7.90942 7.18437 8.35477 7 8.81914 7H15.8228C16.2872 7 16.7325 7.18437 17.0609 7.51256C17.3892 7.84075 17.5737 8.28587 17.5737 8.75V33.25ZM21.0755 13.58L25.6979 8.96C26.026 8.63406 26.4698 8.45111 26.9323 8.45111C27.3949 8.45111 27.8387 8.63406 28.1667 8.96L33.1218 14C33.4479 14.3279 33.6309 14.7714 33.6309 15.2337C33.6309 15.6961 33.4479 16.1396 33.1218 16.4675L28.0792 21.5075L21.0755 28.42V13.58ZM35.0828 33.25C35.0828 33.7141 34.8983 34.1593 34.57 34.4874C34.2416 34.8156 33.7963 35 33.3319 35H20.7604C20.94 34.4813 21.0403 33.9386 21.058 33.39L29.9526 24.5H33.3319C33.7963 24.5 34.2416 24.6844 34.57 25.0126C34.8983 25.3408 35.0828 25.7859 35.0828 26.25V33.25Z" fill="#B73058"/>
</svg>
