<svg width="45" height="45" viewBox="0 0 45 45" fill="none" xmlns="http://www.w3.org/2000/svg">
<g clip-path="url(#clip0_115_4338)">
<path d="M41.7385 5.51638H17.2452V5.22305C17.2452 4.63638 17.0252 4.12305 16.5852 3.68304C16.1452 3.24305 15.6319 3.02304 15.0452 3.02304H13.1385C12.5519 3.02304 12.0385 3.24305 11.5985 3.68304C11.1585 4.12305 10.9385 4.68527 10.9385 5.36971V12.1164C10.9385 12.3119 11.0119 12.483 11.1585 12.6297C11.3052 12.7764 11.4763 12.8497 11.6719 12.8497C11.8674 12.8497 12.0385 12.7764 12.1852 12.6297C12.3319 12.483 12.4052 12.3119 12.4052 12.1164V5.22305C12.4052 5.02749 12.4785 4.85638 12.6252 4.70971C12.7719 4.56305 12.943 4.48971 13.1385 4.48971H15.0452C15.2408 4.48971 15.3874 4.56305 15.4852 4.70971C15.583 4.85638 15.6319 5.02749 15.6319 5.22305V15.4897C15.143 15.6853 14.6541 15.9786 14.1652 16.3697C13.1874 15.6853 12.1119 15.2942 10.9385 15.1964C9.76521 15.0986 8.7141 15.3186 7.78521 15.8564C6.85632 16.3942 6.19632 17.2008 5.80521 18.2764C5.4141 19.3519 5.36521 20.5986 5.65854 22.0164C5.95187 23.4342 6.56299 24.7786 7.49187 26.0497C8.42076 27.3208 9.56965 28.2986 10.9385 28.983V38.0764H2.87187C2.67632 38.0764 2.50521 38.003 2.35854 37.8564C2.21187 37.7097 2.13854 37.5386 2.13854 37.343V7.71638C2.13854 7.52082 2.21187 7.34971 2.35854 7.20304C2.50521 7.05638 2.67632 6.98304 2.87187 6.98304H7.71187C7.90743 6.98304 8.07854 6.90971 8.22521 6.76305C8.37187 6.61638 8.44521 6.44527 8.44521 6.24971C8.44521 6.05416 8.37187 5.88305 8.22521 5.73638C8.07854 5.58971 7.90743 5.51638 7.71187 5.51638H2.87187C2.28521 5.51638 1.77187 5.73638 1.33187 6.17638C0.891875 6.61638 0.671875 7.12971 0.671875 7.71638V37.343C0.671875 37.9297 0.891875 38.443 1.33187 38.883C1.77187 39.323 2.28521 39.543 2.87187 39.543H10.9385V39.6897C10.9385 40.3742 11.1585 40.9364 11.5985 41.3764C12.0385 41.8164 12.5519 42.0364 13.1385 42.0364H15.0452C15.6319 42.0364 16.1452 41.8164 16.5852 41.3764C17.0252 40.9364 17.2452 40.3742 17.2452 39.6897V32.3564C17.2452 32.1608 17.1719 31.9897 17.0252 31.843C16.8785 31.6964 16.683 31.623 16.4385 31.623C16.1941 31.623 15.9985 31.6964 15.8519 31.843C15.7052 31.9897 15.6319 32.1608 15.6319 32.3564V39.6897C15.7297 39.983 15.7052 40.203 15.5585 40.3497C15.4119 40.4964 15.1919 40.5697 14.8985 40.5697H13.1385C12.943 40.5697 12.7719 40.4964 12.6252 40.3497C12.4785 40.203 12.4052 40.0319 12.4052 39.8364V29.5697C13.383 29.863 14.3119 29.9119 15.1919 29.7164C17.0497 29.2275 18.6385 28.2742 19.9585 26.8564C21.2785 25.4386 22.1341 23.8008 22.5252 21.943C22.8185 20.5742 22.7697 19.3519 22.3785 18.2764C21.9874 17.2008 21.2541 16.3697 20.1785 15.783C19.983 15.6853 19.7874 15.6608 19.5919 15.7097C19.3963 15.7586 19.2497 15.8808 19.1519 16.0764C19.0541 16.2719 19.0541 16.4675 19.1519 16.663C19.2497 16.8586 19.3474 17.0053 19.4452 17.103C20.2274 17.4942 20.7408 18.0808 20.9852 18.863C21.2297 19.6453 21.2541 20.5742 21.0585 21.6497C20.7652 23.1164 20.1297 24.4364 19.1519 25.6097C18.0763 26.9786 16.6097 27.8586 14.7519 28.2497C14.3608 28.4453 13.9208 28.4453 13.4319 28.2497C11.6719 27.8586 10.2052 26.9786 9.03187 25.6097C8.0541 24.4364 7.41854 23.1164 7.12521 21.6497C6.83187 19.9875 7.02743 18.7408 7.71187 17.9097C8.39632 17.0786 9.34965 16.663 10.5719 16.663C11.7941 16.663 12.7963 17.0542 13.5785 17.8364C13.7741 17.9342 13.9452 17.983 14.0919 17.983C14.2385 17.983 14.4097 17.9342 14.6052 17.8364C15.1919 17.3475 15.8763 17.0053 16.6585 16.8097C16.9519 16.7119 17.0985 16.5164 17.0985 16.223L17.2452 6.98304H41.7385C42.1297 6.98304 42.4719 7.12971 42.7652 7.42305C43.0585 7.71638 43.2052 8.0586 43.2052 8.44971V37.343C43.2052 37.5386 43.1319 37.7097 42.9852 37.8564C42.8385 38.003 42.6674 38.0764 42.4719 38.0764H20.1785C19.983 38.0764 19.8119 38.1497 19.6652 38.2964C19.5185 38.443 19.4452 38.6142 19.4452 38.8097C19.4452 39.0053 19.5185 39.1764 19.6652 39.323C19.8119 39.4697 19.983 39.543 20.1785 39.543H42.4719C43.0585 39.543 43.5719 39.323 44.0119 38.883C44.4519 38.443 44.6719 37.9297 44.6719 37.343V8.44971C44.6719 7.56971 44.3785 6.86082 43.7919 6.32304C43.2052 5.78527 42.5208 5.51638 41.7385 5.51638ZM26.4852 33.0897C26.4852 33.7742 26.7052 34.3119 27.1452 34.703C27.5852 35.0942 28.0985 35.2897 28.6852 35.2897H37.9252C38.5119 35.2897 39.0252 35.0942 39.4652 34.703C39.9052 34.3119 40.1252 33.7742 40.1252 33.0897V28.6897C40.1252 28.103 39.9052 27.5897 39.4652 27.1497C39.0252 26.7097 38.5119 26.4897 37.9252 26.4897H28.6852C28.0985 26.4897 27.5852 26.7097 27.1452 27.1497C26.7052 27.5897 26.4852 28.103 26.4852 28.6897V33.0897ZM27.9519 28.6897C27.9519 28.4942 28.0252 28.323 28.1719 28.1764C28.3185 28.0297 28.4897 28.0053 28.6852 28.103H37.9252C38.1208 28.0053 38.2919 28.0297 38.4385 28.1764C38.5852 28.323 38.6585 28.543 38.6585 28.8364V33.0897C38.6585 33.383 38.5852 33.5786 38.4385 33.6764C38.2919 33.7742 38.1208 33.823 37.9252 33.823H28.6852C28.4897 33.823 28.3185 33.7742 28.1719 33.6764C28.0252 33.5786 27.9519 33.383 27.9519 33.0897V28.6897ZM40.1252 13.4364V12.1164C40.1252 11.5297 39.9052 11.0164 39.4652 10.5764C39.0252 10.1364 38.5119 9.91638 37.9252 9.91638H28.6852C28.0985 9.91638 27.5852 10.1364 27.1452 10.5764C26.7052 11.0164 26.4852 11.5297 26.4852 12.1164V13.4364C26.4852 14.023 26.7052 14.5364 27.1452 14.9764C27.5852 15.4164 28.0985 15.6364 28.6852 15.6364C28.8808 15.6364 29.0519 15.563 29.1985 15.4164C29.3452 15.2697 29.4185 15.0986 29.4185 14.903C29.4185 14.7075 29.3452 14.5364 29.1985 14.3897C29.0519 14.243 28.8808 14.1697 28.6852 14.1697C28.4897 14.1697 28.3185 14.0964 28.1719 13.9497C28.0252 13.803 27.9519 13.6319 27.9519 13.4364V12.1164C27.9519 11.9208 28.0252 11.7497 28.1719 11.603C28.3185 11.4564 28.4897 11.383 28.6852 11.383H37.9252C38.1208 11.383 38.2919 11.4564 38.4385 11.603C38.5852 11.7497 38.6585 11.9208 38.6585 12.1164V13.4364C38.6585 13.6319 38.5852 13.803 38.4385 13.9497C38.2919 14.0964 38.1208 14.1697 37.9252 14.1697H32.7919C32.5963 14.1697 32.4252 14.243 32.2785 14.3897C32.1319 14.5364 32.0585 14.7075 32.0585 14.903C32.0585 15.0986 32.1319 15.2697 32.2785 15.4164C32.4252 15.563 32.5963 15.6364 32.7919 15.6364H37.9252C38.5119 15.6364 39.0252 15.4164 39.4652 14.9764C39.9052 14.5364 40.1252 14.023 40.1252 13.4364ZM29.8585 22.823C29.663 22.823 29.4919 22.8964 29.3452 23.043C29.1985 23.1897 29.1252 23.3853 29.1252 23.6297C29.1252 23.8742 29.1985 24.0697 29.3452 24.2164C29.4919 24.363 29.663 24.4364 29.8585 24.4364H36.7519C36.9474 24.3386 37.1185 24.2408 37.2652 24.143C37.4119 24.0453 37.4852 23.8742 37.4852 23.6297C37.4852 23.3853 37.4119 23.1897 37.2652 23.043C37.1185 22.8964 36.9474 22.823 36.7519 22.823H29.8585Z" fill="#B40101"/>
</g>
<defs>
<clipPath id="clip0_115_4338">
<rect width="44.02" height="44" fill="white" transform="matrix(1 0 0 -1 0.660156 44.5298)"/>
</clipPath>
</defs>
</svg>
