<svg width="45" height="45" viewBox="0 0 45 45" fill="none" xmlns="http://www.w3.org/2000/svg">
<g clip-path="url(#clip0_115_4310)">
<path d="M39.959 17.3299C39.8612 17.2321 39.7146 17.1833 39.519 17.1833C39.3235 17.1833 39.1523 17.281 39.0057 17.4766C38.859 17.6721 38.7857 17.8677 38.7857 18.0633C38.7857 18.2588 38.8835 18.4055 39.079 18.5033C39.4701 18.7966 39.6168 19.1877 39.519 19.6766V41.2366C39.519 41.6277 39.3968 41.9699 39.1523 42.2633C38.9079 42.5566 38.5901 42.7033 38.199 42.7033H3.73234C3.24345 42.7033 2.87679 42.5566 2.63234 42.2633C2.3879 41.9699 2.26568 41.6277 2.26568 41.2366V22.6099L10.479 29.3566C10.5768 29.4544 10.7723 29.5033 11.0657 29.5033C11.359 29.5033 11.5546 29.3566 11.6523 29.0633C11.7501 28.7699 11.6523 28.4766 11.359 28.1833L2.26568 20.7033V19.6766C2.26568 19.1877 2.41234 18.7966 2.70568 18.5033C2.90123 18.4055 2.99901 18.2588 2.99901 18.0633C2.99901 17.8677 2.92568 17.6721 2.77901 17.4766C2.63234 17.281 2.46123 17.1833 2.26568 17.1833C2.07012 17.1833 1.92345 17.2321 1.82568 17.3299C1.14123 17.9166 0.750122 18.6988 0.652344 19.6766V41.2366C0.652344 42.0188 0.945677 42.7033 1.53234 43.2899C2.11901 43.8766 2.80345 44.1699 3.58568 44.1699H38.199C38.9812 44.1699 39.6657 43.8766 40.2523 43.2899C40.839 42.7033 41.1323 42.0188 41.1323 41.2366V19.6766C41.1323 18.6988 40.7412 17.9166 39.959 17.3299ZM5.19901 19.8233C5.39457 19.8233 5.56568 19.7499 5.71234 19.6033C5.85901 19.4566 5.93234 19.2855 5.93234 19.0899V3.10326C5.93234 2.71215 6.07901 2.36992 6.37234 2.07659C6.66568 1.78326 7.0079 1.63659 7.39901 1.63659H34.3857C34.7768 1.63659 35.119 1.78326 35.4123 2.07659C35.7057 2.36992 35.8523 2.71215 35.8523 3.10326V23.7833L28.2257 30.0899C28.4212 28.9166 28.3479 27.8899 28.0057 27.0099C27.6635 26.1299 27.0768 25.4455 26.2457 24.9566C25.4146 24.4677 24.5101 24.2721 23.5323 24.3699C22.5546 24.4677 21.6746 24.761 20.8923 25.2499C20.1101 24.761 19.2301 24.4677 18.2523 24.3699C17.2746 24.2721 16.3701 24.4677 15.539 24.9566C14.7079 25.4455 14.1212 26.1299 13.779 27.0099C13.4368 27.8899 13.3635 28.9166 13.559 30.0899L6.66568 35.3699C6.37234 35.5655 6.27457 35.8344 6.37234 36.1766C6.47012 36.5188 6.64123 36.6899 6.88568 36.6899C7.13012 36.6899 7.35012 36.641 7.54568 36.5433L13.999 31.7033C14.4879 32.9744 15.2457 34.0744 16.2723 35.0033C17.299 35.9321 18.5457 36.5921 20.0123 36.9833C20.599 37.081 21.1857 37.081 21.7723 36.9833C23.239 36.5921 24.4857 35.9321 25.5123 35.0033C26.539 34.0744 27.2968 32.9744 27.7857 31.7033L34.239 36.5433C34.4346 36.641 34.6546 36.6899 34.899 36.6899C35.1435 36.6899 35.3146 36.5188 35.4123 36.1766C35.5101 35.8344 35.4123 35.5655 35.119 35.3699L29.399 30.9699L37.1723 24.5166C37.2701 24.4188 37.319 23.9788 37.319 23.1966V3.10326C37.319 2.32103 37.0257 1.63659 36.439 1.04992C35.8523 0.463257 35.1679 0.169922 34.3857 0.169922H7.39901C6.61679 0.169922 5.93234 0.463257 5.34568 1.04992C4.75901 1.63659 4.46568 2.32103 4.46568 3.10326V19.0899C4.46568 19.2855 4.53901 19.4566 4.68568 19.6033C4.83234 19.7499 5.00345 19.8233 5.19901 19.8233ZM21.479 35.5166C21.0879 35.6144 20.6968 35.6144 20.3057 35.5166C18.839 35.1255 17.6168 34.3433 16.639 33.1699C15.8568 32.1921 15.3435 31.0677 15.099 29.7966C14.8546 28.5255 15.0257 27.5477 15.6123 26.8633C16.199 26.1788 16.9812 25.8366 17.959 25.8366C18.9368 25.8366 19.7679 26.1788 20.4523 26.8633C20.5501 26.961 20.6968 27.0099 20.8923 27.0099C21.0879 27.0099 21.2346 26.961 21.3323 26.8633C22.0168 26.1788 22.8479 25.8366 23.8257 25.8366C24.8035 25.8366 25.5857 26.1788 26.1723 26.8633C26.759 27.5477 26.9301 28.5255 26.6857 29.7966C26.4412 31.0677 25.9279 32.1921 25.1457 33.1699C24.1679 34.3433 22.9457 35.1255 21.479 35.5166ZM10.919 21.5833C10.7235 21.681 10.3323 21.6321 9.74568 21.4366C9.55012 21.3388 9.35457 21.3144 9.15901 21.3633C8.96345 21.4121 8.81679 21.5344 8.71901 21.7299C8.62123 21.9255 8.62123 22.121 8.71901 22.3166C8.81679 22.5121 8.96345 22.6588 9.15901 22.7566C10.3323 23.2455 11.2368 23.221 11.8723 22.6833C12.5079 22.1455 12.7279 21.1433 12.5323 19.6766C12.4346 18.601 12.0435 16.6944 11.359 13.9566C10.7723 11.5121 10.4301 9.75214 10.3323 8.67659C10.1368 7.20992 10.1857 6.32992 10.479 6.03659C10.7723 5.74326 11.2123 5.69437 11.799 5.88992C11.9946 5.88992 12.1901 5.84103 12.3857 5.74326C12.5812 5.64548 12.7035 5.49881 12.7523 5.30326C12.8012 5.1077 12.7768 4.93659 12.679 4.78992C12.5812 4.64326 12.4346 4.52103 12.239 4.42326C11.0657 4.12992 10.1612 4.27659 9.52568 4.86326C8.89012 5.44992 8.67012 6.72104 8.86568 8.67659C8.96345 9.75214 9.35457 11.6099 10.039 14.2499C10.6257 16.5966 10.9679 18.2588 11.0657 19.2366C11.2612 20.5077 11.2123 21.2899 10.919 21.5833ZM32.1857 4.86326C31.599 4.27659 30.719 4.12992 29.5457 4.42326C29.3501 4.52103 29.2035 4.64326 29.1057 4.78992C29.0079 4.93659 28.9835 5.1077 29.0323 5.30326C29.0812 5.49881 29.2035 5.64548 29.399 5.74326C29.5946 5.84103 29.7901 5.88992 29.9857 5.88992C30.5723 5.69437 31.0123 5.74326 31.3057 6.03659C31.599 6.32992 31.6479 7.20992 31.4523 8.67659C31.3546 9.75214 31.0123 11.5121 30.4257 13.9566C29.7412 16.6944 29.3501 18.601 29.2523 19.6766C29.0568 21.1433 29.2768 22.1455 29.9123 22.6833C30.5479 23.221 31.4523 23.2455 32.6257 22.7566C32.8212 22.6588 32.9679 22.5121 33.0657 22.3166C33.1635 22.121 33.1635 21.9255 33.0657 21.7299C32.9679 21.5344 32.8212 21.4121 32.6257 21.3633C32.4301 21.3144 32.2346 21.3388 32.039 21.4366C31.4523 21.6321 31.0368 21.6321 30.7923 21.4366C30.5479 21.241 30.5235 20.5077 30.719 19.2366C30.8168 18.2588 31.159 16.5966 31.7457 14.2499C32.4301 11.6099 32.8212 9.75214 32.919 8.67659C33.1146 6.72104 32.8701 5.44992 32.1857 4.86326ZM14.439 8.82326H27.3457C27.5412 8.82326 27.7123 8.74992 27.859 8.60326C28.0057 8.45659 28.079 8.28548 28.079 8.08992C28.079 7.89437 28.0057 7.72326 27.859 7.57659C27.7123 7.42992 27.5412 7.35659 27.3457 7.35659H14.439C14.2435 7.35659 14.0723 7.42992 13.9257 7.57659C13.779 7.72326 13.7057 7.89437 13.7057 8.08992C13.7057 8.28548 13.779 8.45659 13.9257 8.60326C14.0723 8.74992 14.2435 8.82326 14.439 8.82326ZM14.439 13.9566H27.3457C27.5412 13.9566 27.7123 13.8833 27.859 13.7366C28.0057 13.5899 28.079 13.4188 28.079 13.2233C28.079 13.0277 28.0057 12.8566 27.859 12.7099C27.7123 12.5633 27.5412 12.4899 27.3457 12.4899H14.439C14.2435 12.4899 14.0723 12.5633 13.9257 12.7099C13.779 12.8566 13.7057 13.0277 13.7057 13.2233C13.7057 13.4188 13.779 13.5899 13.9257 13.7366C14.0723 13.8833 14.2435 13.9566 14.439 13.9566ZM16.3457 17.6233C16.1501 17.6233 15.979 17.6966 15.8323 17.8433C15.6857 17.9899 15.6123 18.161 15.6123 18.3566C15.6123 18.5521 15.6857 18.7233 15.8323 18.8699C15.979 19.0166 16.1501 19.0899 16.3457 19.0899H25.439C25.6346 19.0899 25.8057 19.0166 25.9523 18.8699C26.099 18.7233 26.1723 18.5521 26.1723 18.3566C26.1723 18.161 26.099 17.9899 25.9523 17.8433C25.8057 17.6966 25.6346 17.6233 25.439 17.6233H16.3457Z" fill="#B40101"/>
</g>
<defs>
<clipPath id="clip0_115_4310">
<rect width="44.02" height="44" fill="white" transform="matrix(1 0 0 -1 0.640625 44.1699)"/>
</clipPath>
</defs>
</svg>
