<svg width="45" height="45" viewBox="0 0 45 45" fill="none" xmlns="http://www.w3.org/2000/svg">
<g id="Icon" clip-path="url(#clip0_115_4302)">
<path id="Vector" d="M44.5524 19.0899C44.5524 18.8944 44.4546 18.7233 44.259 18.5766C44.0635 18.4299 43.8679 18.381 43.6724 18.4299C43.4768 18.4788 43.3301 18.601 43.2324 18.7966C43.1346 18.9921 43.0857 19.1877 43.0857 19.3833C43.379 20.2633 43.2568 21.1188 42.719 21.9499C42.1813 22.781 41.4235 23.3433 40.4457 23.6366C40.9346 22.3655 41.3257 21.0455 41.619 19.6766C42.2057 17.6233 42.5479 15.6677 42.6457 13.8099C42.939 10.7788 42.6946 8.6277 41.9124 7.35659C41.5213 6.8677 41.0813 6.52548 40.5924 6.32992C39.8102 6.03659 38.9301 6.13437 37.9524 6.62326C37.2679 7.01437 36.6079 7.25881 35.9724 7.35659C35.3368 7.45437 34.6279 7.40548 33.8457 7.20992L29.0057 5.88992C27.7346 5.49881 26.5124 5.35215 25.339 5.44992C24.8502 4.86326 24.3613 4.32548 23.8724 3.83659C22.699 2.66326 21.4768 1.73437 20.2057 1.04992C18.5435 0.169922 17.2968 -0.0500755 16.4657 0.389923C15.6346 0.829922 14.9257 1.39215 14.339 2.07659C14.2413 2.17437 14.1924 2.34548 14.1924 2.58992C14.1924 2.83437 14.2902 3.00548 14.4857 3.10326C14.6813 3.20103 14.8768 3.24992 15.0724 3.24992C15.2679 3.24992 15.4146 3.15215 15.5124 2.95659C16.0013 2.4677 16.4902 2.07659 16.979 1.78326C17.4679 1.48993 18.2502 1.63659 19.3257 2.22326C20.4013 2.80993 21.4524 3.5677 22.479 4.49659C23.5057 5.42548 24.2879 6.37881 24.8257 7.35659C25.3635 8.33437 25.4368 9.11659 25.0457 9.70325C24.5568 10.5833 23.8479 11.3166 22.919 11.9033C21.9902 12.4899 20.8413 12.8321 19.4724 12.9299C19.5702 12.0499 19.4724 11.1699 19.179 10.2899C19.7657 9.70325 20.4502 9.31215 21.2324 9.11659C21.4279 9.01881 21.5746 8.89659 21.6724 8.74992C21.7702 8.60326 21.7946 8.43214 21.7457 8.23659C21.6968 8.04103 21.599 7.89437 21.4524 7.79659C21.3057 7.69881 21.1346 7.64992 20.939 7.64992C20.059 7.84548 19.2768 8.23659 18.5924 8.82326C18.3968 8.52992 18.1524 8.23659 17.859 7.94326C18.3479 7.25881 18.6902 6.52548 18.8857 5.74326C18.9835 5.5477 18.9835 5.35215 18.8857 5.15659C18.7879 4.96103 18.6413 4.83881 18.4457 4.78992C18.2502 4.74104 18.0546 4.76548 17.859 4.86326C17.6635 4.96103 17.5657 5.1077 17.5657 5.30326C17.3701 5.88992 17.1257 6.37881 16.8324 6.76992C15.9524 6.08548 15.0479 5.79214 14.119 5.88992C13.1902 5.9877 12.359 6.40326 11.6257 7.13659C10.8924 7.86992 10.4279 8.72548 10.2324 9.70325C8.86348 9.99659 7.78793 10.7299 7.00571 11.9033C5.63682 12.1966 4.4146 12.661 3.33904 13.2966C2.26348 13.9321 1.48126 14.7388 0.992373 15.7166C0.503485 16.6944 0.69904 18.0144 1.57904 19.6766C2.26348 20.9477 3.19237 22.1699 4.36571 23.3433C4.8546 23.8321 5.39237 24.321 5.97904 24.8099C5.88126 25.9833 6.02793 27.2055 6.41904 28.4766L7.73904 33.3166C7.9346 34.0988 7.98348 34.8077 7.88571 35.4433C7.78793 36.0788 7.54348 36.7877 7.15237 37.5699C6.76126 38.3521 6.63904 39.0855 6.78571 39.7699C6.93237 40.4544 7.39682 41.041 8.17904 41.5299C9.05904 42.0188 10.4035 42.2633 12.2124 42.2633C14.0213 42.2633 16.0502 42.0188 18.299 41.5299C20.2546 41.1388 22.2102 40.601 24.1657 39.9166C23.9702 40.7966 23.5302 41.481 22.8457 41.9699C22.1613 42.4588 21.379 42.7033 20.499 42.7033C20.3035 42.7033 20.1324 42.7766 19.9857 42.9233C19.839 43.0699 19.7657 43.241 19.7657 43.4366C19.7657 43.6321 19.839 43.8033 19.9857 43.9499C20.1324 44.0966 20.3035 44.1699 20.499 44.1699C21.8679 44.1699 23.0657 43.7055 24.0924 42.7766C25.119 41.8477 25.6813 40.6988 25.779 39.3299C29.1035 37.961 31.3035 36.5433 32.379 35.0766C32.8679 34.3921 33.0635 33.6833 32.9657 32.9499C32.8679 32.2166 32.5013 31.6055 31.8657 31.1166C31.2302 30.6277 30.7413 30.1144 30.399 29.5766C30.0568 29.0388 29.739 28.3299 29.4457 27.4499L28.2724 22.6099C27.3924 19.3833 25.6324 17.0366 22.9924 15.5699C22.7968 15.4721 22.6013 15.4721 22.4057 15.5699C22.2102 15.6677 22.0635 15.7899 21.9657 15.9366C21.8679 16.0833 21.8435 16.2544 21.8924 16.4499C21.9413 16.6455 22.0635 16.7921 22.259 16.8899C24.5079 18.161 26.0235 20.2144 26.8057 23.0499L28.1257 27.8899C28.3213 28.8677 28.639 29.6988 29.079 30.3833C29.519 31.0677 30.0813 31.6544 30.7657 32.1433C31.1568 32.5344 31.4013 32.8766 31.499 33.1699C31.5968 33.4633 31.499 33.8055 31.2057 34.1966C30.5213 35.1744 29.2013 36.1521 27.2457 37.1299C25.2902 38.1077 23.0168 38.9388 20.4257 39.6233C17.8346 40.3077 15.4879 40.6988 13.3857 40.7966C11.2835 40.8944 9.79237 40.6988 8.91237 40.2099C8.52126 40.0144 8.27682 39.7699 8.17904 39.4766C8.08126 39.1833 8.17904 38.6944 8.47237 38.0099C8.86348 37.2277 9.10793 36.4944 9.20571 35.8099C9.40126 34.9299 9.35237 34.001 9.05904 33.0233L7.73904 28.0366C7.54348 27.2544 7.44571 26.4721 7.44571 25.6899C8.8146 26.2766 9.98793 26.3255 10.9657 25.8366C12.4324 25.0544 13.5568 23.7344 14.339 21.8766C14.339 21.681 14.3146 21.5099 14.2657 21.3633C14.2168 21.2166 14.0946 21.0944 13.899 20.9966C13.7035 20.8988 13.5079 20.8988 13.3124 20.9966C13.1168 21.0944 12.9702 21.241 12.8724 21.4366C12.2857 22.9033 11.4057 23.9299 10.2324 24.5166C9.74348 24.8099 9.05904 24.761 8.17904 24.3699C7.29904 23.9788 6.37015 23.2944 5.39237 22.3166C4.21904 21.241 3.33904 20.1166 2.75237 18.9433C2.16571 17.7699 1.97015 16.9877 2.16571 16.5966C3.04571 15.1299 4.46348 14.1033 6.41904 13.5166C6.32126 14.4944 6.6146 15.4233 7.29904 16.3033C6.90793 16.5966 6.41904 16.841 5.83237 17.0366C5.63682 17.0366 5.49015 17.1344 5.39237 17.3299C5.2946 17.5255 5.2946 17.7699 5.39237 18.0633C5.49015 18.3566 5.66126 18.5033 5.90571 18.5033C6.15015 18.5033 6.51682 18.4055 7.00571 18.2099C7.4946 18.0144 7.98348 17.721 8.47237 17.3299C8.76571 17.6233 9.05904 17.8677 9.35237 18.0633C8.76571 18.7477 8.3746 19.5299 8.17904 20.4099C8.17904 20.6055 8.22793 20.7766 8.32571 20.9233C8.42348 21.0699 8.57015 21.1677 8.76571 21.2166C8.96126 21.2655 9.13237 21.241 9.27904 21.1433C9.42571 21.0455 9.54793 20.8988 9.64571 20.7033C9.84126 19.921 10.2324 19.2366 10.819 18.6499C13.0679 19.3344 15.219 19.0899 17.2724 17.9166C17.7613 17.6233 18.1524 17.2321 18.4457 16.7433C18.8368 15.961 19.1301 15.2277 19.3257 14.5433C20.9879 14.3477 22.4302 13.8833 23.6524 13.1499C24.8746 12.4166 25.7546 11.5366 26.2924 10.5099C26.8302 9.48326 26.8057 8.28548 26.219 6.91659C27.0013 6.91659 27.7835 7.01437 28.5657 7.20992L33.5524 8.52992C34.5302 8.82326 35.459 8.87215 36.339 8.67659C37.0235 8.57881 37.8057 8.33437 38.6857 7.94326C39.5657 7.55215 40.2501 7.64992 40.739 8.23659C41.2279 9.01881 41.4235 10.4366 41.3257 12.4899C41.2279 14.5433 40.8613 16.8166 40.2257 19.3099C39.5901 21.8033 38.8079 24.0766 37.879 26.1299C36.9501 28.1833 36.0457 29.601 35.1657 30.3833C34.9701 30.481 34.8724 30.6521 34.8724 30.8966C34.8724 31.141 34.9213 31.3366 35.019 31.4833C35.1168 31.6299 35.2879 31.7033 35.5324 31.7033C35.7768 31.7033 35.9479 31.6544 36.0457 31.5566C37.4146 30.3833 38.6857 28.281 39.859 25.2499C41.4235 25.1521 42.6946 24.4677 43.6724 23.1966C44.6501 21.9255 44.9435 20.5566 44.5524 19.0899ZM17.1257 15.8633C16.9302 16.1566 16.6857 16.401 16.3924 16.5966C15.219 17.3788 13.9968 17.6721 12.7257 17.4766C11.5524 17.3788 10.4768 17.0121 9.49904 16.3766C8.52126 15.741 8.00793 15.0077 7.95904 14.1766C7.91015 13.3455 8.20348 12.6366 8.83904 12.0499C9.4746 11.4633 10.1835 11.1699 10.9657 11.1699C11.1613 11.1699 11.3324 11.0966 11.479 10.9499C11.6257 10.8033 11.699 10.6321 11.699 10.4366C11.699 9.75214 11.919 9.11659 12.359 8.52992C12.799 7.94326 13.3124 7.60104 13.899 7.50326C15.0724 7.20992 16.099 7.7477 16.979 9.11659C17.5657 9.99659 17.9079 11.0233 18.0057 12.1966C18.1035 13.4677 17.8102 14.6899 17.1257 15.8633Z" fill="#B40101"/>
</g>
<defs>
<clipPath id="clip0_115_4302">
<rect width="44.02" height="44" fill="white" transform="matrix(1 0 0 -1 0.980469 44.1699)"/>
</clipPath>
</defs>
</svg>
