<svg width="71" height="70" viewBox="0 0 71 70" fill="none" xmlns="http://www.w3.org/2000/svg">
<g opacity="0.3" clip-path="url(#clip0_8_129)">
<path d="M69.9967 30.1C69.9967 29.7889 69.8396 29.5167 69.5254 29.2833C69.2113 29.05 68.8971 28.9722 68.5829 29.05C68.2687 29.1278 68.0331 29.3222 67.876 29.6333C67.7189 29.9444 67.6404 30.2556 67.6404 30.5667C68.1117 31.9667 67.9153 33.3278 67.0513 34.65C66.1873 35.9722 64.9699 36.8667 63.399 37.3333C64.1845 35.3111 64.8128 33.2111 65.2841 31.0333C66.2266 27.7667 66.7764 24.6556 66.9335 21.7C67.4048 16.8778 67.012 13.4556 65.7553 11.4333C65.127 10.6556 64.4201 10.1111 63.6347 9.8C62.378 9.33333 60.9642 9.48889 59.3933 10.2667C58.2937 10.8889 57.2333 11.2778 56.2123 11.4333C55.1912 11.5889 54.0523 11.5111 52.7956 11.2L45.0198 9.1C42.9776 8.47778 41.014 8.24445 39.129 8.4C38.3435 7.46667 37.5581 6.61111 36.7727 5.83334C34.8876 3.96667 32.924 2.48889 30.8819 1.4C28.2114 0 26.2085 -0.349998 24.8733 0.349998C23.538 1.05 22.3991 1.94444 21.4566 3.03333C21.2995 3.18889 21.221 3.46111 21.221 3.85C21.221 4.23889 21.3781 4.51111 21.6922 4.66666C22.0064 4.82222 22.3206 4.9 22.6348 4.9C22.9489 4.9 23.1846 4.74445 23.3417 4.43333C24.1271 3.65556 24.9125 3.03333 25.698 2.56667C26.4834 2.1 27.7401 2.33334 29.4681 3.26666C31.196 4.2 32.8847 5.40556 34.5342 6.88333C36.1836 8.36111 37.4403 9.87778 38.3043 11.4333C39.1682 12.9889 39.2861 14.2333 38.6577 15.1667C37.8723 16.5667 36.7334 17.7333 35.2411 18.6667C33.7487 19.6 31.9029 20.1444 29.7037 20.3C29.8608 18.9 29.7037 17.5 29.2324 16.1C30.175 15.1667 31.2746 14.5444 32.5313 14.2333C32.8455 14.0778 33.0811 13.8833 33.2382 13.65C33.3953 13.4167 33.4345 13.1444 33.356 12.8333C33.2775 12.5222 33.1204 12.2889 32.8847 12.1333C32.6491 11.9778 32.3742 11.9 32.06 11.9C30.6462 12.2111 29.3895 12.8333 28.2899 13.7667C27.9757 13.3 27.583 12.8333 27.1118 12.3667C27.8972 11.2778 28.447 10.1111 28.7612 8.86666C28.9183 8.55555 28.9183 8.24445 28.7612 7.93333C28.6041 7.62222 28.3685 7.42778 28.0543 7.35C27.7401 7.27222 27.4259 7.31111 27.1118 7.46667C26.7976 7.62222 26.6405 7.85556 26.6405 8.16667C26.3263 9.1 25.9336 9.87778 25.4623 10.5C24.0485 9.41111 22.5955 8.94444 21.1032 9.1C19.6108 9.25555 18.2756 9.91667 17.0974 11.0833C15.9193 12.25 15.1731 13.6111 14.8589 15.1667C12.6597 15.6333 10.9317 16.8 9.67502 18.6667C7.47579 19.1333 5.5122 19.8722 3.78423 20.8833C2.05626 21.8944 0.799563 23.1778 0.014124 24.7333C-0.771315 26.2889 -0.457139 28.3889 0.95665 31.0333C2.05626 33.0556 3.5486 35 5.43365 36.8667C6.21909 37.6444 7.08307 38.4222 8.0256 39.2C7.86851 41.0667 8.10414 43.0111 8.73249 45.0333L10.8532 52.7333C11.1674 53.9778 11.2459 55.1056 11.0888 56.1167C10.9317 57.1278 10.539 58.2556 9.91065 59.5C9.2823 60.7444 9.08594 61.9111 9.32157 63C9.5572 64.0889 10.3034 65.0222 11.5601 65.8C12.9739 66.5778 15.1338 66.9667 18.0399 66.9667C20.9461 66.9667 24.2056 66.5778 27.8187 65.8C30.9604 65.1778 34.1022 64.3222 37.2439 63.2333C36.9297 64.6333 36.2228 65.7222 35.1232 66.5C34.0236 67.2778 32.7669 67.6667 31.3531 67.6667C31.039 67.6667 30.764 67.7833 30.5284 68.0167C30.2928 68.25 30.175 68.5222 30.175 68.8333C30.175 69.1444 30.2928 69.4167 30.5284 69.65C30.764 69.8833 31.039 70 31.3531 70C33.5524 70 35.4767 69.2611 37.1261 67.7833C38.7755 66.3056 39.6788 64.4778 39.8359 62.3C45.1768 60.1222 48.7113 57.8667 50.4393 55.5333C51.2247 54.4444 51.5389 53.3167 51.3818 52.15C51.2247 50.9833 50.6356 50.0111 49.6146 49.2333C48.5935 48.4556 47.8081 47.6389 47.2583 46.7833C46.7085 45.9278 46.1979 44.8 45.7267 43.4L43.8416 35.7C42.4278 30.5667 39.6002 26.8333 35.3589 24.5C35.0447 24.3444 34.7305 24.3444 34.4163 24.5C34.1022 24.6556 33.8665 24.85 33.7094 25.0833C33.5524 25.3167 33.5131 25.5889 33.5916 25.9C33.6702 26.2111 33.8665 26.4444 34.1807 26.6C37.7937 28.6222 40.2286 31.8889 41.4853 36.4L43.606 44.1C43.9201 45.6556 44.4307 46.9778 45.1376 48.0667C45.8445 49.1556 46.7477 50.0889 47.8473 50.8667C48.4757 51.4889 48.8684 52.0333 49.0255 52.5C49.1826 52.9667 49.0255 53.5111 48.5542 54.1333C47.4546 55.6889 45.3339 57.2444 42.1922 58.8C39.0504 60.3556 35.3981 61.6778 31.2353 62.7667C27.0725 63.8556 23.3024 64.4778 19.925 64.6333C16.5476 64.7889 14.152 64.4778 12.7382 63.7C12.1099 63.3889 11.7172 63 11.5601 62.5333C11.403 62.0667 11.5601 61.2889 12.0313 60.2C12.6597 58.9556 13.0524 57.7889 13.2095 56.7C13.5237 55.3 13.4451 53.8222 12.9739 52.2667L10.8532 44.3333C10.539 43.0889 10.3819 41.8444 10.3819 40.6C12.5811 41.5333 14.4662 41.6111 16.0371 40.8333C18.3934 39.5889 20.1999 37.4889 21.4566 34.5333C21.4566 34.2222 21.4173 33.95 21.3388 33.7167C21.2602 33.4833 21.0639 33.2889 20.7497 33.1333C20.4355 32.9778 20.1214 32.9778 19.8072 33.1333C19.493 33.2889 19.2574 33.5222 19.1003 33.8333C18.1578 36.1667 16.744 37.8 14.8589 38.7333C14.0735 39.2 12.9739 39.1222 11.5601 38.5C10.1463 37.8778 8.65395 36.7889 7.08307 35.2333C5.19802 33.5222 3.78423 31.7333 2.8417 29.8667C1.89918 28 1.585 26.7556 1.89918 26.1333C3.31297 23.8 5.59074 22.1667 8.73249 21.2333C8.57541 22.7889 9.04667 24.2667 10.1463 25.6667C9.51793 26.1333 8.73249 26.5222 7.78997 26.8333C7.47579 26.8333 7.24016 26.9889 7.08307 27.3C6.92598 27.6111 6.92598 28 7.08307 28.4667C7.24016 28.9333 7.51506 29.1667 7.90778 29.1667C8.3005 29.1667 8.88958 29.0111 9.67502 28.7C10.4605 28.3889 11.2459 27.9222 12.0313 27.3C12.5026 27.7667 12.9739 28.1556 13.4451 28.4667C12.5026 29.5556 11.8742 30.8 11.5601 32.2C11.5601 32.5111 11.6386 32.7833 11.7957 33.0167C11.9528 33.25 12.1884 33.4056 12.5026 33.4833C12.8168 33.5611 13.0917 33.5222 13.3273 33.3667C13.5629 33.2111 13.7593 32.9778 13.9164 32.6667C14.2306 31.4222 14.8589 30.3333 15.8014 29.4C19.4145 30.4889 22.8704 30.1 26.1692 28.2333C26.9547 27.7667 27.583 27.1444 28.0543 26.3667C28.6826 25.1222 29.1539 23.9556 29.4681 22.8667C32.1386 22.5556 34.4556 21.8167 36.4192 20.65C38.3828 19.4833 39.7966 18.0833 40.6606 16.45C41.5246 14.8167 41.4853 12.9111 40.5428 10.7333C41.7995 10.7333 43.0562 10.8889 44.3129 11.2L52.3243 13.3C53.8952 13.7667 55.3876 13.8444 56.8013 13.5333C57.901 13.3778 59.1577 12.9889 60.5714 12.3667C61.9852 11.7444 63.0848 11.9 63.8703 12.8333C64.6557 14.0778 64.9699 16.3333 64.8128 19.6C64.6557 22.8667 64.0666 26.4833 63.0456 30.45C62.0245 34.4167 60.7678 38.0333 59.2755 41.3C57.7831 44.5667 56.3301 46.8222 54.9163 48.0667C54.6021 48.2222 54.445 48.4944 54.445 48.8833C54.445 49.2722 54.5236 49.5833 54.6807 49.8167C54.8377 50.05 55.1126 50.1667 55.5054 50.1667C55.8981 50.1667 56.173 50.0889 56.3301 49.9333C58.5293 48.0667 60.5714 44.7222 62.4565 39.9C64.9699 39.7444 67.012 38.6556 68.5829 36.6333C70.1538 34.6111 70.6251 32.4333 69.9967 30.1ZM25.9336 24.9667C25.6194 25.4333 25.2267 25.8222 24.7554 26.1333C22.8704 27.3778 20.9068 27.8444 18.8647 27.5333C16.9796 27.3778 15.2516 26.7944 13.6808 25.7833C12.1099 24.7722 11.2852 23.6056 11.2066 22.2833C11.1281 20.9611 11.5993 19.8333 12.6204 18.9C13.6415 17.9667 14.7804 17.5 16.0371 17.5C16.3512 17.5 16.6262 17.3833 16.8618 17.15C17.0974 16.9167 17.2152 16.6444 17.2152 16.3333C17.2152 15.2444 17.5687 14.2333 18.2756 13.3C18.9825 12.3667 19.8072 11.8222 20.7497 11.6667C22.6348 11.2 24.2842 12.0556 25.698 14.2333C26.6405 15.6333 27.1903 17.2667 27.3474 19.1333C27.5045 21.1556 27.0332 23.1 25.9336 24.9667Z" fill="#9D0F0F"/>
</g>
<defs>
<clipPath id="clip0_8_129">
<rect width="70.7178" height="70" fill="white" transform="matrix(1 0 0 -1 0 70)"/>
</clipPath>
</defs>
</svg>
