<svg width="45" height="45" viewBox="0 0 45 45" fill="none" xmlns="http://www.w3.org/2000/svg">
<g clip-path="url(#clip0_115_4347)">
<path d="M41.5963 11.3832C40.2274 9.62324 38.4674 8.2299 36.3163 7.20324C34.1652 6.17657 31.9652 5.71213 29.7163 5.8099C29.7163 4.44101 29.3007 3.3899 28.4696 2.65657C27.6385 1.92324 26.6363 1.53213 25.463 1.48324C24.2896 1.43435 23.2141 1.75212 22.2363 2.43657C21.2585 1.75212 20.2074 1.4099 19.083 1.4099C17.9585 1.4099 16.9807 1.80101 16.1496 2.58324C15.3185 3.36546 14.903 4.44101 14.903 5.8099C12.3607 5.71213 9.94074 6.2499 7.64296 7.42324C5.34518 8.59657 3.51185 10.2588 2.14296 12.4099C0.578514 14.9521 -0.00815278 17.7877 0.382958 20.9166C0.676292 23.6543 1.70296 26.441 3.46296 29.2766C3.56074 29.4721 3.73185 29.5943 3.97629 29.6432C4.22074 29.6921 4.44074 29.6188 4.63629 29.4232C5.0274 28.8366 5.56518 28.5432 6.24962 28.5432H38.223C38.8096 28.5432 39.323 28.7632 39.763 29.2032C40.203 29.6432 40.423 30.1566 40.423 30.7432V36.6099C40.423 37.0988 40.2518 37.5143 39.9096 37.8566C39.5674 38.1988 39.2007 38.3699 38.8096 38.3699H5.66296C5.27185 38.3699 4.90518 38.1988 4.56296 37.8566C4.22074 37.5143 4.04962 37.0988 4.04962 36.6099V35.8766H37.1963C37.3918 35.8766 37.563 35.8032 37.7096 35.6566C37.8563 35.5099 37.9296 35.3388 37.9296 35.1432C37.9296 34.9477 37.8563 34.7766 37.7096 34.6299C37.563 34.4832 37.3918 34.4099 37.1963 34.4099H4.04962V33.2366C4.04962 33.041 3.97629 32.8699 3.82962 32.7232C3.68296 32.5766 3.51185 32.5032 3.31629 32.5032C3.12074 32.5032 2.94962 32.5766 2.80296 32.7232C2.65629 32.8699 2.58296 33.041 2.58296 33.2366V36.6099C2.58296 37.4899 2.90074 38.2477 3.53629 38.8832C4.17185 39.5188 4.88074 39.8366 5.66296 39.8366H11.2363L10.503 41.7432C10.3074 42.0366 10.063 42.1832 9.76962 42.1832H7.42296C7.2274 42.1832 7.05629 42.1099 6.90962 41.9632C6.76296 41.8166 6.68962 41.6455 6.68962 41.4499C6.68962 41.2543 6.59185 41.1077 6.39629 41.0099C6.20074 40.9121 6.00518 40.8632 5.80962 40.8632C5.61407 40.8632 5.4674 40.9366 5.36962 41.0832C5.27185 41.2299 5.22296 41.401 5.22296 41.5966C5.22296 42.1832 5.44296 42.6721 5.88296 43.0632C6.32296 43.4543 6.83629 43.6499 7.42296 43.6499H9.76962C10.1607 43.6499 10.5518 43.5277 10.943 43.2832C11.3341 43.0388 11.6274 42.721 11.823 42.3299L12.8496 39.8366H37.783V41.4499C37.783 41.6455 37.7096 41.8166 37.563 41.9632C37.4163 42.1099 37.2452 42.1832 37.0496 42.1832H34.703C34.4096 42.1832 34.2141 42.061 34.1163 41.8166C34.0185 41.5721 33.8718 41.401 33.6763 41.3032C33.4807 41.2055 33.2852 41.2055 33.0896 41.3032C32.8941 41.401 32.7474 41.5477 32.6496 41.7432C32.5518 41.9388 32.5518 42.1343 32.6496 42.3299C32.8452 42.721 33.1385 43.0388 33.5296 43.2832C33.9207 43.5277 34.3118 43.6499 34.703 43.6499H37.0496C37.6363 43.6499 38.1496 43.4299 38.5896 42.9899C39.0296 42.5499 39.2496 42.0366 39.2496 41.4499V39.6899C40.0318 39.5921 40.6674 39.2499 41.1563 38.6632C41.6452 38.0766 41.8896 37.3921 41.8896 36.6099V30.7432C41.8896 29.7655 41.523 28.9099 40.7896 28.1766C40.0563 27.4432 39.2007 27.0766 38.223 27.0766H26.4896C26.2941 27.0766 26.123 27.0032 25.9763 26.8566C25.8296 26.7099 25.7563 26.5388 25.7563 26.3432V22.6766C25.7563 22.481 25.8296 22.3099 25.9763 22.1632C26.123 22.0166 26.2941 21.9432 26.4896 21.9432H33.383C33.5785 21.9432 33.7496 22.0166 33.8963 22.1632C34.043 22.3099 34.1163 22.481 34.1163 22.6766V24.4366C34.1163 24.7299 34.1896 24.9255 34.3363 25.0232C34.483 25.121 34.6541 25.1699 34.8496 25.1699C35.0452 25.1699 35.2163 25.121 35.363 25.0232C35.5096 24.9255 35.583 24.7299 35.583 24.4366V22.6766C35.583 21.9921 35.363 21.4543 34.923 21.0632C34.483 20.6721 33.9696 20.4766 33.383 20.4766H26.4896C25.903 20.4766 25.3896 20.6721 24.9496 21.0632C24.5096 21.4543 24.2896 21.9921 24.2896 22.6766V26.3432C24.2896 26.6366 24.3385 26.881 24.4363 27.0766H11.0896C10.8941 27.0766 10.723 27.0032 10.5763 26.8566C10.4296 26.7099 10.3563 26.5388 10.3563 26.3432V22.6766C10.3563 22.481 10.4296 22.3099 10.5763 22.1632C10.723 22.0166 10.8941 21.9432 11.0896 21.9432H17.983C18.1785 21.9432 18.3496 22.0166 18.4963 22.1632C18.643 22.3099 18.7163 22.481 18.7163 22.6766V24.8766C18.7163 25.0721 18.7896 25.2432 18.9363 25.3899C19.083 25.5366 19.2541 25.6099 19.4496 25.6099C19.6452 25.6099 19.8163 25.5366 19.963 25.3899C20.1096 25.2432 20.183 25.0721 20.183 24.8766V22.6766C20.183 21.9921 19.963 21.4543 19.523 21.0632C19.083 20.6721 18.5696 20.4766 17.983 20.4766H11.0896C10.503 20.4766 9.98962 20.6721 9.54962 21.0632C9.10962 21.4543 8.88962 21.9921 8.88962 22.6766V26.3432C8.88962 26.6366 8.93851 26.881 9.03629 27.0766H6.24962C5.4674 27.0766 4.78296 27.321 4.19629 27.8099C2.43629 24.681 1.60518 21.7477 1.70296 19.0099C1.80074 16.4677 2.58296 14.2677 4.04962 12.4099C5.32074 10.5521 7.03185 9.18324 9.18296 8.30324C11.3341 7.42324 13.4363 7.08102 15.4896 7.27657C15.783 7.27657 16.003 7.20324 16.1496 7.05657C16.2963 6.9099 16.3696 6.6899 16.3696 6.39657C16.2718 5.22324 16.5163 4.34324 17.103 3.75657C17.6896 3.1699 18.4474 2.90102 19.3763 2.94991C20.3052 2.99879 21.1118 3.31657 21.7963 3.90324C21.8941 4.00101 22.0407 4.0499 22.2363 4.0499C22.4318 4.0499 22.6274 4.00101 22.823 3.90324C23.5074 3.31657 24.3385 2.99879 25.3163 2.94991C26.2941 2.90102 27.0763 3.21879 27.663 3.90324C28.2496 4.58768 28.4207 5.5899 28.1763 6.9099C27.9318 8.2299 27.4185 9.37879 26.6363 10.3566C25.6585 11.5299 24.3874 12.3121 22.823 12.7032C22.4318 12.801 22.0407 12.801 21.6496 12.7032C19.9874 12.2143 18.6674 11.3343 17.6896 10.0632C17.5918 9.86768 17.4452 9.74546 17.2496 9.69657C17.0541 9.64768 16.883 9.69657 16.7363 9.84324C16.5896 9.9899 16.4918 10.161 16.443 10.3566C16.3941 10.5521 16.4185 10.7477 16.5163 10.9432C17.7874 12.5077 19.4007 13.5343 21.3563 14.0232C21.943 14.2188 22.5785 14.2188 23.263 14.0232C24.9252 13.6321 26.3185 12.801 27.443 11.5299C28.5674 10.2588 29.2763 8.84101 29.5696 7.27657C31.623 7.17879 33.6518 7.59435 35.6563 8.52324C37.6607 9.45213 39.2496 10.6743 40.423 12.1899C41.5963 13.7055 42.3296 15.3432 42.623 17.1032C43.0141 19.4499 42.7207 21.9432 41.743 24.5832C41.6452 24.8766 41.6696 25.121 41.8163 25.3166C41.963 25.5121 42.183 25.6099 42.4763 25.6099C42.7696 25.6099 42.9652 25.4632 43.063 25.1699C44.0407 22.6277 44.4074 20.1832 44.163 17.8366C43.9185 15.4899 43.063 13.3388 41.5963 11.3832Z" fill="#B40101"/>
</g>
<defs>
<clipPath id="clip0_115_4347">
<rect width="44.02" height="44" fill="white" transform="matrix(1 0 0 -1 0.308594 44.5298)"/>
</clipPath>
</defs>
</svg>
