<svg width="45" height="45" viewBox="0 0 45 45" fill="none" xmlns="http://www.w3.org/2000/svg">
<g clip-path="url(#clip0_115_4319)">
<path d="M10.154 34.4899C10.154 34.4899 10.6429 34.3433 11.6206 34.0499L14.114 33.1699C15.0917 32.8766 15.9229 32.3388 16.6073 31.5566C17.2917 30.7744 17.7317 29.8455 17.9273 28.7699C19.9806 29.4544 21.9851 29.4299 23.9406 28.6966C25.8962 27.9633 27.4851 26.7655 28.7073 25.1033C29.9295 23.441 30.5406 21.5833 30.5406 19.5299V13.3699C30.5406 12.9788 30.3451 12.7344 29.954 12.6366C28.2917 12.1477 27.1184 11.0721 26.434 9.40992C26.3362 9.11659 26.1651 8.94548 25.9206 8.89659C25.6762 8.8477 25.4562 8.87215 25.2606 8.96992C23.3051 10.5344 21.154 11.6099 18.8073 12.1966C16.4606 12.7833 14.114 12.9299 11.7673 12.6366C11.5717 12.6366 11.3762 12.7099 11.1806 12.8566C10.9851 13.0033 10.8873 13.1744 10.8873 13.3699V19.5299C10.8873 22.2677 11.914 24.6144 13.9673 26.5699C14.1629 26.6677 14.3584 26.7166 14.554 26.7166C14.7495 26.7166 14.9206 26.6433 15.0673 26.4966C15.214 26.3499 15.2629 26.1788 15.214 25.9833C15.1651 25.7877 15.0917 25.641 14.994 25.5433C13.234 23.881 12.354 21.8277 12.354 19.3833V14.2499C14.7006 14.4455 16.9984 14.2499 19.2473 13.6633C21.4962 13.0766 23.5495 12.0988 25.4073 10.7299C26.2873 12.2944 27.5095 13.3699 29.074 13.9566V19.3833C29.074 21.3388 28.4873 23.0499 27.314 24.5166C26.1406 25.9833 24.6495 26.961 22.8406 27.4499C21.0317 27.9388 19.2473 27.841 17.4873 27.1566C17.194 26.961 16.9251 26.9855 16.6806 27.2299C16.4362 27.4744 16.3629 27.7433 16.4606 28.0366C16.4606 28.9166 16.1917 29.6988 15.654 30.3833C15.1162 31.0677 14.4562 31.5566 13.674 31.8499L9.71396 33.1699C8.54063 33.561 7.61174 34.2455 6.9273 35.2233C6.24285 36.201 5.90063 37.3255 5.90063 38.5966V43.4366C5.90063 43.6321 5.97396 43.8033 6.12063 43.9499C6.2673 44.0966 6.43841 44.1699 6.63396 44.1699C6.82952 44.1699 7.00063 44.0966 7.1473 43.9499C7.29396 43.8033 7.3673 43.6321 7.3673 43.4366V38.5966C7.3673 37.7166 7.61174 36.8855 8.10063 36.1033C8.58952 35.321 9.27396 34.7833 10.154 34.4899ZM19.1006 18.3566V17.1833C19.1006 16.9877 19.0273 16.8166 18.8806 16.6699C18.734 16.5233 18.5629 16.4499 18.3673 16.4499C18.1717 16.4499 18.0006 16.5233 17.854 16.6699C17.7073 16.8166 17.634 16.9877 17.634 17.1833V18.3566C17.634 18.5521 17.7073 18.7233 17.854 18.8699C18.0006 19.0166 18.1717 19.0899 18.3673 19.0899C18.5629 19.0899 18.734 19.0166 18.8806 18.8699C19.0273 18.7233 19.1006 18.5521 19.1006 18.3566ZM23.794 18.3566V17.1833C23.794 16.9877 23.7206 16.8166 23.574 16.6699C23.4273 16.5233 23.2562 16.4499 23.0606 16.4499C22.8651 16.4499 22.694 16.5233 22.5473 16.6699C22.4006 16.8166 22.3273 16.9877 22.3273 17.1833V18.3566C22.3273 18.5521 22.4006 18.7233 22.5473 18.8699C22.694 19.0166 22.8651 19.0899 23.0606 19.0899C23.2562 19.0899 23.4273 19.0166 23.574 18.8699C23.7206 18.7233 23.794 18.5521 23.794 18.3566ZM6.63396 32.8766C6.82952 32.8766 7.00063 32.7544 7.1473 32.5099C7.29396 32.2655 7.3673 32.0455 7.3673 31.8499L7.07396 30.9699C6.97619 30.2855 6.87841 29.7477 6.78063 29.3566C6.4873 28.6721 6.12063 28.1344 5.68063 27.7433C5.24063 27.3521 4.62952 27.0099 3.8473 26.7166C3.06507 26.4233 2.57619 26.081 2.38063 25.6899C1.98952 25.201 1.79396 24.4188 1.79396 23.3433C1.69619 21.8766 2.03841 20.2633 2.82063 18.5033C3.99396 15.8633 5.90063 13.0277 8.54063 9.99659V24.0766C8.54063 24.761 8.73619 25.3721 9.1273 25.9099C9.51841 26.4477 10.0562 26.8144 10.7406 27.0099C10.9362 27.0099 11.1317 26.961 11.3273 26.8633C11.5229 26.7655 11.6451 26.6188 11.694 26.4233C11.7429 26.2277 11.7184 26.0321 11.6206 25.8366C11.5229 25.641 11.3273 25.5188 11.034 25.4699C10.7406 25.421 10.4962 25.2744 10.3006 25.0299C10.1051 24.7855 10.0073 24.4677 10.0073 24.0766V9.99659C10.0073 9.31215 10.0562 8.67659 10.154 8.08992L10.3006 7.64992C10.7895 5.88992 11.7917 4.4477 13.3073 3.32326C14.8229 2.19881 16.5095 1.63659 18.3673 1.63659H23.0606C25.4073 1.63659 27.3873 2.4677 29.0006 4.12992C30.614 5.79214 31.4206 7.7477 31.4206 9.99659V24.0766C31.4206 24.4677 31.3229 24.7855 31.1273 25.0299C30.9317 25.2744 30.6873 25.421 30.394 25.4699C30.1006 25.5188 29.9051 25.641 29.8073 25.8366C29.7095 26.0321 29.6606 26.2277 29.6606 26.4233C29.6606 26.6188 29.7584 26.7655 29.954 26.8633C30.1495 26.961 30.3451 27.0099 30.5406 27.0099C31.2251 26.9121 31.7873 26.5699 32.2273 25.9833C32.6673 25.3966 32.8873 24.761 32.8873 24.0766V9.99659C32.8873 8.23659 32.4473 6.59881 31.5673 5.08326C30.6873 3.5677 29.4895 2.36992 27.974 1.48993C26.4584 0.609924 24.8206 0.169922 23.0606 0.169922H18.3673C16.1184 0.169922 14.114 0.854366 12.354 2.22326C10.594 3.59214 9.42063 5.30326 8.83396 7.35659C6.4873 9.89881 4.58063 12.3921 3.11396 14.8366C1.15841 18.0633 0.229519 20.8988 0.327297 23.3433C0.327297 24.9077 0.669519 26.0321 1.35396 26.7166C1.74507 27.2055 2.38063 27.6455 3.26063 28.0366C3.94507 28.3299 4.43396 28.5988 4.7273 28.8433C5.02063 29.0877 5.21619 29.381 5.31396 29.7233C5.41174 30.0655 5.50952 30.5299 5.6073 31.1166L5.90063 32.2899C5.99841 32.681 6.24285 32.8766 6.63396 32.8766ZM36.4073 12.0499C36.3095 11.8544 36.1628 11.7321 35.9673 11.6833C35.7717 11.6344 35.5762 11.6833 35.3806 11.8299C35.1851 11.9766 35.0873 12.1477 35.0873 12.3433C35.0873 12.5388 35.1362 12.7344 35.234 12.9299C36.7006 14.8855 37.8251 16.7677 38.6073 18.5766C39.3895 20.3855 39.7317 21.9744 39.634 23.3433C39.634 24.4188 39.4384 25.201 39.0473 25.6899C38.8517 26.081 38.3629 26.4233 37.5806 26.7166C36.7984 27.0099 36.1873 27.3521 35.7473 27.7433C35.3073 28.1344 34.9406 28.6721 34.6473 29.3566C34.5495 29.7477 34.4517 30.2855 34.354 30.9699C34.2562 31.6544 34.0606 32.1677 33.7673 32.5099C33.474 32.8521 32.7895 33.0721 31.714 33.1699L27.754 31.8499C26.7762 31.4588 26.0429 30.8233 25.554 29.9433C25.4562 29.7477 25.3095 29.6255 25.114 29.5766C24.9184 29.5277 24.7229 29.5521 24.5273 29.6499C24.3317 29.7477 24.2095 29.8944 24.1606 30.0899C24.1117 30.2855 24.1362 30.481 24.234 30.6766L24.5273 31.1166C23.5495 32.2899 22.2784 32.9744 20.714 33.1699C19.9317 33.0721 19.1495 32.8277 18.3673 32.4366C18.2695 32.3388 18.1229 32.3144 17.9273 32.3633C17.7317 32.4121 17.5851 32.5344 17.4873 32.7299C17.3895 32.9255 17.3651 33.121 17.414 33.3166C17.4629 33.5121 17.5851 33.6588 17.7806 33.7566C18.6606 34.2455 19.5895 34.5388 20.5673 34.6366H20.8606C22.7184 34.441 24.2829 33.6099 25.554 32.1433C26.0429 32.6321 26.6295 32.9744 27.314 33.1699L31.274 34.4899C32.154 34.881 32.8384 35.4433 33.3273 36.1766C33.8162 36.9099 34.0606 37.7166 34.0606 38.5966V43.4366C34.0606 43.6321 34.134 43.8033 34.2806 43.9499C34.4273 44.0966 34.5984 44.1699 34.794 44.1699C34.9895 44.1699 35.1606 44.0966 35.3073 43.9499C35.454 43.8033 35.5273 43.6321 35.5273 43.4366V38.5966C35.5273 36.8366 34.8917 35.3699 33.6206 34.1966C34.2073 34.001 34.6717 33.7077 35.014 33.3166C35.3562 32.9255 35.6251 32.1921 35.8206 31.1166C35.9184 30.6277 36.0162 30.1877 36.114 29.7966C36.2117 29.4055 36.4073 29.0877 36.7006 28.8433C36.994 28.5988 37.4828 28.3299 38.1673 28.0366C39.0473 27.6455 39.6828 27.2055 40.074 26.7166C40.7584 26.0321 41.1251 24.9566 41.174 23.4899C41.2228 22.0233 40.954 20.5077 40.3673 18.9433C39.5851 16.7921 38.2651 14.4944 36.4073 12.0499ZM20.714 38.3033C19.2473 36.9344 17.634 36.3477 15.874 36.5433C14.114 36.7388 12.6473 37.521 11.474 38.8899C10.3006 40.2588 9.81174 41.8233 10.0073 43.5833C10.0073 43.7788 10.1051 43.9255 10.3006 44.0233C10.4962 44.121 10.6917 44.1699 10.8873 44.1699C11.0829 44.1699 11.2295 44.0721 11.3273 43.8766C11.4251 43.681 11.474 43.4855 11.474 43.2899C11.2784 41.921 11.6695 40.7233 12.6473 39.6966C13.6251 38.6699 14.8473 38.1321 16.314 38.0833C17.7806 38.0344 19.0517 38.5966 20.1273 39.7699C20.3229 39.9655 20.5184 40.0633 20.714 40.0633C20.9095 40.0633 21.1051 39.9655 21.3006 39.7699C22.3762 38.5966 23.6473 38.0344 25.114 38.0833C26.5806 38.1321 27.8029 38.6699 28.7806 39.6966C29.7584 40.7233 30.1495 41.921 29.954 43.2899C29.954 43.4855 30.0029 43.681 30.1006 43.8766C30.1984 44.0721 30.3451 44.1699 30.5406 44.1699C30.7362 44.1699 30.9317 44.121 31.1273 44.0233C31.3229 43.9255 31.4206 43.7788 31.4206 43.5833C31.6162 41.8233 31.1273 40.2588 29.954 38.8899C28.7806 37.521 27.314 36.7388 25.554 36.5433C23.794 36.3477 22.1806 36.9344 20.714 38.3033Z" fill="#B40101"/>
</g>
<defs>
<clipPath id="clip0_115_4319">
<rect width="44.02" height="44" fill="white" transform="matrix(1 0 0 -1 0.308594 44.1699)"/>
</clipPath>
</defs>
</svg>
