<svg width="45" height="45" viewBox="0 0 45 45" fill="none" xmlns="http://www.w3.org/2000/svg">
<g clip-path="url(#clip0_115_4328)">
<path d="M43.2784 43.0631H37.265V20.1831C37.265 17.8365 36.7762 15.6365 35.7984 13.5831C34.8206 11.5298 33.4028 9.76979 31.5451 8.30312C31.3495 8.10756 31.1539 8.03423 30.9584 8.08312C30.7628 8.13201 30.6162 8.22979 30.5184 8.37645C30.4206 8.52312 30.3717 8.69423 30.3717 8.88979C30.3717 9.08534 30.4695 9.2809 30.6651 9.47645C32.3273 10.7476 33.5984 12.3365 34.4784 14.2431C35.3584 16.1498 35.7984 18.1298 35.7984 20.1831V33.0898H32.4251C32.0339 33.0898 31.7162 32.9676 31.4717 32.7231C31.2273 32.4787 31.1051 32.1853 31.1051 31.8431C31.1051 31.5009 31.2273 31.2076 31.4717 30.9631C31.7162 30.7187 32.0339 30.5965 32.4251 30.5965H33.4517C33.6473 30.5965 33.8184 30.5231 33.965 30.3765C34.1117 30.2298 34.1851 30.0587 34.1851 29.8631C34.1851 29.6676 34.1117 29.4965 33.965 29.3498C33.8184 29.2031 33.6473 29.1298 33.4517 29.1298H33.0117C30.3717 27.8587 28.1717 25.5609 26.4117 22.2365C24.8473 19.4987 23.7717 16.4676 23.1851 13.1431C24.8473 12.6542 26.2651 11.7742 27.4384 10.5031C28.2206 9.62312 28.7828 8.59645 29.1251 7.42312C29.4673 6.24979 29.5895 5.17423 29.4917 4.19645C32.8162 5.46756 35.4073 7.42312 37.265 10.0631C39.1228 12.7031 40.0517 15.7831 40.0517 19.3031V39.8365C40.0517 40.032 40.125 40.2031 40.2717 40.3498C40.4184 40.4965 40.5895 40.5698 40.785 40.5698C40.9806 40.5698 41.1517 40.4965 41.2984 40.3498C41.445 40.2031 41.5184 40.032 41.5184 39.8365V19.3031C41.5184 15.1965 40.3695 11.6765 38.0717 8.74312C35.7739 5.80979 32.7184 3.70757 28.9051 2.43645C28.2206 1.3609 27.1939 0.749786 25.8251 0.603119C24.4562 0.456455 23.1851 0.774231 22.0117 1.55645C21.2295 0.969788 20.3495 0.627563 19.3717 0.529785C18.3939 0.432011 17.4651 0.627563 16.5851 1.11646C15.7051 1.60534 15.1184 2.36312 14.8251 3.38979C14.5317 4.41645 14.5317 5.51645 14.8251 6.68979C12.3806 8.05867 10.4251 9.9409 8.95839 12.3365C7.49172 14.732 6.75839 17.3476 6.75839 20.1831V43.0631H3.97172V19.0098C4.0695 15.9787 4.82727 13.2898 6.24505 10.9431C7.66283 8.59645 9.64283 6.68979 12.1851 5.22312C12.3806 5.12534 12.5028 4.97868 12.5517 4.78312C12.6006 4.58757 12.5762 4.41645 12.4784 4.26979C12.3806 4.12312 12.2339 4.0009 12.0384 3.90312C11.8428 3.80534 11.6962 3.80534 11.5984 3.90312C8.76283 5.46756 6.56283 7.54534 4.99839 10.1365C3.43394 12.7276 2.60283 15.6853 2.50505 19.0098L2.65172 18.7165C2.55394 18.8142 2.50505 21.7476 2.50505 27.5165V43.0631H0.745052C0.549496 43.0631 0.378385 43.1365 0.231719 43.2831C0.0850521 43.4298 0.0117188 43.6009 0.0117188 43.7965C0.0117188 43.992 0.0850521 44.1631 0.231719 44.3098C0.378385 44.4565 0.549496 44.5298 0.745052 44.5298H18.9317C19.1273 44.5298 19.2984 44.4565 19.4451 44.3098C19.5917 44.1631 19.6651 43.992 19.6651 43.7965C19.6651 43.6009 19.5917 43.4298 19.4451 43.2831C19.2984 43.1365 19.1273 43.0631 18.9317 43.0631H8.22505V30.5965H11.5984C11.9895 30.5965 12.3073 30.7187 12.5517 30.9631C12.7962 31.2076 12.9184 31.5009 12.9184 31.8431C12.9184 32.1853 12.7962 32.4787 12.5517 32.7231C12.3073 32.9676 11.9895 33.0898 11.5984 33.0898H10.5717C10.3762 33.0898 10.2051 33.1631 10.0584 33.3098C9.91172 33.4565 9.83838 33.652 9.83838 33.8965C9.83838 34.1409 9.91172 34.312 10.0584 34.4098C10.2051 34.5076 10.3762 34.5565 10.5717 34.5565H11.3051C12.3806 35.1431 13.3095 35.9009 14.0917 36.8298C14.8739 37.7587 15.4606 38.8098 15.8517 39.9831C15.9495 40.3742 16.1695 40.5698 16.5117 40.5698C16.8539 40.5698 17.0984 40.472 17.2451 40.2765C17.3917 40.0809 17.4162 39.8365 17.3184 39.5431C16.6339 37.2942 15.2651 35.4853 13.2117 34.1165C13.9939 33.5298 14.3851 32.772 14.3851 31.8431C14.3851 30.9142 13.9939 30.1565 13.2117 29.5698C15.0695 28.2987 16.7073 26.5631 18.1251 24.3631C19.5428 22.1631 20.6917 19.5965 21.5717 16.6631C21.6695 16.4676 21.6695 16.272 21.5717 16.0765C21.4739 15.8809 21.3273 15.7587 21.1317 15.7098C20.9362 15.6609 20.7406 15.6853 20.5451 15.7831C20.3495 15.8809 20.2517 16.0276 20.2517 16.2231C19.2739 19.352 18.0028 22.0409 16.4384 24.2898C14.8739 26.5387 13.0651 28.152 11.0117 29.1298H8.22505V20.1831C8.22505 17.7387 8.86061 15.4165 10.1317 13.2165C11.4028 11.0165 13.1139 9.32979 15.2651 8.15645C15.8517 9.42756 16.6339 10.5031 17.6117 11.3831C18.5895 12.2631 19.7628 12.8498 21.1317 13.1431L21.5717 13.2898C22.2562 16.6142 23.3317 19.6453 24.7984 22.3831C26.4606 25.6098 28.4651 28.0053 30.8117 29.5698C30.0295 30.1565 29.6384 30.9387 29.6384 31.9165C29.6384 32.6987 29.9073 33.3342 30.4451 33.8231C30.9828 34.312 31.6428 34.5565 32.4251 34.5565H35.7984V43.0631H27.7317C27.6339 40.8142 28.3184 38.8098 29.7851 37.0498C29.8828 36.8542 29.9317 36.6587 29.9317 36.4631C29.9317 36.2676 29.8339 36.1209 29.6384 36.0231C29.4428 35.9253 29.2473 35.8765 29.0517 35.8765C28.8562 35.8765 28.7095 35.9742 28.6117 36.1698C26.9495 38.1253 26.1673 40.4231 26.2651 43.0631H25.0917C24.8962 43.0631 24.7251 43.1365 24.5784 43.2831C24.4317 43.4298 24.3584 43.6009 24.3584 43.7965C24.3584 43.992 24.4317 44.1631 24.5784 44.3098C24.7251 44.4565 24.8962 44.5298 25.0917 44.5298H43.2784C43.4739 44.5298 43.6451 44.4565 43.7917 44.3098C43.9384 44.1631 44.0117 43.992 44.0117 43.7965C44.0117 43.6009 43.9384 43.4298 43.7917 43.2831C43.6451 43.1365 43.4739 43.0631 43.2784 43.0631ZM16.1451 6.10312C15.9495 4.73423 16.1451 3.70757 16.7317 3.02312C17.3184 2.33868 18.1006 1.99645 19.0784 1.99645C20.0562 1.99645 20.8873 2.33868 21.5717 3.02312C21.6695 3.1209 21.8162 3.16979 22.0117 3.16979C22.2073 3.16979 22.4028 3.1209 22.5984 3.02312C23.2828 2.33868 24.1139 1.99645 25.0917 1.99645C26.0695 1.99645 26.8517 2.33868 27.4384 3.02312C28.0251 3.70757 28.1962 4.70979 27.9517 6.02979C27.7073 7.34978 27.1939 8.49868 26.4117 9.47645C25.4339 10.6498 24.1628 11.3831 22.5984 11.6765C22.2073 11.7742 21.8162 11.7742 21.4251 11.6765C19.9584 11.3831 18.7362 10.6498 17.7584 9.47645C16.9762 8.49868 16.4384 7.37423 16.1451 6.10312Z" fill="#B40101"/>
</g>
<defs>
<clipPath id="clip0_115_4328">
<rect width="44.02" height="44" fill="white" transform="matrix(1 0 0 -1 0 44.5298)"/>
</clipPath>
</defs>
</svg>
